<svg width="154" height="104" viewBox="0 0 154 104" fill="none" xmlns="http://www.w3.org/2000/svg">
<path d="M75.5729 103.28C117.311 103.28 151.146 101.257 151.146 98.7604C151.146 96.2643 117.311 94.2408 75.5729 94.2408C33.8351 94.2408 0 96.2643 0 98.7604C0 101.257 33.8351 103.28 75.5729 103.28Z" fill="#F5F5F5"/>
<path d="M61.4319 43.7626H54.6499V46.206H61.4319V43.7626Z" fill="#2C83E7"/>
<path d="M75.1598 44.5612H69.1885V46.5055H75.1598V44.5612Z" fill="#2C83E7"/>
<path d="M76.5706 41.4549H67.7773L68.5296 40.6005H75.8183L76.5706 41.4549Z" fill="#2C83E7"/>
<path d="M142.162 40.884H81.3922L76.5005 45.4595H48.8852C48.5523 45.4595 48.2331 45.5949 47.9977 45.836C47.7624 46.0771 47.6301 46.4041 47.6301 46.7451V98.2653C47.6301 98.6063 47.7624 98.9333 47.9977 99.1744C48.2331 99.4155 48.5523 99.551 48.8852 99.551H142.162C142.494 99.551 142.814 99.4155 143.049 99.1744C143.284 98.9333 143.417 98.6063 143.417 98.2653V42.1736C143.417 41.8322 143.284 41.5048 143.049 41.2631C142.814 41.0214 142.495 40.885 142.162 40.884V40.884Z" fill="#2C83E7"/>
<path opacity="0.6" d="M142.162 40.884H81.3922L76.5005 45.4595H48.8852C48.5523 45.4595 48.2331 45.5949 47.9977 45.836C47.7624 46.0771 47.6301 46.4041 47.6301 46.7451V98.2653C47.6301 98.6063 47.7624 98.9333 47.9977 99.1744C48.2331 99.4155 48.5523 99.551 48.8852 99.551H142.162C142.494 99.551 142.814 99.4155 143.049 99.1744C143.284 98.9333 143.417 98.6063 143.417 98.2653V42.1736C143.417 41.8322 143.284 41.5048 143.049 41.2631C142.814 41.0214 142.495 40.885 142.162 40.884V40.884Z" fill="white"/>
<path d="M143.417 55.4929H47.6301V97.3111H143.417V55.4929Z" fill="#2C83E7"/>
<path opacity="0.2" d="M143.417 42.1736V98.2653C143.416 98.606 143.283 98.9324 143.048 99.1732C142.813 99.4141 142.494 99.5499 142.162 99.551H127.116C127.449 99.5499 127.768 99.4141 128.003 99.1732C128.238 98.9324 128.37 98.606 128.372 98.2653V42.1736C128.372 41.8322 128.239 41.5048 128.004 41.2631C127.769 41.0214 127.45 40.885 127.116 40.884H142.162C142.495 40.885 142.814 41.0214 143.049 41.2631C143.285 41.5048 143.417 41.8322 143.417 42.1736V42.1736Z" fill="black"/>
<path d="M121.336 43.1877H110.321C109.665 43.1877 109.132 43.7329 109.132 44.4054V52.4864C109.132 53.1589 109.665 53.7042 110.321 53.7042H121.336C121.993 53.7042 122.525 53.1589 122.525 52.4864V44.4054C122.525 43.7329 121.993 43.1877 121.336 43.1877Z" fill="#263238"/>
<path opacity="0.4" d="M120.701 43.7626H110.937C110.354 43.7626 109.881 44.247 109.881 44.8446V52.0073C109.881 52.6048 110.354 53.0892 110.937 53.0892H120.701C121.284 53.0892 121.757 52.6048 121.757 52.0073V44.8446C121.757 44.247 121.284 43.7626 120.701 43.7626Z" fill="black"/>
<path opacity="0.4" d="M120.529 45.1761H113.552C113.135 45.1761 112.796 45.5229 112.796 45.9506V51.0691C112.796 51.4969 113.135 51.8437 113.552 51.8437H120.529C120.947 51.8437 121.285 51.4969 121.285 51.0691V45.9506C121.285 45.5229 120.947 45.1761 120.529 45.1761Z" fill="black"/>
<path opacity="0.2" d="M113.311 50.0869V46.4616C113.311 46.2912 113.377 46.1277 113.494 46.0071C113.612 45.8866 113.772 45.8188 113.938 45.8188H118.226C118.226 45.8188 116.581 48.985 113.311 50.0869Z" fill="white"/>
<path opacity="0.4" d="M96.6518 43.1677H88.6459C88.2541 43.1677 87.9365 43.4931 87.9365 43.8944V45.0762C87.9365 45.4775 88.2541 45.8028 88.6459 45.8028H96.6518C97.0436 45.8028 97.3612 45.4775 97.3612 45.0762V43.8944C97.3612 43.4931 97.0436 43.1677 96.6518 43.1677Z" fill="black"/>
<path opacity="0.6" d="M96.7764 43.7786H88.521V45.188H96.7764V43.7786Z" fill="white"/>
<path opacity="0.4" d="M83.1969 45.8188C83.9116 45.8188 84.4909 45.2253 84.4909 44.4933C84.4909 43.7612 83.9116 43.1677 83.1969 43.1677C82.4822 43.1677 81.9028 43.7612 81.9028 44.4933C81.9028 45.2253 82.4822 45.8188 83.1969 45.8188Z" fill="black"/>
<path opacity="0.3" d="M71.9986 54.7822C71.9025 54.7822 71.805 54.7742 71.7063 54.7582C71.5769 54.7738 71.4468 54.7818 71.3165 54.7822H71.2386C70.3871 54.7518 69.5767 54.3997 68.9635 53.7937C68.3504 53.1878 67.9778 52.3708 67.9177 51.5003C67.864 50.688 68.089 49.882 68.5537 49.2216C69.0184 48.5611 69.6937 48.0877 70.4629 47.883V47.0845C70.4639 46.8476 70.5563 46.6207 70.7198 46.4532C70.8833 46.2857 71.1048 46.1912 71.336 46.1901H72.0883C72.3195 46.1912 72.541 46.2857 72.7045 46.4532C72.868 46.6207 72.9603 46.8476 72.9614 47.0845V47.883C73.7689 48.097 74.4724 48.6058 74.9395 49.3137C75.4066 50.0217 75.6052 50.88 75.4979 51.7274C75.3907 52.5747 74.985 53.3528 74.3571 53.9153C73.7293 54.4779 72.9224 54.7861 72.0883 54.7822H71.9986Z" fill="black"/>
<path d="M72.5911 48.1944V47.0765C72.5911 46.942 72.539 46.813 72.4462 46.7179C72.3533 46.6228 72.2274 46.5694 72.0961 46.5694H71.3439C71.2126 46.5694 71.0867 46.6228 70.9938 46.7179C70.901 46.813 70.8489 46.942 70.8489 47.0765V48.1944C70.1017 48.3188 69.4265 48.724 68.9552 49.3308C68.4839 49.9376 68.2502 50.7025 68.2997 51.4763C68.3558 52.2497 68.688 52.975 69.233 53.5134C69.778 54.0517 70.4976 54.3656 71.2542 54.3949C71.4066 54.399 71.5591 54.391 71.7102 54.3709C71.8084 54.385 71.9074 54.393 72.0065 54.3949C72.778 54.4161 73.5286 54.1367 74.1068 53.6131C74.6851 53.0896 75.0479 52.3608 75.1221 51.574C75.1963 50.7871 74.9763 50.0007 74.5066 49.3734C74.0369 48.7462 73.3523 48.3248 72.5911 48.1944V48.1944Z" fill="#2C83E7"/>
<path opacity="0.4" d="M72.5911 48.1944V47.0765C72.5911 46.942 72.539 46.813 72.4462 46.7179C72.3533 46.6228 72.2274 46.5694 72.0961 46.5694H71.3439C71.2126 46.5694 71.0867 46.6228 70.9938 46.7179C70.901 46.813 70.8489 46.942 70.8489 47.0765V48.1944C70.1017 48.3188 69.4265 48.724 68.9552 49.3308C68.4839 49.9376 68.2502 50.7025 68.2997 51.4763C68.3558 52.2497 68.688 52.975 69.233 53.5134C69.778 54.0517 70.4976 54.3656 71.2542 54.3949C71.4066 54.399 71.5591 54.391 71.7102 54.3709C71.8084 54.385 71.9074 54.393 72.0065 54.3949C72.778 54.4161 73.5286 54.1367 74.1068 53.6131C74.6851 53.0896 75.0479 52.3608 75.1221 51.574C75.1963 50.7871 74.9763 50.0007 74.5066 49.3734C74.0369 48.7462 73.3523 48.3248 72.5911 48.1944V48.1944Z" fill="white"/>
<path opacity="0.4" d="M71.8389 48.1944V47.0765C71.8389 47.0099 71.8261 46.9439 71.8012 46.8824C71.7763 46.8209 71.7399 46.765 71.6939 46.7179C71.6479 46.6708 71.5934 46.6335 71.5333 46.608C71.4732 46.5825 71.4089 46.5694 71.3439 46.5694V46.5694C71.2126 46.5694 71.0867 46.6228 70.9938 46.7179C70.901 46.813 70.8489 46.942 70.8489 47.0765V48.1944C70.1017 48.3188 69.4265 48.724 68.9552 49.3308C68.4839 49.9376 68.2502 50.7025 68.2997 51.4763C68.3261 52.3054 68.6729 53.0898 69.2639 53.657C69.8549 54.2242 70.6416 54.5277 71.4511 54.5007C72.2605 54.4737 73.0263 54.1184 73.58 53.513C74.1337 52.9077 74.4299 52.1018 74.4036 51.2727C74.4025 50.5312 74.1439 49.8143 73.674 49.2503C73.2041 48.6862 72.5536 48.312 71.8389 48.1944V48.1944Z" fill="white"/>
<path opacity="0.3" d="M66.7056 52.3867V49.9791C66.7056 49.8027 66.566 49.6597 66.3938 49.6597H57.5849C57.4127 49.6597 57.2731 49.8027 57.2731 49.9791V52.3867C57.2731 52.5631 57.4127 52.7061 57.5849 52.7061H66.3938C66.566 52.7061 66.7056 52.5631 66.7056 52.3867Z" fill="black"/>
<path d="M66.3313 50.043H57.6511V52.3187H66.3313V50.043Z" fill="#2C83E7"/>
<path opacity="0.4" d="M66.3313 50.043H57.6511V52.3187H66.3313V50.043Z" fill="white"/>
<path opacity="0.6" d="M61.3656 50.1588H59.748V52.2149H61.3656V50.1588Z" fill="white"/>
<path opacity="0.6" d="M61.5877 52.2189H62.4062V50.1628H61.5877V52.2189Z" fill="white"/>
<path opacity="0.6" d="M62.7183 52.2189H63.4121V50.1628H62.7183V52.2189Z" fill="white"/>
<path opacity="0.6" d="M63.8487 52.2189H64.3203V50.1628H63.8487V52.2189Z" fill="white"/>
<path opacity="0.6" d="M65.2088 52.2189H65.4465V50.1628H65.2088V52.2189Z" fill="white"/>
<path opacity="0.6" d="M58.692 52.2189H59.5105V50.1628H58.692V52.2189Z" fill="white"/>
<path opacity="0.6" d="M57.8265 52.2189H58.4072V50.1628H57.8265V52.2189Z" fill="white"/>
<path d="M76.8086 41.2713H67.5437V44.9365H76.8086V41.2713Z" fill="#2C83E7"/>
<path opacity="0.4" d="M76.8086 41.2713H67.5437V44.9365H76.8086V41.2713Z" fill="white"/>
<path opacity="0.6" d="M71.5075 41.455H69.7808V44.7648H71.5075V41.455Z" fill="white"/>
<path opacity="0.6" d="M71.7453 44.7648H72.6184V41.4549H71.7453V44.7648Z" fill="white"/>
<path opacity="0.6" d="M72.9535 44.7648H73.6941V41.4549H72.9535V44.7648Z" fill="white"/>
<path opacity="0.6" d="M74.1542 44.7648H74.6609V41.4549H74.1542V44.7648Z" fill="white"/>
<path opacity="0.6" d="M75.6119 44.7648H75.8652V41.4549H75.6119V44.7648Z" fill="white"/>
<path opacity="0.6" d="M68.6506 44.7648H69.5237V41.4549H68.6506V44.7648Z" fill="white"/>
<path opacity="0.6" d="M67.7306 44.7648H68.3503V41.4549H67.7306V44.7648Z" fill="white"/>
<path d="M62.6714 41.9979H53.4065V44.9365H62.6714V41.9979Z" fill="#2C83E7"/>
<path opacity="0.4" d="M62.6714 41.9979H53.4065V44.9365H62.6714V41.9979Z" fill="white"/>
<path opacity="0.6" d="M57.3705 42.1456H55.6438V44.8007H57.3705V42.1456Z" fill="white"/>
<path opacity="0.6" d="M57.6123 44.7968H58.4854V42.1417H57.6123V44.7968Z" fill="white"/>
<path opacity="0.6" d="M58.8166 44.7968H59.5571V42.1417H58.8166V44.7968Z" fill="white"/>
<path opacity="0.6" d="M60.017 44.7968H60.5237V42.1417H60.017V44.7968Z" fill="white"/>
<path opacity="0.6" d="M61.4749 44.7968H61.7283V42.1417H61.4749V44.7968Z" fill="white"/>
<path opacity="0.6" d="M54.5173 44.7968H55.3904V42.1417H54.5173V44.7968Z" fill="white"/>
<path opacity="0.6" d="M53.5936 44.7968H54.2134V42.1417H53.5936V44.7968Z" fill="white"/>
<path d="M90.9729 92.7037C102.074 92.7037 111.073 82.967 111.073 70.9561C111.073 58.9453 102.074 49.2086 90.9729 49.2086C79.8716 49.2086 70.8723 58.9453 70.8723 70.9561C70.8723 82.967 79.8716 92.7037 90.9729 92.7037Z" fill="#2C83E7"/>
<path opacity="0.2" d="M90.9729 92.7037C102.074 92.7037 111.073 82.967 111.073 70.9561C111.073 58.9453 102.074 49.2086 90.9729 49.2086C79.8716 49.2086 70.8723 58.9453 70.8723 70.9561C70.8723 82.967 79.8716 92.7037 90.9729 92.7037Z" fill="black"/>
<path d="M90.9728 49.8474H83.4502C72.673 49.8474 63.9382 59.2978 63.9382 70.9561C63.9382 82.6145 72.673 92.0649 83.4502 92.0649H90.9728C101.75 92.0649 110.485 82.6145 110.485 70.9561C110.485 59.2978 101.75 49.8474 90.9728 49.8474Z" fill="#2C83E7"/>
<path opacity="0.3" d="M90.9728 49.8474H83.4502C72.673 49.8474 63.9382 59.2978 63.9382 70.9561C63.9382 82.6145 72.673 92.0649 83.4502 92.0649H90.9728C101.75 92.0649 110.485 82.6145 110.485 70.9561C110.485 59.2978 101.75 49.8474 90.9728 49.8474Z" fill="white"/>
<path opacity="0.6" d="M83.4502 92.0649C94.2264 92.0649 102.962 82.6142 102.962 70.9561C102.962 59.2981 94.2264 49.8474 83.4502 49.8474C72.674 49.8474 63.9382 59.2981 63.9382 70.9561C63.9382 82.6142 72.674 92.0649 83.4502 92.0649Z" fill="white"/>
<path d="M83.3098 51.2847H76.2939C66.2495 51.2847 58.1111 60.0923 58.1111 70.9561C58.1111 81.8199 66.2495 90.6276 76.2939 90.6276H83.3098C93.3504 90.6276 101.493 81.8199 101.493 70.9561C101.493 60.0923 93.3504 51.2847 83.3098 51.2847Z" fill="#2C83E7"/>
<path opacity="0.3" d="M83.3098 51.2847H76.2939C66.2495 51.2847 58.1111 60.0923 58.1111 70.9561C58.1111 81.8199 66.2495 90.6276 76.2939 90.6276H83.3098C93.3504 90.6276 101.493 81.8199 101.493 70.9561C101.493 60.0923 93.3504 51.2847 83.3098 51.2847Z" fill="white"/>
<path opacity="0.6" d="M76.3018 90.6276C86.3439 90.6276 94.4846 81.8204 94.4846 70.9561C94.4846 60.0919 86.3439 51.2847 76.3018 51.2847C66.2596 51.2847 58.1189 60.0919 58.1189 70.9561C58.1189 81.8204 66.2596 90.6276 76.3018 90.6276Z" fill="white"/>
<path d="M76.2978 88.6831C67.3096 88.6831 59.9819 80.7419 59.9819 70.9561C59.9819 61.1703 67.2941 53.209 76.2822 53.209C85.2703 53.209 92.5863 61.1703 92.5863 70.9561C92.5863 80.7419 85.2859 88.6831 76.2978 88.6831Z" fill="#263238"/>
<path opacity="0.4" d="M77.2411 88.6832C76.9292 88.6832 76.6174 88.7151 76.3017 88.7151C67.3136 88.7151 59.9976 80.7539 59.9976 70.9681C59.9976 61.1823 67.3136 53.2211 76.3017 53.2211C76.6174 53.2211 76.9292 53.2211 77.2411 53.253C68.6895 53.784 61.8763 61.5256 61.8763 70.9681C61.8763 80.4105 68.6895 88.1402 77.2411 88.6832Z" fill="black"/>
<path opacity="0.4" d="M77.4283 86.0041C69.8901 86.0041 63.759 79.2526 63.759 70.9561C63.759 62.6595 69.8901 55.908 77.4283 55.908C84.9665 55.908 91.0976 62.6595 91.0976 70.9561C91.0976 79.2526 84.9665 86.0041 77.4283 86.0041Z" fill="black"/>
<path d="M84.3622 65.2866H72.8367C72.221 65.2866 71.7219 65.7979 71.7219 66.4285V74.7131C71.7219 75.3438 72.221 75.855 72.8367 75.855H84.3622C84.9779 75.855 85.477 75.3438 85.477 74.7131V66.4285C85.477 65.7979 84.9779 65.2866 84.3622 65.2866Z" fill="#263238"/>
<path opacity="0.4" d="M77.4281 82.9219C71.5503 82.9219 66.7678 77.5519 66.7678 70.9442C66.7678 64.3365 71.5503 58.9664 77.4281 58.9664C83.3058 58.9664 88.0883 64.3325 88.0883 70.9442C88.0883 77.5559 83.3058 82.9219 77.4281 82.9219Z" fill="black"/>
<path opacity="0.2" d="M72.6379 71.9423V67.3787C72.6379 67.1225 72.7373 66.8767 72.9142 66.6955C73.0911 66.5143 73.331 66.4125 73.5812 66.4125H80.7413C80.7413 66.4125 78.925 70.9401 72.6379 71.9423Z" fill="white"/>
<path d="M94.4845 7.06297C94.4845 7.06297 95.1471 6.30438 93.8414 5.32221C92.5357 4.34003 89.0355 5.72146 87.9637 8.73586C86.8918 11.7503 89.6163 12.6765 86.7008 15.5232C83.7853 18.37 84.6077 20.1706 87.5739 22.9854C90.5401 25.8001 87.6713 27.1576 87.7688 28.9743C87.8662 30.7909 87.6518 33.0427 93.6154 29.7967C99.5789 26.5508 100.121 18.5975 100.316 14.1817C100.51 9.76594 97.1662 5.30624 94.4845 7.06297Z" fill="#263238"/>
<path d="M101.068 10.6881L99.3488 11.6783C99.3488 11.6783 99.3995 10.4805 98.7057 10.6163C98.4686 10.6721 98.2345 10.7401 98.0041 10.8199C96.7529 11.2192 94.4961 12.0536 94.4961 12.0536L93.8491 10.6881C93.8491 10.6881 95.6538 9.85768 97.3571 9.28674C98.5576 8.88749 99.6957 8.59204 100.132 8.81562C101.142 9.35861 101.068 10.6881 101.068 10.6881Z" fill="#EBB376"/>
<path opacity="0.2" d="M97.9965 10.8279C96.7454 11.2272 94.4886 12.0617 94.4886 12.0617L93.8416 10.6962C93.8416 10.6962 95.6462 9.86574 97.3495 9.2948C97.6683 9.75341 97.8888 10.2759 97.9965 10.8279V10.8279Z" fill="black"/>
<path d="M101.808 18.33C101.641 18.8221 101.413 19.2903 101.13 19.7234C100.526 20.5978 99.7698 20.5578 99.037 20.1227C97.6299 19.2922 96.3086 17.0244 96.3086 17.0244C96.3086 17.0244 99.1773 13.0318 99.2202 12.4649C99.2769 12.0111 99.3734 11.5634 99.5086 11.1274C99.5086 11.1274 101.598 10.4646 102.276 10.5165C102.857 10.5604 102.88 15.3276 101.808 18.33Z" fill="#2C83E7"/>
<path d="M99.2046 12.4608L98.7642 11.1233L102.116 9.66205L103.379 10.8079C103.379 10.8079 100.818 12.3131 99.2046 12.4608Z" fill="#2C83E7"/>
<path opacity="0.2" d="M99.2046 12.4608L98.7642 11.1233L102.116 9.66205L103.379 10.8079C103.379 10.8079 100.818 12.3131 99.2046 12.4608Z" fill="black"/>
<path opacity="0.2" d="M101.808 18.33C101.641 18.8221 101.413 19.2904 101.13 19.7234C100.526 20.5978 99.7699 20.5579 99.0372 20.1227L98.281 17.3279C98.281 17.3279 100.479 16.6052 101.808 18.33Z" fill="black"/>
<path d="M104.275 27.4091L106.614 29.3615C106.614 29.3615 108.59 29.649 109.569 30.16C110.126 31.2498 110.521 32.4194 110.738 33.6296C111.167 37.0911 110.461 41.2634 106.061 41.1835C99.6333 41.0677 97.4506 39.0116 96.2891 30.3357L104.275 27.4091Z" fill="#263238"/>
<path d="M125.853 29.4054C123.624 29.1938 113.147 29.8047 113.147 29.8047L109.58 30.164L108.801 30.2438C108.801 30.2438 108.968 30.4834 109.214 30.8587C109.935 31.9686 111.311 34.2763 110.906 35.1986C110.29 36.592 106.248 38.1571 105.118 38.5684L104.825 38.6762L105.04 38.7161C109.674 39.5585 118.822 36.7198 123.273 35.2386C124.743 34.7515 125.701 34.4121 125.814 34.4041C125.927 34.3961 126.364 29.4493 125.853 29.4054Z" fill="#EBB376"/>
<path d="M106.626 29.3615H112.196L113.681 39.1873L108.267 40.2413L106.626 29.3615Z" fill="#263238"/>
<path d="M111.771 29.1379L113.045 39.4467L113.887 39.1872L112.609 29.1379H111.771Z" fill="#2C83E7"/>
<path opacity="0.2" d="M123.273 35.2425C118.837 36.7158 109.674 39.5745 105.04 38.72L105.117 38.5723C106.153 36.5873 106.814 34.4201 107.066 32.1842C107.246 30.6111 106.708 29.8166 106.708 29.8166C107.27 30.2029 107.735 30.7201 108.064 31.3258C108.064 31.3258 117.169 31.9247 123.273 35.2425Z" fill="black"/>
<path d="M148.729 37.1471C148.69 37.9456 148.659 38.6722 148.632 39.335C148.597 40.1335 148.565 40.8682 148.53 41.5629C148.48 42.7926 147.178 41.6946 145.104 41.479H144.89C144.859 41.479 144.835 41.4271 144.824 41.3473C144.793 40.713 144.816 40.0773 144.89 39.4468C145.261 39.1178 145.615 38.7686 145.95 38.4008C146.619 37.7329 147.138 36.9235 147.47 36.0292C147.911 34.4281 148.807 35.3624 148.729 37.1471Z" fill="#EBB376"/>
<path d="M145.486 39.4427L145.4 41.419L145.151 41.439H145.046C144.995 41.439 144.944 41.439 144.89 41.439L143.861 41.5189C140.244 41.7704 131.123 42.2375 126.021 40.9839C126.021 40.9839 108.091 41.0677 104.833 40.9639C101.574 40.8601 99.9334 36.2806 101.59 33.6335C102.561 32.0844 103.991 30.8108 108.606 32.0964C113.221 33.382 123.078 36.616 126.765 37.2348C126.765 37.2348 131.914 38.5604 140.571 39.1752H140.774C142.068 39.2631 143.436 39.3389 144.882 39.3868C144.999 39.3868 145.112 39.3868 145.229 39.3868L145.486 39.4427Z" fill="#EBB376"/>
<path d="M96.5269 30.8906L96.7529 32.1723L104.7 28.1996L104.003 26.902L96.5269 30.8906Z" fill="black"/>
<path d="M98.9548 29.3436L98.5754 29.5211L99.4564 31.4967L99.8358 31.3192L98.9548 29.3436Z" fill="#263238"/>
<path d="M102.307 27.9257L100.664 28.7736L101.291 30.0501L102.934 29.2022L102.307 27.9257Z" fill="white"/>
<path d="M103.508 26.8818L103.129 27.0592L104.01 29.035L104.389 28.8575L103.508 26.8818Z" fill="#263238"/>
<path d="M104.1 27.0897L96.3749 30.9226C96.1306 30.1143 95.7861 29.3414 95.3498 28.6228C94.6914 27.5506 93.9428 26.5393 93.1125 25.6005C90.9454 23.0732 88.9303 21.1567 90.7739 19.4C93.6933 16.5852 98.7252 15.8626 100.947 19.4C102.372 21.7849 103.435 24.3777 104.1 27.0897V27.0897Z" fill="#2C83E7"/>
<path d="M100.615 34.3003C101.36 32.3879 102.911 29.6769 110.294 32.5995L108.886 41.1955H104.7C102.05 41.1955 99.4189 37.3706 100.615 34.3003Z" fill="#263238"/>
<path d="M110.005 32.1722L108.524 41.427H109.265L110.711 32.4637L110.005 32.1722Z" fill="#2C83E7"/>
<path d="M91.6157 17.6153C93.0462 16.6531 96.1059 16.154 98.9278 16.8168L97.8599 17.0563L99.9529 18.7851C99.9529 18.7851 99.0915 19.8312 99.2046 20.2783C99.3176 20.7255 99.4151 22.9933 99.4151 22.9933C99.4151 22.9933 96.7919 20.454 94.6988 19.5557C92.6057 18.6573 91.6157 18.6893 91.6157 18.6893" fill="#2C83E7"/>
<path opacity="0.2" d="M91.6157 17.6153C93.0462 16.6531 96.1059 16.154 98.9278 16.8168L97.8599 17.0563L99.9529 18.7851C99.9529 18.7851 99.0915 19.8312 99.2046 20.2783C99.3176 20.7255 99.4151 22.9933 99.4151 22.9933C99.4151 22.9933 98.1444 20.0907 95.4394 19.1564L94.8586 20.7535C93.6717 20.2648 92.575 19.5721 91.6157 18.7053" fill="black"/>
<path d="M98.6628 21.7237C98.6628 21.7237 97.4662 20.502 96.8387 19.955C96.8387 19.955 95.1939 19.9989 95.1393 18.7133L92.1848 18.314C93.931 17.4516 93.9076 16.8288 93.7049 15.9504C93.5812 15.4583 93.3552 14.9993 93.0423 14.6049C93.0033 14.5535 92.9616 14.5042 92.9176 14.4572L95.9305 14.2376L96.2969 14.2097H96.5308C96.5035 14.2575 96.4787 14.3068 96.4567 14.3574C96.2618 14.7566 95.7941 15.7827 96.0085 16.6012C96.1371 17.1043 96.5269 17.5195 97.4 17.6313C99.0253 17.815 98.6628 21.7237 98.6628 21.7237Z" fill="#EBB376"/>
<path opacity="0.2" d="M96.0086 16.5813C95.1972 16.5959 94.3984 16.3744 93.7051 15.9424C93.5814 15.4503 93.3553 14.9913 93.0425 14.5969L95.9307 14.2296L96.2737 14.1897C96.2814 14.1914 96.2894 14.1914 96.2971 14.1897L96.4569 14.3254C96.262 14.7167 95.7943 15.7628 96.0086 16.5813Z" fill="black"/>
<path d="M91.6157 18.6934V17.6114L95.1393 18.7133L94.7729 20.4062L91.6157 18.6934Z" fill="#2C83E7"/>
<path d="M94.4378 7.37029C94.4378 7.37029 95.88 3.757 93.0424 4.00055C90.2049 4.2441 89.5696 9.72192 86.9425 12.4608C84.3154 15.1997 83.1968 13.1555 83.1968 13.1555" stroke="#263238" stroke-width="0.416925" stroke-linecap="round" stroke-linejoin="round"/>
<path d="M93.6191 7.73762C93.6191 7.73762 94.1453 6.02081 96.3475 6.39212C98.5498 6.76343 98.8031 10.784 97.5169 12.5846" stroke="#263238" stroke-width="0.416925" stroke-linecap="round" stroke-linejoin="round"/>
<path d="M91.7678 8.22072C93.8803 6.991 95.2016 7.75757 96.5931 9.8976C98.3354 12.5726 98.8304 14.9043 95.8565 15.8465C91.8184 17.1242 88.2559 10.2649 91.7678 8.22072Z" fill="#EBB376"/>
<path d="M95.1626 10.5724C95.511 10.796 95.8838 10.977 96.2734 11.1114C96.2619 11.2368 96.2163 11.3563 96.142 11.4565C96.0676 11.5566 95.9673 11.6335 95.8525 11.6784L95.1626 10.5724Z" fill="#D58745"/>
<path d="M93.7712 11.1473C93.8726 11.323 93.8648 11.5186 93.7479 11.5905C93.6309 11.6624 93.4594 11.5905 93.3581 11.3989C93.2567 11.2072 93.2645 11.0236 93.3776 10.9557C93.4906 10.8878 93.666 10.9717 93.7712 11.1473Z" fill="#263238"/>
<path d="M93.3347 10.9916L93.6192 10.6163C93.6192 10.6163 93.6231 11.0515 93.3347 10.9916Z" fill="#263238"/>
<path d="M95.8799 9.80179C95.9812 9.97746 95.9734 10.1771 95.8565 10.245C95.7395 10.3128 95.568 10.245 95.4667 10.0573C95.3654 9.86967 95.377 9.68201 95.4901 9.61015C95.6031 9.53828 95.7746 9.63011 95.8799 9.80179Z" fill="#263238"/>
<path d="M95.4512 9.65011L95.7357 9.25085C95.7357 9.25085 95.7318 9.70601 95.4512 9.65011Z" fill="#263238"/>
<path d="M92.9215 9.66205C92.7426 9.73869 92.5832 9.85625 92.4555 10.0057C92.3278 10.1552 92.2352 10.3327 92.1848 10.5244" stroke="#263238" stroke-width="0.604275" stroke-linecap="round" stroke-linejoin="round"/>
<path d="M94.4065 8.67991C94.5297 8.55813 94.6782 8.46649 94.8409 8.41187C95.0035 8.35724 95.1762 8.34105 95.3458 8.3645" stroke="#263238" stroke-width="0.604275" stroke-linecap="round" stroke-linejoin="round"/>
<path d="M91.4795 13.2234C91.4795 13.2234 91.4795 10.8678 90.5713 9.58219C90.5713 9.58219 93.7869 5.39398 96.4179 9.62611C96.4179 9.62611 94.6834 5.52173 91 7.54996C87.3167 9.5782 90.353 15.0121 93.1321 15.5351C93.1126 15.5351 91.4873 14.6807 91.4795 13.2234Z" fill="#263238"/>
<path d="M92.0795 13.471C91.9199 13.2321 91.6745 13.0678 91.3969 13.0139C91.1193 12.96 90.8321 13.021 90.5984 13.1835C89.9864 13.6387 90.4386 15.1798 92.251 14.5809C92.5082 14.4931 92.5121 14.1817 92.0795 13.471Z" fill="#EBB376"/>
<path d="M95.7943 13.0917C95.5669 13.1536 95.3281 13.1564 95.0995 13.0999C94.8708 13.0434 94.6595 12.9295 94.4846 12.7683" stroke="#263238" stroke-width="0.416925" stroke-linecap="round" stroke-linejoin="round"/>
<path d="M95.95 8.5202C96.9439 9.94955 98.2886 12.5327 97.0764 14.1897" stroke="#263238" stroke-width="0.416925" stroke-linecap="round" stroke-linejoin="round"/>
<path d="M88.3535 12.6366C88.3535 12.6366 89.6904 13.8903 86.7242 16.0023C83.7581 18.1144 82.9785 19.8073 84.9975 21.8754C87.0166 23.9436 88.4509 24.271 87.3791 25.7882" stroke="#263238" stroke-width="0.416925" stroke-linecap="round" stroke-linejoin="round"/>
<path d="M93.8414 7.63385C93.8414 7.63385 91.8068 7.11083 90.9805 11.3549" stroke="#263238" stroke-width="0.416925" stroke-linecap="round" stroke-linejoin="round"/>
<path opacity="0.2" d="M95.3498 28.6229C94.6914 27.5506 93.9428 26.5393 93.1125 25.6005L94.2819 23.9595C94.2819 23.9595 96.0475 26.3271 95.3498 28.6229Z" fill="black"/>
<path d="M90.774 19.412C89.2149 19.7753 89.7996 26.934 90.0958 31.3139C90.1815 32.6074 88.5094 40.0097 88.5094 40.0097C88.5094 40.0097 86.3696 40.2732 85.8356 40.2413C85.3016 40.2093 84.6663 41.0398 84.6663 41.0398L87.4843 41.8383C87.4843 41.8383 89.4059 41.7944 89.6631 41.4191L89.9165 41.0398C89.9165 41.0398 92.0485 32.831 92.3331 31.5893C92.6176 30.3476 92.7813 22.4064 92.7813 22.4064C92.7813 22.4064 92.3331 19.0407 90.774 19.412Z" fill="#EBB376"/>
<path d="M91.2182 19.0087C88.9731 19.4838 89.1875 24.5983 88.7236 26.7064C88.2598 28.8145 89.7137 31.3138 89.7137 31.3138L89.2966 32.5875L92.1848 33.2822L92.9215 31.5893C92.9215 31.5893 94.0908 26.7583 94.4065 25.313C94.7222 23.8677 92.5239 18.7292 91.2182 19.0087Z" fill="#2C83E7"/>
<path d="M92.9215 31.5893L88.634 31.3138L88.9419 32.9348C88.9419 32.9348 92.524 33.9808 92.5551 33.8331C92.5863 33.6854 92.9215 31.5893 92.9215 31.5893Z" fill="#2C83E7"/>
<path opacity="0.2" d="M92.9215 31.5893L88.634 31.3138L88.9419 32.9348C88.9419 32.9348 92.524 33.9808 92.5551 33.8331C92.5863 33.6854 92.9215 31.5893 92.9215 31.5893Z" fill="black"/>
<path d="M148.905 36.6879C148.811 38.213 148.733 39.4427 148.663 40.5687C148.663 40.8162 148.636 41.0558 148.62 41.2953C148.538 42.6169 147.49 41.7185 145.198 41.5149C145.178 41.5149 145.163 41.487 145.151 41.439C145.115 40.7722 145.145 40.1034 145.241 39.4428C145.241 39.291 145.268 39.1553 145.28 39.0435L145.319 38.7281C145.319 38.7281 147.131 37.131 147.614 35.4781C148.098 33.8252 149.018 34.8233 148.905 36.6879Z" fill="#263238"/>
<path d="M146.075 37.4983C145.98 37.8228 145.849 38.1349 145.685 38.4286V38.4526H145.661H145.642H145.611C145.583 38.4526 144.964 38.1651 144.831 37.7778C144.81 37.7193 144.802 37.6567 144.808 37.5946C144.813 37.5325 144.832 37.4723 144.862 37.4185C144.929 37.2947 145.01 37.2388 145.1 37.2508C145.19 37.2628 145.377 37.4744 145.49 37.7099C145.47 37.4964 145.506 37.2813 145.595 37.0871C145.617 37.0523 145.646 37.0224 145.679 36.9991C145.713 36.9758 145.75 36.9596 145.79 36.9514C145.84 36.9334 145.895 36.9323 145.946 36.9481C145.997 36.9638 146.042 36.9957 146.075 37.0392C146.105 37.1117 146.121 37.1898 146.121 37.2688C146.121 37.3477 146.105 37.4258 146.075 37.4983V37.4983ZM145.661 38.1731C145.856 37.7738 146.051 37.2708 145.938 37.131C145.938 37.131 145.907 37.0831 145.798 37.1031C145.777 37.1073 145.756 37.1164 145.739 37.1295C145.721 37.1426 145.707 37.1595 145.696 37.1789C145.595 37.5005 145.582 37.8448 145.661 38.1731V38.1731ZM144.952 37.5782C144.938 37.6305 144.938 37.6856 144.952 37.7379C145.081 37.9659 145.276 38.1473 145.509 38.2569C145.381 37.8337 145.194 37.4185 145.073 37.4025C145.034 37.4025 144.995 37.4624 144.975 37.4983C144.964 37.5236 144.956 37.5505 144.952 37.5782V37.5782Z" fill="#2C83E7"/>
<path opacity="0.2" d="M148.663 40.5686C148.663 40.8162 148.636 41.0557 148.62 41.2953C148.538 42.6168 147.49 41.7185 145.198 41.5149C145.178 41.5149 145.163 41.4869 145.151 41.439H145.046C144.995 41.439 144.945 41.439 144.89 41.439L143.861 41.5189C142.941 40.8281 141.698 39.8819 140.786 39.1912C142.08 39.279 143.448 39.3549 144.894 39.4028C145.011 39.4028 145.124 39.4028 145.241 39.4028C145.241 39.2511 145.268 39.1153 145.28 39.0035L148.663 40.5686Z" fill="black"/>
<path d="M125.853 29.4054C125.464 29.3655 125.721 34.4121 125.814 34.4081C126.341 34.3722 148.982 41.0398 148.982 41.0398L149.7 39.2032C149.7 39.2032 128.083 29.613 125.853 29.4054Z" fill="#EBB376"/>
<path d="M146.207 40.4049C146.067 40.2293 148.226 38.5165 148.226 38.5165C148.226 38.5165 150.616 38.6921 152.093 37.8816C153.57 37.0711 153.531 38.4446 152.167 39.6783L148.784 42.7286C147.813 43.607 147.681 42.2096 146.207 40.4049Z" fill="#263238"/>
<path d="M149.602 38.2011C149.315 38.3651 149.008 38.4925 148.69 38.5804H148.663H148.636V38.5564C148.496 38.2283 148.465 37.8619 148.55 37.5143C148.574 37.4564 148.612 37.4052 148.659 37.365C148.707 37.3247 148.763 37.2966 148.823 37.2828C148.87 37.26 148.923 37.2531 148.974 37.2632C149.025 37.2732 149.072 37.2997 149.107 37.3387C149.197 37.4545 149.146 37.694 149.057 37.9376C149.187 37.7696 149.361 37.6434 149.559 37.5742C149.599 37.5638 149.641 37.5624 149.681 37.57C149.721 37.5776 149.76 37.594 149.793 37.6182C149.841 37.6425 149.88 37.6812 149.905 37.7291C149.93 37.777 149.94 37.8317 149.934 37.8857C149.883 37.9775 149.762 38.1013 149.602 38.2011ZM148.85 38.3767C149.263 38.237 149.739 38.0134 149.766 37.8457C149.766 37.8457 149.766 37.7858 149.684 37.722C149.667 37.7098 149.647 37.7017 149.626 37.6982C149.605 37.6948 149.584 37.696 149.563 37.702C149.337 37.7459 149.029 38.1172 148.85 38.3767ZM148.757 37.4425C148.712 37.4724 148.676 37.5137 148.651 37.5623C148.585 37.8156 148.598 38.084 148.69 38.3288C148.889 37.9296 149.041 37.5104 148.967 37.4105C148.944 37.3826 148.873 37.4105 148.834 37.4105C148.806 37.4167 148.778 37.4275 148.753 37.4425H148.757Z" fill="#2C83E7"/>
<path d="M36.093 11.1313C36.093 11.1313 32.6825 18.9008 31.1896 20.3142C29.6968 21.7276 24.2439 20.3142 24.2439 20.3142L24.9806 17.2998C24.9806 17.2998 29.4123 17.727 30.1684 17.6991C30.9246 17.6711 33.7115 11.4068 33.7115 11.4068L36.093 11.1313Z" fill="#B97964"/>
<path opacity="0.2" d="M36.093 11.1313C36.093 11.1313 32.6825 18.9008 31.1896 20.3142C29.6968 21.7276 24.2439 20.3142 24.2439 20.3142L24.9806 17.2998C24.9806 17.2998 29.4123 17.727 30.1684 17.6991C30.9246 17.6711 33.7115 11.4068 33.7115 11.4068L36.093 11.1313Z" fill="black"/>
<path d="M30.0945 13.6666C30.0945 13.6666 30.2699 22.2906 27.904 24.5544C25.538 26.8182 22.0574 15.607 22.0574 15.607L22.4471 15.5551C22.4471 15.5551 25.8382 24.8419 27.2257 24.1352C29.7125 22.8695 29.7125 13.9222 29.7125 13.9222L30.0945 13.6666Z" fill="#263238"/>
<path d="M31.6302 5.00266C31.4041 4.80944 31.1372 4.67275 30.8507 4.6034C30.5038 4.57146 28.4146 7.6138 28.7069 7.96914C28.9992 8.32448 30.1374 9.11102 30.7064 8.99524C31.2755 8.87945 32.1018 6.63962 32.1486 6.45596C32.1954 6.2723 31.6302 5.00266 31.6302 5.00266Z" fill="#B97964"/>
<path d="M32.8695 6.4599H30.0944C29.694 6.4599 29.3694 6.79238 29.3694 7.20252V12.9239C29.3694 13.334 29.694 13.6665 30.0944 13.6665H32.8695C33.2699 13.6665 33.5945 13.334 33.5945 12.9239V7.20252C33.5945 6.79238 33.2699 6.4599 32.8695 6.4599Z" fill="#263238"/>
<path d="M39.2929 11.5625H32.1445V8.56409H39.2929C39.6806 8.56409 40.0524 8.72183 40.3265 9.00261C40.6006 9.28339 40.7546 9.66422 40.7546 10.0613C40.7551 10.2583 40.7177 10.4534 40.6444 10.6355C40.5712 10.8176 40.4636 10.9831 40.3279 11.1226C40.1921 11.262 40.0308 11.3727 39.8532 11.4482C39.6756 11.5237 39.4852 11.5625 39.2929 11.5625Z" fill="#263238"/>
<path opacity="0.6" d="M31.4819 8.56409H29.9229V11.4028H31.4819V8.56409Z" fill="white"/>
<path d="M27.3466 10.9716C27.2764 11.0994 27.2023 11.2192 27.1244 11.3349C26.677 12.0117 26.0375 12.5315 25.2925 12.8242C25.1051 12.8997 24.9122 12.9598 24.7156 13.0038C23.9632 13.1775 23.176 13.0957 22.4729 12.7709C21.7698 12.4461 21.1889 11.8958 20.8179 11.2032C19.824 9.40652 20.2917 7.78154 20.8647 4.97076C20.9893 4.31187 21.2764 3.69657 21.6986 3.18332C22.1208 2.67007 22.6641 2.27591 23.2769 2.03828C23.8896 1.80064 24.5515 1.72744 25.1997 1.8256C25.8479 1.92377 26.4608 2.19006 26.9802 2.59917C29.311 4.43975 28.5899 8.63994 27.3466 10.9716Z" fill="#B97964"/>
<path opacity="0.2" d="M25.2925 12.8242C25.1052 12.8997 24.9123 12.9598 24.7156 13.0039C24.1976 13.1248 23.6597 13.1259 23.1413 13.0071C22.6228 12.8883 22.1366 12.6526 21.7183 12.3171C21.9278 12.0196 22.1741 11.7512 22.451 11.5186C23.5007 11.666 24.487 12.1192 25.2925 12.8242V12.8242Z" fill="black"/>
<path d="M18.8962 14.8923C19.9019 16.4893 23.2851 16.9445 23.2851 16.9445C23.2851 16.9445 25.4717 16.9445 25.2339 16.1659C24.088 15.6309 23.6748 14.8963 23.6125 14.0978C23.6002 13.6067 23.6837 13.1181 23.858 12.6604C23.9476 12.4035 24.0504 12.1516 24.166 11.9059L20.9386 7.72961C20.9192 9.89759 20.5879 13.7903 18.8962 14.8923Z" fill="#B97964"/>
<path d="M27.4324 1.41337C26.8087 0.910306 24.9378 0 23.6477 0C19.6525 0 19.5239 2.35562 19.5239 2.35562C19.857 1.97715 20.2861 1.70073 20.7634 1.5571C16.4213 5.70939 20.3736 10.8239 20.3736 10.8239C22.0496 10.5205 23.8815 11.5705 23.8815 11.5705C23.8815 11.5705 24.9417 9.17495 25.8109 8.53214C26.7738 7.7119 27.3852 6.53824 27.5142 5.26222C27.5142 4.24012 28.3444 4.93882 28.3444 4.93882C29.2097 4.43975 28.3444 2.152 27.4324 1.41337Z" fill="#263238"/>
<path d="M24.9533 7.81744C24.9352 8.09185 24.9773 8.36693 25.0765 8.62253C25.1756 8.87813 25.3293 9.10779 25.5263 9.29469C26.0135 9.69395 26.5864 8.99125 26.7268 8.13684C26.8437 7.37825 26.7268 6.23638 26.1187 6.21242C25.5107 6.18846 24.9572 7.01892 24.9533 7.81744Z" fill="#B97964"/>
<path d="M29.646 95.6263L32.5654 95.9417L32.7135 94.209L33.1111 89.4897L30.1917 89.1743L29.7512 94.3846L29.646 95.6263Z" fill="#B97964"/>
<path d="M4.26416 95.247H7.0939L7.23422 94.5962L7.25371 94.5124L8.13459 90.3282L8.15018 90.2403L8.49318 88.6353H5.65565L4.26416 95.247Z" fill="#B97964"/>
<path opacity="0.2" d="M30.1919 89.1743L29.7515 94.3846L32.7137 94.209L33.1113 89.4897L30.1919 89.1743Z" fill="black"/>
<path opacity="0.2" d="M4.34619 94.8797H4.35009L7.24999 94.5124H7.25389L8.11139 90.4719H8.10749L5.22707 90.7035L4.37348 94.752L4.34619 94.8797Z" fill="black"/>
<path d="M7.4876 95.0713H4.04591C3.99007 95.0715 3.9359 95.0909 3.89208 95.1264C3.84827 95.1619 3.81734 95.2114 3.80426 95.267L3.24688 97.8661C3.23547 97.9212 3.2348 97.978 3.2449 98.0334C3.255 98.0887 3.27567 98.1414 3.30573 98.1886C3.3358 98.2357 3.37466 98.2762 3.42007 98.3079C3.46549 98.3396 3.51658 98.3618 3.57039 98.3732H3.66004C4.77479 98.3732 5.58551 98.2814 6.98089 98.2814C7.84229 98.2814 10.4382 98.3732 11.627 98.3732C12.8158 98.3732 12.9717 97.1754 12.4845 97.0636C10.3018 96.5765 8.66081 95.9018 7.96312 95.259C7.83445 95.1355 7.66389 95.0682 7.4876 95.0713V95.0713Z" fill="#263238"/>
<path d="M32.8775 94.9795H29.4358C29.3796 94.9806 29.3254 95.0008 29.2816 95.0369C29.2379 95.0731 29.2071 95.1231 29.1941 95.1791L28.6368 97.7623C28.6254 97.8174 28.6247 97.8742 28.6348 97.9295C28.6449 97.9849 28.6656 98.0376 28.6956 98.0847C28.7257 98.1318 28.7646 98.1724 28.81 98.2041C28.8554 98.2358 28.9065 98.258 28.9603 98.2694C28.9899 98.2755 29.0204 98.2755 29.0499 98.2694C30.1647 98.2694 30.9754 98.1815 32.3708 98.1815C33.2322 98.1815 35.8281 98.2734 37.0169 98.2734C38.2057 98.2734 38.3616 97.0756 37.8744 96.9598C35.6916 96.4727 34.0507 95.798 33.3491 95.1591C33.22 95.0399 33.0513 94.9756 32.8775 94.9795Z" fill="#263238"/>
<path d="M33.3801 93.0351L29.2017 93.1748C30.7218 64.56 31.4312 63.1027 17.875 49.5878C17.5592 53.6762 17.2007 57.9163 16.8499 61.4498C16.6316 63.6377 16.5653 65.5501 16.2106 66.9476C13.7979 76.4259 7.99034 93.1988 7.99034 93.1988L3.91333 93.3824C3.91333 93.3824 9.01544 70.3971 9.54163 62.9071C10.2315 53.0773 7.98255 42.4411 9.2649 34.7474L9.92751 30.9784L23.6826 32.4117L23.5033 37.2228C36.4203 56.5828 38.7823 60.767 33.3801 93.0351Z" fill="#263238"/>
<path opacity="0.2" d="M17.8866 49.5559C17.5708 53.6443 17.2123 57.8924 16.8615 61.4259C16.3275 56.3433 15.7116 52.7021 15.7116 52.7021C15.7116 52.7021 15.127 52.211 13.5133 49.5719C11.8997 46.9328 13.5133 42.0099 13.5133 42.0099C13.4627 46.5815 17.8866 49.5559 17.8866 49.5559Z" fill="black"/>
<path d="M33.8479 92.572L33.6453 93.7738H28.738V92.6679L33.8479 92.572Z" fill="black"/>
<path d="M8.47381 93.0351L8.00219 94.141H3.5354L3.61725 93.0351H8.47381Z" fill="black"/>
<path d="M28.2468 12.0616C30.7336 11.842 35.746 8.5162 36.0929 7.41424C36.4398 6.31229 31.5014 6.5798 31.5014 6.5798L31.3494 5.05064C31.3494 5.05064 39.2111 3.6732 40.2908 5.78128C41.3704 7.88936 36.4359 11.87 32.4291 13.7904C28.4222 15.7108 28.2468 12.0616 28.2468 12.0616Z" fill="#B97964"/>
<path d="M18.7246 14.1816C18.7246 14.1816 20.7358 10.8319 24.2438 13.6666H23.7332C23.7332 13.6666 20.4201 12.1294 19.1884 14.5529L18.7246 14.1816Z" fill="#263238"/>
<path d="M28.2469 12.0616C28.2469 12.0616 27.7246 13.9421 27.0503 17.0483C26.6293 18.9767 26.1538 21.3803 25.7056 24.0992C25.1482 27.5009 24.6415 31.3937 24.3569 35.4821L9.08179 32.9587C9.08179 32.9587 12.6521 16.9445 17.5671 14.4412L28.2469 12.0616Z" fill="#2C83E7"/>
<path d="M42.8323 7.2346L44.1419 4.60748C44.1419 4.60748 44.1809 7.55401 47.6499 6.46004C47.6499 6.46004 46.5156 9.45847 48.597 10.5325C48.597 10.5325 46.7729 12.6965 47.607 14.3214C47.607 14.3214 44.6642 13.4151 44.6642 14.9203L42.8323 13.491C42.8323 13.491 43.756 14.4372 45.2216 13.455C46.6871 12.4729 46.5351 8.7398 45.0696 7.21464C43.604 5.68947 42.8323 7.2346 42.8323 7.2346Z" fill="#E0E0E0"/>
<path opacity="0.2" d="M27.0504 17.0483C26.6294 18.9768 26.1539 21.3803 25.7057 24.0992C23.6087 21.4601 26.0954 16.2977 26.0954 16.2977L27.0504 17.0483Z" fill="black"/>
<path d="M27.6934 12.1854L34.1793 9.26282L34.343 14.3494L26.3292 20.5738C26.3292 20.5738 24.8091 16.8727 27.6934 12.1854Z" fill="#2C83E7"/>
</svg>
