<svg width="163" height="186" viewBox="0 0 163 186" fill="none" xmlns="http://www.w3.org/2000/svg">
<path d="M136.614 129.59L138.475 133.449L142.633 134.069L139.623 137.071L140.336 141.314L136.614 139.311L132.896 141.314L133.609 137.071L130.599 134.069L134.757 133.449L136.614 129.59Z" fill="#2C83E7"/>
<path d="M145.486 126.17L146.363 127.988L148.318 128.279L146.902 129.696L147.236 131.695L145.486 130.75L143.732 131.695L144.07 129.696L142.649 128.279L144.609 127.988L145.486 126.17Z" fill="#2C83E7"/>
<path d="M133.86 25.7392L135.325 21.0751C133.928 18.1937 133.504 14.9191 134.119 11.7643C134.734 8.60955 136.353 5.75281 138.723 3.64168C141.093 1.53054 144.079 0.284285 147.214 0.0981529C150.35 -0.0879796 153.457 0.796528 156.049 2.6131C158.641 4.42968 160.571 7.07569 161.538 10.1366C162.504 13.1975 162.452 16.5004 161.39 19.5277C160.328 22.5551 158.315 25.1359 155.667 26.8659C153.019 28.5959 149.886 29.3773 146.758 29.0876C143.706 28.8747 140.818 27.5943 138.578 25.4609V25.4609L133.86 25.7392Z" fill="#FAFAFA"/>
<path d="M133.86 25.7392L134.173 25.7139L135.082 25.6465L138.578 25.4019C140.31 27.0432 142.444 28.174 144.753 28.6744C145.466 28.8366 146.19 28.9424 146.919 28.9906L148.071 29.037C148.458 29.037 148.858 28.9906 149.257 28.9696C152.868 28.6339 156.215 26.8866 158.602 24.0903C159.948 22.5371 160.947 20.7023 161.53 18.7135C162.127 16.5884 162.248 14.3525 161.884 12.1727C161.793 11.6124 161.667 11.0587 161.505 10.5154C161.432 10.2402 161.342 9.96981 161.237 9.70572C161.134 9.43583 161.044 9.16593 160.933 8.90025C160.474 7.8277 159.894 6.81422 159.203 5.88079C158.859 5.41548 158.487 4.97319 158.088 4.55661C157.894 4.3442 157.688 4.14421 157.47 3.95778C157.26 3.76801 157.059 3.56137 156.836 3.38847L156.161 2.87398L155.823 2.62095L155.461 2.40166L154.749 1.97995C154.506 1.84078 154.251 1.73535 154.004 1.60884C152.112 0.691603 150.043 0.220761 147.949 0.230979C145.856 0.241196 143.792 0.732215 141.908 1.66788C138.644 3.27348 136.11 6.10526 134.831 9.57499C134.761 9.76898 134.695 9.96297 134.629 10.1527C134.555 10.34 134.496 10.5332 134.452 10.7305C134.358 11.1185 134.267 11.5022 134.177 11.8775C134.052 12.613 133.966 13.3549 133.921 14.1C133.829 16.5101 134.324 18.9058 135.362 21.0709V21.0709L134.259 24.5205L133.967 25.4145C133.901 25.6169 133.864 25.7224 133.864 25.7224C133.864 25.7224 133.888 25.6254 133.95 25.4272L134.214 24.5416L135.272 21.0456V21.0793C134.206 18.9103 133.691 16.5014 133.773 14.0747C133.812 13.3213 133.893 12.5708 134.016 11.8269C134.107 11.4474 134.201 11.0594 134.292 10.6672C134.336 10.4678 134.393 10.2719 134.465 10.081C134.535 9.88706 134.601 9.69307 134.671 9.49487C135.358 7.60309 136.422 5.87815 137.794 4.42922C139.166 2.9803 140.817 1.83896 142.642 1.07745C144.467 0.315943 146.426 -0.0491426 148.396 0.00530629C150.366 0.0597552 152.304 0.532552 154.086 1.39377C154.337 1.51606 154.597 1.62571 154.844 1.76909L155.568 2.21189L155.93 2.4354L156.276 2.69264L156.96 3.21135C157.186 3.39268 157.392 3.59932 157.606 3.78909C157.825 3.97949 158.034 4.18222 158.232 4.39636C158.636 4.82145 159.015 5.27216 159.364 5.74584C160.068 6.68462 160.66 7.7052 161.13 8.78639C161.241 9.05628 161.332 9.33462 161.435 9.60451C161.544 9.87944 161.636 10.1611 161.711 10.4479C161.873 11.0009 162 11.5645 162.089 12.1348C162.461 14.3469 162.337 16.6167 161.727 18.7725C161.142 20.7992 160.132 22.6703 158.767 24.2548C156.343 27.0775 152.953 28.838 149.298 29.172C148.886 29.172 148.475 29.231 148.096 29.231L146.931 29.1804C146.195 29.1277 145.464 29.0177 144.745 28.8515C142.427 28.3316 140.292 27.1739 138.569 25.5031H138.602L135.074 25.6929L134.177 25.735C133.958 25.7392 133.86 25.7392 133.86 25.7392Z" fill="#263238"/>
<path d="M139.981 14.0747L142.316 11.9998L146.247 16.1368L155.066 8.61349L156.931 10.9962L145.634 20.4172L139.981 14.0747Z" fill="#2C83E7"/>
<path d="M109.434 129.409L30.4878 147.433C30.0309 147.54 29.5578 147.553 29.0958 147.472C28.6338 147.391 28.192 147.217 27.796 146.96C27.3999 146.704 27.0573 146.369 26.788 145.976C26.5187 145.583 26.328 145.139 26.2268 144.671L0.62359 26.9074C0.521594 26.4408 0.51047 25.9581 0.590858 25.4871C0.671245 25.0161 0.841563 24.5659 1.09206 24.1624C1.34255 23.7589 1.66829 23.41 2.05063 23.1357C2.43297 22.8614 2.86439 22.667 3.32018 22.5637L82.2664 4.53972C82.7222 4.4352 83.1936 4.42376 83.6537 4.50605C84.1138 4.58835 84.5536 4.76276 84.9478 5.01932C85.3421 5.27587 85.683 5.60953 85.9513 6.00121C86.2195 6.39289 86.4097 6.83489 86.511 7.30194L112.131 125.065C112.233 125.532 112.244 126.014 112.163 126.485C112.083 126.956 111.913 127.407 111.662 127.81C111.412 128.214 111.086 128.563 110.704 128.837C110.321 129.111 109.89 129.306 109.434 129.409Z" fill="#E0E0E0"/>
<path d="M109.434 129.409L109.697 129.333C109.953 129.248 110.2 129.136 110.434 129C110.818 128.769 111.157 128.467 111.435 128.11C111.813 127.621 112.061 127.04 112.155 126.423C112.215 126.05 112.215 125.67 112.155 125.297C112.089 124.905 111.986 124.492 111.896 124.062C111.706 123.218 111.484 122.257 111.278 121.236C110.831 119.192 110.316 116.84 109.734 114.181C107.417 103.566 104.065 88.2075 99.9238 69.2262C97.8653 59.7377 95.5927 49.3425 93.1596 38.1798C91.9465 32.6019 90.6909 26.8385 89.3927 20.8895C88.7477 17.9151 88.0917 14.8998 87.4248 11.8438C87.0872 10.3172 86.7537 8.77796 86.412 7.23027C86.2264 6.45885 85.793 5.77373 85.1815 5.285C84.57 4.79627 83.8158 4.53231 83.0402 4.53553C82.6535 4.54431 82.2692 4.60095 81.8957 4.70421L80.743 4.96567L78.4252 5.49703L73.7483 6.56396L64.23 8.74L44.6169 13.2312L3.34883 22.6439C2.47651 22.8419 1.71219 23.3765 1.21463 24.1367C0.717067 24.8969 0.524506 25.8242 0.676944 26.726C1.05158 28.5183 1.45504 30.3148 1.83792 32.1029C2.61739 35.6734 3.39 39.2228 4.15575 42.7511L8.68437 63.588C11.6568 77.2472 14.5222 90.4047 17.2517 102.972C19.9812 115.539 22.5708 127.431 24.9998 138.611C25.3017 140.016 25.6022 141.4 25.9014 142.76C26.0537 143.443 26.1896 144.135 26.3501 144.806C26.5231 145.466 26.8774 146.062 27.3711 146.522C27.8617 146.975 28.4663 147.279 29.1167 147.399C29.4392 147.453 29.7673 147.463 30.0924 147.429C30.4135 147.386 30.7388 147.306 31.0599 147.23L34.8927 146.357L49.4379 143.043L93.3326 133.052L105.272 130.345L108.376 129.645L109.434 129.409L108.38 129.662L105.276 130.379L93.3367 133.116L49.4502 143.165L34.9216 146.492L31.0887 147.37C30.7676 147.441 30.4465 147.526 30.1089 147.572C29.7713 147.607 29.4307 147.596 29.0961 147.538C28.415 147.417 27.7818 147.099 27.2713 146.622C26.7607 146.144 26.394 145.527 26.2143 144.844C26.0496 144.165 25.9137 143.481 25.7614 142.798C25.4622 141.429 25.1603 140.046 24.8557 138.649C22.4267 127.486 19.8289 115.56 17.0953 103.01C14.3616 90.4595 11.4962 77.2852 8.5197 63.6259L3.99107 42.7933C3.22532 39.2678 2.45271 35.7156 1.67324 32.1366C1.28625 30.3486 0.886908 28.5605 0.50815 26.7513C0.349667 25.8066 0.552539 24.8357 1.07463 24.0401C1.59672 23.2446 2.39791 22.6857 3.31178 22.4794L44.584 13.0541L64.2094 8.5924L73.7236 6.42058L78.4005 5.35365L80.7224 4.79699L81.8751 4.53553C82.2558 4.43444 82.647 4.38064 83.0402 4.37527C83.8438 4.37719 84.6239 4.65301 85.2575 5.15926C85.8911 5.6655 86.3422 6.37336 86.5396 7.17123C86.8772 8.72313 87.2148 10.2582 87.5483 11.789C88.2207 14.8478 88.8822 17.8588 89.5326 20.8221C90.8199 26.7682 92.0728 32.5316 93.2914 38.1123C95.7163 49.275 97.9723 59.6702 100.035 69.163C104.152 88.1401 107.487 103.511 109.792 114.13C110.364 116.783 110.875 119.144 111.319 121.185C111.538 122.21 111.731 123.151 111.929 124.015C112.019 124.437 112.122 124.859 112.184 125.251C112.246 125.628 112.246 126.012 112.184 126.389C112.09 127.017 111.837 127.609 111.451 128.106C111.17 128.462 110.828 128.764 110.443 128.996C110.205 129.132 109.954 129.241 109.693 129.32L109.434 129.409Z" fill="#263238"/>
<g opacity="0.3">
<path d="M34.4894 143.262L106.42 126.419L104.148 111.979L100.068 103.887L31.2576 131.572L34.4894 143.262Z" fill="black"/>
</g>
<g opacity="0.3">
<path d="M64.5225 8.85806L67.2438 13.4589L67.7707 15.9007L65.9263 16.3224L64.5225 8.85806Z" fill="black"/>
</g>
<path d="M4.71973 27.5906L29.6766 142.296L107.902 124.441L103.44 103.929L82.9455 9.73102L4.71973 27.5906Z" fill="white"/>
<path d="M4.71969 27.5905L82.9414 9.66351H83.0072V9.7352C89.9484 41.6125 98.6063 81.3926 107.976 124.441V124.53H107.894L29.6724 142.381H29.5983V142.301C14.905 74.5651 4.8679 28.2779 4.71558 27.5947C4.8679 28.2948 14.9708 74.5693 29.7506 142.301L29.6559 142.242L107.878 124.374L107.812 124.479C98.4539 81.439 89.8043 41.6589 82.8755 9.77316L82.9578 9.82798L4.71969 27.5905Z" fill="#263238"/>
<path d="M26.7475 13.9421L61.2455 6.06912C61.9201 5.91517 62.6268 6.04202 63.2101 6.4218C63.7934 6.80157 64.2056 7.40314 64.3559 8.09418L66.3488 17.2569L26.7554 26.2927L24.7643 17.1382C24.6885 16.7949 24.6798 16.4397 24.7386 16.0929C24.7973 15.7461 24.9225 15.4146 25.1068 15.1176C25.2911 14.8205 25.531 14.5637 25.8126 14.362C26.0941 14.1603 26.4119 14.0176 26.7475 13.9421Z" fill="#263238"/>
<path d="M48.0751 4.43851L38.001 6.73684L41.101 15.3145L48.6885 13.5812L48.0751 4.43851Z" fill="#263238"/>
<path d="M61.2453 6.0621C61.2453 6.10849 53.5425 7.9092 44.02 10.0852C34.4976 12.2613 26.7619 13.9945 26.7495 13.9481C26.7372 13.9017 34.4523 12.101 43.983 9.92499C53.5137 7.74896 61.2206 6.02837 61.2453 6.0621Z" fill="#455A64"/>
<path d="M27.2393 24.1957C27.1941 24.1957 26.7947 22.551 26.3501 20.5015C25.9055 18.452 25.5761 16.7778 25.6255 16.7651C25.6749 16.7525 26.0701 18.4098 26.5148 20.4636C26.9594 22.5173 27.2846 24.1957 27.2393 24.1957Z" fill="#455A64"/>
<path d="M64.4604 14.7663C64.1297 13.6569 63.8548 12.5308 63.637 11.3926C63.3646 10.28 63.1475 9.15398 62.9866 8.01886C63.3167 9.12129 63.5915 10.2403 63.81 11.3715C64.0831 12.491 64.3002 13.6241 64.4604 14.7663V14.7663Z" fill="#455A64"/>
<path d="M62.892 16.7694C62.892 16.8158 54.9833 18.6629 45.2097 20.8937C35.4362 23.1246 27.507 24.9 27.4864 24.8494C27.4658 24.7988 35.3909 22.9559 45.1892 20.725C54.9875 18.4942 62.8673 16.723 62.892 16.7694Z" fill="#455A64"/>
<path d="M42.0563 50.1353C42.0563 50.1859 36.7249 51.4426 30.1172 52.9523C23.5095 54.4621 18.1781 55.6386 18.1493 55.5923C18.1205 55.5459 23.5013 54.2849 30.0884 52.7794C36.6755 51.2739 42.0439 50.0889 42.0563 50.1353Z" fill="#263238"/>
<path d="M81.871 45.5428C81.871 45.5934 67.927 48.8195 50.7058 52.7499C33.4847 56.6803 19.5077 59.8305 19.4995 59.7841C19.4913 59.7377 33.4394 56.5074 50.6688 52.577C67.8981 48.6466 81.8628 45.4964 81.871 45.5428Z" fill="#263238"/>
<path d="M82.7316 49.4985C82.7316 49.5449 68.7834 52.771 51.5623 56.7056C34.3412 60.6401 20.3683 63.7861 20.356 63.7355C20.3436 63.6849 34.3 60.463 51.5252 56.5327C68.7505 52.6023 82.7192 49.4395 82.7316 49.4985Z" fill="#263238"/>
<path d="M83.5878 53.4289C83.5878 53.4752 69.6437 56.7013 52.4226 60.6317C35.2015 64.5621 21.2245 67.7165 21.2122 67.6659C21.1998 67.6153 35.1562 64.3934 52.3856 60.4588C69.6149 56.5242 83.5754 53.3825 83.5878 53.4289Z" fill="#263238"/>
<path d="M84.444 57.3719C84.444 57.4183 70.5 60.6444 53.2788 64.5747C36.0577 68.5051 22.0807 71.6553 22.0725 71.6089C22.0643 71.5625 36.0124 68.3364 53.2418 64.4018C70.4711 60.4672 84.4358 57.3213 84.444 57.3719Z" fill="#263238"/>
<path d="M85.3046 61.3064C85.3046 61.3571 71.3564 64.5832 54.1353 68.5135C36.9142 72.4439 22.9331 75.5983 22.9331 75.5519C22.9331 75.5055 36.8771 72.2794 54.1024 68.3448C71.3276 64.4103 85.2922 61.2643 85.3046 61.3064Z" fill="#263238"/>
<path d="M35.0245 89.0594C35.0078 89.0172 34.9954 88.9734 34.9875 88.9287L34.8969 88.5533C34.8187 88.2117 34.7075 87.7352 34.5717 87.1406C34.2958 85.9218 33.9088 84.2097 33.4478 82.1602L33.5383 82.2192L26.7866 83.7711C26.7866 83.7711 26.9101 83.5729 26.8524 83.6657V83.6952V83.7542L26.8771 83.8723L26.9307 84.1085L27.0295 84.5766C27.0994 84.8886 27.1653 85.1965 27.2312 85.5044C27.3629 86.1116 27.4947 86.7104 27.6182 87.2924C27.8693 88.4521 28.104 89.5486 28.3222 90.5565L28.2316 90.4974L33.1102 89.4221L34.4976 89.1269L34.8681 89.0552L34.9998 89.0299C34.9998 89.0299 34.9669 89.0299 34.8846 89.0678L34.5346 89.1564L33.176 89.4853L28.2851 90.6788H28.211V90.6029L27.4947 87.343C27.367 86.7611 27.2353 86.1622 27.083 85.555C27.0171 85.2471 26.9471 84.9393 26.8812 84.6272C26.8442 84.4754 26.8113 84.3151 26.7783 84.1591L26.7248 83.9229L26.7001 83.8049V83.7458V83.7163V83.6952C26.6425 83.7922 26.7783 83.5687 26.766 83.5898L33.5219 82.059H33.596V82.1349L34.6581 87.1954C34.7775 87.7858 34.8722 88.2581 34.9422 88.5955C34.971 88.7473 34.9916 88.8654 35.0122 88.9624C35.0204 88.994 35.0246 89.0266 35.0245 89.0594V89.0594Z" fill="#263238"/>
<path d="M85.2102 72.0096L38.1064 82.7594L38.982 86.7851L86.0858 76.0353L85.2102 72.0096Z" fill="#E0E0E0"/>
<path d="M37.6348 101.061C37.6193 101.017 37.6069 100.972 37.5978 100.926C37.5731 100.829 37.5442 100.703 37.5072 100.551C37.429 100.209 37.3178 99.7372 37.1819 99.1425C36.9061 97.9196 36.5191 96.1905 36.058 94.1579L36.1486 94.2169L29.3968 95.7688C29.3968 95.7941 29.5203 95.5706 29.4627 95.6676V95.6887V95.7182V95.7773L29.4874 95.8953L29.5409 96.1315C29.5739 96.2918 29.6068 96.4478 29.6439 96.6038L29.8415 97.5274C29.9732 98.1389 30.1049 98.7335 30.2285 99.3154C30.4796 100.475 30.7143 101.572 30.9324 102.579L30.8419 102.52L35.7246 101.449L37.1078 101.154L37.4784 101.078C37.5213 101.066 37.5655 101.059 37.6101 101.057L37.4989 101.091L37.1449 101.179L35.7863 101.513L30.8748 102.672H30.8007V102.596L30.0844 99.3365C29.9567 98.7546 29.825 98.1557 29.6727 97.5485C29.6068 97.2448 29.5368 96.9328 29.4709 96.6249C29.438 96.4689 29.4009 96.3128 29.368 96.1526L29.3145 95.9164L29.2898 95.7984V95.7393V95.6887L29.3557 95.5791L36.1074 94.0693H36.1815V94.141C36.6179 96.2201 37.0049 97.9364 37.2437 99.2016C37.3631 99.792 37.4578 100.264 37.5278 100.602C37.5566 100.753 37.5772 100.872 37.5978 100.969C37.614 100.998 37.6264 101.029 37.6348 101.061V101.061Z" fill="#263238"/>
<path d="M87.8184 84.0117L40.7146 94.7615L41.5902 98.7872L88.6939 88.0374L87.8184 84.0117Z" fill="#E0E0E0"/>
<path d="M40.2447 113.059C40.2447 113.059 40.2447 113.008 40.2076 112.924C40.1706 112.84 40.1541 112.701 40.1171 112.549C40.0389 112.207 39.9277 111.735 39.7918 111.14C39.516 109.922 39.129 108.188 38.6679 106.156L38.7585 106.215L31.9903 107.767C31.9903 107.792 32.1138 107.568 32.0561 107.665V107.695V107.724V107.783L32.0808 107.902L32.1343 108.138C32.1673 108.298 32.2002 108.454 32.2373 108.61L32.4349 109.534C32.5666 110.145 32.6984 110.74 32.8219 111.322L33.5259 114.586L33.4353 114.531L38.318 113.455L39.7013 113.16L40.0718 113.084C40.1156 113.079 40.1597 113.079 40.2035 113.084L40.0924 113.118L39.7383 113.207L38.3797 113.54L33.4682 114.7H33.3941V114.624C33.1759 113.62 32.933 112.515 32.6778 111.364C32.5502 110.782 32.4184 110.187 32.2661 109.576C32.2002 109.272 32.1302 108.964 32.0644 108.652C32.0314 108.496 31.9944 108.34 31.9614 108.184L31.912 107.948L31.8832 107.83V107.767V107.695C31.8256 107.788 31.9614 107.564 31.9491 107.589L38.705 106.059H38.7791V106.135L39.8412 111.195C39.9606 111.785 40.0553 112.258 40.1253 112.599C40.1541 112.747 40.1788 112.865 40.1953 112.962C40.2161 112.992 40.2327 113.025 40.2447 113.059V113.059Z" fill="#263238"/>
<path d="M90.4314 96.0138L43.3276 106.764L44.2032 110.789L91.307 100.039L90.4314 96.0138Z" fill="#E0E0E0"/>
<path d="M28.5361 86.5839L29.2442 85.4411L31.348 86.6387L34.0569 82.4554L35.1026 83.1976L31.6115 88.469L28.5361 86.5839Z" fill="#2C83E7"/>
<path d="M31.0598 98.181L31.7679 97.0382L33.8717 98.2358L36.5765 94.0524L37.6263 94.7946L34.131 100.062L31.0598 98.181Z" fill="#2C83E7"/>
<path d="M33.6494 110.069L34.3575 108.93L36.4572 110.128L39.1661 105.945L40.2118 106.683L36.7206 111.954L33.6494 110.069Z" fill="#2C83E7"/>
<path d="M55.2098 124.985C55.2098 125.036 51.2411 125.985 46.3255 127.094C41.4099 128.203 37.4164 129.084 37.4082 129.038C37.4 128.991 41.3728 128.042 46.2884 126.929C51.204 125.816 55.1975 124.943 55.2098 124.985Z" fill="#263238"/>
<path d="M64.0778 122.817C63.0032 123.157 61.9121 123.438 60.8089 123.661C59.7225 123.938 58.6233 124.159 57.5154 124.323C58.5888 123.985 59.6785 123.703 60.7801 123.48C62.5874 123.07 64.0695 122.771 64.0778 122.817Z" fill="#263238"/>
<path d="M93.4479 113.35C93.4479 113.396 89.8786 114.257 85.457 115.265C81.0354 116.273 77.4372 117.053 77.429 117.006C77.4207 116.96 80.9942 116.104 85.4199 115.092C89.8456 114.08 93.4397 113.304 93.4479 113.35Z" fill="#263238"/>
<path d="M89.6273 124.45C89.6273 124.45 89.6644 124.336 89.7056 124.116C89.76 123.792 89.7431 123.459 89.6562 123.142C89.5097 122.641 89.3196 122.154 89.088 121.687C88.7598 121.068 88.5673 120.383 88.524 119.68C88.5337 119.247 88.6318 118.821 88.8119 118.43C88.992 118.039 89.2501 117.69 89.5697 117.407C89.9442 117.088 90.392 116.874 90.8706 116.783C91.3491 116.692 91.8424 116.728 92.3033 116.888C92.8095 117.046 93.2609 117.349 93.6043 117.761C93.7872 117.983 93.8954 118.26 93.9131 118.55C93.9177 118.706 93.8734 118.859 93.7868 118.987C93.7001 119.116 93.5755 119.212 93.4314 119.262C93.1622 119.352 92.887 119.421 92.608 119.469L91.7846 119.642C91.2329 119.756 90.673 119.857 90.0967 119.933C88.9804 120.098 87.8472 120.105 86.729 119.954C86.2238 119.843 85.6963 119.93 85.251 120.199C84.8973 120.564 84.5977 120.98 84.3618 121.434C84.2184 121.658 84.0195 121.838 83.7854 121.957C83.5473 122.065 83.2784 122.077 83.032 121.991C82.6085 121.798 82.2056 121.56 81.8299 121.282C81.6555 121.164 81.457 121.087 81.2494 121.059C81.0552 121.037 80.8597 121.086 80.6977 121.198C80.4129 121.465 80.1773 121.782 80.0019 122.134C79.8146 122.436 79.5589 122.688 79.2564 122.867C78.9539 123.046 78.6137 123.148 78.2646 123.163C77.7366 123.185 77.2207 122.998 76.8237 122.64C76.5743 122.42 76.3784 122.142 76.2514 121.831C76.207 121.724 76.1752 121.612 76.1567 121.498C76.1567 121.498 76.1938 121.611 76.2844 121.818C76.4178 122.116 76.6165 122.379 76.8649 122.586C77.252 122.921 77.7497 123.093 78.2564 123.066C78.5894 123.049 78.9132 122.949 79.2001 122.775C79.4869 122.6 79.7282 122.358 79.9031 122.067C80.0842 121.698 80.3298 121.366 80.6277 121.088C80.8152 120.955 81.0427 120.894 81.27 120.916C81.4953 120.95 81.7111 121.032 81.904 121.156C82.2736 121.424 82.668 121.654 83.0814 121.843C83.293 121.916 83.5234 121.906 83.7278 121.814C83.9372 121.707 84.1128 121.542 84.2342 121.337C84.4788 120.871 84.7896 120.445 85.1563 120.072C85.3843 119.905 85.6514 119.804 85.9303 119.777C86.204 119.747 86.48 119.747 86.7537 119.777C87.8598 119.924 88.9801 119.917 90.0843 119.756C90.6524 119.68 91.2082 119.575 91.7599 119.465L92.5833 119.296C92.8476 119.246 93.1088 119.18 93.3655 119.098C93.4783 119.061 93.5763 118.988 93.6447 118.889C93.7131 118.79 93.748 118.671 93.7443 118.55C93.7256 118.297 93.6306 118.057 93.4725 117.862C93.1476 117.466 92.7192 117.174 92.2375 117.019C91.8008 116.867 91.3337 116.831 90.8799 116.916C90.4262 117 90.0008 117.201 89.6438 117.5C89.337 117.767 89.0884 118.097 88.914 118.469C88.7396 118.841 88.6432 119.246 88.631 119.659C88.6681 120.346 88.8478 121.018 89.158 121.628C89.3858 122.101 89.5691 122.596 89.7056 123.104C89.7861 123.43 89.7931 123.77 89.7261 124.099C89.7068 124.22 89.6736 124.337 89.6273 124.45V124.45Z" fill="#263238"/>
<path d="M98.137 119.052C98.0677 119.08 97.996 119.103 97.923 119.119L97.2972 119.271L94.9999 119.815C93.065 120.279 90.389 120.928 87.4454 121.691C84.5018 122.455 81.8463 123.193 79.932 123.733L77.6594 124.374L77.0378 124.542C76.9665 124.565 76.8935 124.582 76.8196 124.593C76.8858 124.556 76.9564 124.528 77.0295 124.509L77.6389 124.31C78.1699 124.137 78.9398 123.889 79.8949 123.614C81.8093 123.041 84.4565 122.286 87.4042 121.506C90.3519 120.726 93.0279 120.11 94.9752 119.684C95.9468 119.469 96.7373 119.3 97.2848 119.191L97.9147 119.068C97.9882 119.056 98.0626 119.05 98.137 119.052Z" fill="#263238"/>
<path d="M64.369 26.5183L32.3945 33.8153L33.733 39.9691L65.7074 32.672L64.369 26.5183Z" fill="#E0E0E0"/>
<path d="M94.6169 126.381L104.946 182.283L114.386 164.415L132.279 175.173L113.287 120.738L94.6169 126.381Z" fill="#2C83E7"/>
<g opacity="0.3">
<path d="M98.0917 145.181C99.0751 145.371 100.089 145.313 101.045 145.012C102.002 144.712 102.873 144.178 103.584 143.456C104.526 142.461 105.152 141.103 106.338 140.437C107.404 139.838 108.718 139.922 109.891 140.255C111.064 140.588 112.168 141.141 113.341 141.453C114.499 141.755 115.703 141.818 116.885 141.639C118.067 141.459 119.202 141.041 120.224 140.407L117.244 131.931L103.411 130.159L96.8237 138.277L98.0917 145.181Z" fill="black"/>
</g>
<path d="M113.715 162.197C113.658 162.197 112.118 156.403 110.278 149.229C108.437 142.056 106.984 136.219 107.05 136.207C107.116 136.194 108.643 141.993 110.484 149.175C112.324 156.356 113.773 162.18 113.715 162.197Z" fill="#263238"/>
<path d="M96.1277 129.287L85.7984 185.189L76.3582 167.325L58.4661 178.079L77.4575 123.644L96.1277 129.287Z" fill="#2C83E7"/>
<g opacity="0.3">
<path d="M71.7761 139.926C71.7761 139.926 74.7156 142.402 78.2191 141.263C81.7226 140.125 83.9005 139.88 85.7984 141.263C87.6963 142.646 92.8301 147.146 92.8301 147.146L94.0199 140.698L87.124 130.999L79.9276 132.487L74.8062 132.998L72.9 136.696L71.7761 139.926Z" fill="black"/>
</g>
<path d="M156.692 78.8244C156.692 82.8349 151.69 86.2887 150.957 90.0799C150.204 93.985 153.522 99.1341 152.069 102.731C150.615 106.329 144.658 107.619 142.546 110.87C140.434 114.122 141.546 120.211 138.841 122.986C136.136 125.761 130.196 124.593 127.013 126.782C123.831 128.97 122.637 135.018 119.067 136.536C115.56 138.024 110.533 134.625 106.717 135.397C103.011 136.148 99.6438 141.272 95.7286 141.272C91.8134 141.272 88.4375 136.148 84.7364 135.397C80.9241 134.625 75.8973 138.024 72.3856 136.536C68.8739 135.047 67.6182 128.945 64.444 126.782C61.2699 124.618 55.325 125.757 52.612 122.986C49.8989 120.216 51.0434 114.13 48.9068 110.87C46.7701 107.611 40.8664 106.388 39.3884 102.731C37.9104 99.0751 41.2534 93.9892 40.5 90.0799C39.7672 86.2845 34.761 82.8349 34.761 78.8244C34.761 74.8139 39.7672 71.3559 40.5 67.5647C41.2534 63.6596 37.931 58.5105 39.3884 54.9133C40.8458 51.3161 46.7989 50.0257 48.9068 46.7785C51.0146 43.5313 49.9072 37.4375 52.612 34.6584C55.3168 31.8794 61.2575 33.0517 64.444 30.863C67.6306 28.6743 68.8162 22.627 72.3856 21.113C75.955 19.5991 80.92 23.0234 84.7364 22.2517C88.4416 21.501 91.8134 16.373 95.7286 16.373C99.6438 16.373 103.016 21.501 106.717 22.2517C110.529 23.0234 115.556 19.6202 119.067 21.113C122.637 22.627 123.839 28.7039 127.013 30.863C130.187 33.0222 136.132 31.8878 138.841 34.6584C141.55 37.4291 140.41 43.5144 142.546 46.7785C144.683 50.0425 150.587 51.2571 152.069 54.9133C153.551 58.5696 150.204 63.6554 150.957 67.5647C151.69 71.3559 156.692 74.8013 156.692 78.8244Z" fill="#2C83E7"/>
<path d="M81.4634 43.818C81.4634 43.818 81.4181 43.7632 81.3522 43.6451C81.2863 43.5271 81.1834 43.3373 81.0723 43.1307C80.8294 42.6836 80.4959 42.0258 80.1007 41.2076C79.3061 39.5714 78.2769 37.2689 77.2847 34.6711C76.2925 32.0734 75.5309 29.6612 75.0327 27.9237C74.7857 27.0423 74.5963 26.3296 74.4769 25.8151C74.4234 25.5874 74.3781 25.3934 74.3452 25.2416C74.3239 25.1763 74.3128 25.108 74.3123 25.0392C74.3442 25.1007 74.3691 25.1658 74.3864 25.2332L74.5552 25.7941C74.7157 26.3128 74.9257 27.0128 75.1768 27.8604C75.712 29.6021 76.4983 31.9932 77.4823 34.6078C78.4662 37.2225 79.479 39.5039 80.2365 41.157L81.1464 43.1096L81.3893 43.6409C81.4191 43.6975 81.4439 43.7568 81.4634 43.818V43.818Z" fill="#263238"/>
<path d="M86.8895 41.7053C86.8174 41.558 86.7635 41.4022 86.7289 41.2414C86.6425 40.9377 86.5272 40.495 86.3913 39.9467C86.1196 38.8545 85.782 37.3279 85.4774 35.6326C85.1727 33.9373 84.9586 32.3896 84.8351 31.2679C84.7693 30.707 84.7281 30.2515 84.7034 29.9353C84.6845 29.7728 84.6845 29.6086 84.7034 29.4461C84.7507 29.6026 84.7825 29.7637 84.7981 29.9268L84.9957 31.2468C85.1604 32.3643 85.4074 33.9036 85.6997 35.5946C85.992 37.2857 86.3172 38.8123 86.5478 39.913C86.6589 40.4275 86.7495 40.8661 86.8236 41.2203C86.8613 41.3793 86.8833 41.5418 86.8895 41.7053V41.7053Z" fill="#263238"/>
<path d="M96.4614 40.7311C96.3997 40.7311 96.2474 35.9995 96.1197 30.1672C95.9921 24.3349 95.9345 19.5991 95.9921 19.5949C96.0497 19.5907 96.2062 24.3223 96.3338 30.163C96.4614 36.0037 96.5191 40.7311 96.4614 40.7311Z" fill="#263238"/>
<path d="M106.095 31.0106C106.153 31.0106 105.486 33.3933 104.609 36.2947C103.732 39.1961 102.962 41.5281 102.921 41.5113C102.88 41.4944 103.53 39.1286 104.407 36.2272C105.284 33.3258 106.033 30.9938 106.095 31.0106Z" fill="#263238"/>
<path d="M110.022 43.2361C110.031 43.1663 110.049 43.0981 110.076 43.0337L110.261 42.477C110.426 41.9963 110.673 41.3046 111.002 40.4528C111.649 38.7659 112.571 36.4086 113.625 33.8361C114.679 31.2637 115.659 28.9485 116.379 27.2785C116.733 26.4688 117.025 25.8025 117.248 25.3049L117.491 24.7735C117.552 24.6554 117.585 24.5922 117.593 24.5964C117.578 24.6628 117.558 24.7277 117.532 24.7904L117.322 25.3386L116.519 27.3417C115.815 29.0539 114.872 31.3649 113.822 33.9247C112.773 36.4845 111.842 38.7955 111.142 40.5118L110.339 42.5107L110.113 43.0505C110.09 43.116 110.06 43.1783 110.022 43.2361Z" fill="#263238"/>
<path d="M115.152 45.9857C115.215 45.8365 115.293 45.6951 115.387 45.564C115.551 45.2941 115.798 44.9103 116.103 44.4422C116.721 43.5102 117.61 42.2366 118.643 40.8787C119.677 39.5208 120.669 38.3484 121.402 37.505C121.768 37.0833 122.073 36.7502 122.287 36.5224C122.39 36.3961 122.507 36.2828 122.637 36.1851C122.557 36.3289 122.46 36.4621 122.348 36.5815C122.126 36.8598 121.846 37.2014 121.525 37.6062C120.821 38.475 119.854 39.6768 118.82 41.0348C117.787 42.3927 116.885 43.6452 116.235 44.5561L115.465 45.6314C115.373 45.7603 115.268 45.8791 115.152 45.9857V45.9857Z" fill="#263238"/>
<path d="M122.653 52.2692C122.612 52.227 125.873 49.0557 129.928 45.1886C133.983 41.3215 137.309 38.2219 137.338 38.2641C137.367 38.3063 134.123 41.4818 130.064 45.3489C126.004 49.216 122.694 52.3156 122.653 52.2692Z" fill="#263238"/>
<path d="M135.737 53.5807C135.34 53.8378 134.927 54.0689 134.502 54.2723C133.728 54.694 132.678 55.2802 131.517 55.9592C130.356 56.6381 129.286 57.2032 128.491 57.5827C128.079 57.7725 127.775 57.9201 127.544 58.0045C127.432 58.0645 127.311 58.1072 127.186 58.131C127.583 57.8738 127.996 57.6428 128.421 57.4394C129.195 57.0177 130.245 56.4315 131.406 55.7525C132.567 55.0736 133.637 54.4874 134.432 54.1289C134.844 53.9391 135.148 53.7915 135.379 53.7072C135.491 53.6454 135.612 53.6026 135.737 53.5807Z" fill="#263238"/>
<path d="M147.836 58.7214C147.857 58.7804 143.979 60.2311 139.191 61.9644C134.403 63.6976 130.479 65.0513 130.463 64.9965C130.446 64.9417 134.316 63.4867 139.108 61.7535C143.901 60.0203 147.816 58.6666 147.836 58.7214Z" fill="#263238"/>
<path d="M151.69 81.2703C151.69 81.3294 147.47 80.9709 142.279 80.4649C137.087 79.9588 132.88 79.4992 132.888 79.4359C132.896 79.3726 137.104 79.7395 142.299 80.2456C147.495 80.7516 151.694 81.2113 151.69 81.2703Z" fill="#263238"/>
<path d="M148.59 101.496C148.565 101.55 144.625 99.695 139.792 97.3587C134.959 95.0224 131.06 93.0783 131.085 93.0235C131.11 92.9686 135.049 94.82 139.883 97.1605C144.716 99.501 148.615 101.441 148.59 101.496Z" fill="#263238"/>
<path d="M135.63 120.738C135.584 120.776 132.748 117.398 129.286 113.198C125.823 108.998 123.057 105.553 123.11 105.515C123.164 105.477 125.992 108.85 129.454 113.055C132.917 117.259 135.675 120.696 135.63 120.738Z" fill="#263238"/>
<path d="M124.811 123.298C124.683 123.152 124.568 122.994 124.469 122.826C124.259 122.514 123.963 122.054 123.608 121.485C122.892 120.342 121.933 118.744 120.92 116.951C119.907 115.159 119.043 113.506 118.45 112.313C118.149 111.71 117.907 111.22 117.75 110.879C117.657 110.705 117.58 110.523 117.52 110.335C117.636 110.492 117.738 110.66 117.824 110.837C118.022 111.208 118.277 111.68 118.586 112.241C119.224 113.426 120.113 115.062 121.122 116.854C122.13 118.647 123.069 120.253 123.753 121.413C124.074 121.97 124.345 122.429 124.555 122.792C124.658 122.951 124.744 123.12 124.811 123.298Z" fill="#263238"/>
<path d="M118.092 132.955C118.092 132.955 118.051 132.901 117.985 132.783L117.717 132.268C117.482 131.817 117.165 131.159 116.787 130.341C116.029 128.7 115.053 126.398 114.127 123.792C113.201 121.185 112.501 118.782 112.069 117.044C111.842 116.167 111.657 115.45 111.566 114.957C111.521 114.729 111.484 114.535 111.451 114.383C111.435 114.317 111.425 114.249 111.422 114.181C111.456 114.241 111.48 114.307 111.492 114.375L111.649 114.936C111.793 115.459 111.982 116.154 112.213 117.002C112.699 118.744 113.419 121.139 114.345 123.749C115.272 126.36 116.219 128.65 116.943 130.307L117.808 132.26C117.898 132.47 117.977 132.648 118.042 132.791C118.066 132.843 118.082 132.899 118.092 132.955V132.955Z" fill="#263238"/>
<path d="M104.481 126.17C104.392 125.685 104.333 125.195 104.304 124.703C104.209 123.796 104.057 122.543 103.835 121.173C103.613 119.802 103.353 118.571 103.156 117.681C103.026 117.205 102.927 116.72 102.859 116.23C102.92 116.348 102.967 116.472 102.999 116.601C103.081 116.846 103.184 117.2 103.304 117.643C103.538 118.524 103.818 119.752 104.045 121.139C104.242 122.315 104.379 123.5 104.456 124.69C104.485 125.145 104.502 125.533 104.502 125.774C104.512 125.906 104.505 126.04 104.481 126.17V126.17Z" fill="#263238"/>
<path d="M95.5762 138.311C95.5667 138.24 95.5667 138.167 95.5762 138.096C95.5762 137.927 95.5762 137.721 95.5762 137.476C95.5762 136.936 95.5762 136.156 95.5762 135.195C95.6092 133.268 95.6956 130.611 95.8438 127.68C95.9921 124.749 96.1773 122.092 96.3296 120.173C96.4037 119.212 96.4737 118.436 96.5273 117.9C96.5561 117.656 96.5767 117.449 96.5931 117.285C96.5979 117.211 96.6118 117.139 96.6343 117.07C96.6439 117.142 96.6439 117.216 96.6343 117.289C96.6343 117.453 96.6343 117.66 96.6055 117.909C96.5725 118.478 96.5314 119.246 96.4779 120.182C96.3667 122.134 96.2185 124.774 96.0662 127.688C95.9138 130.602 95.8068 133.276 95.7368 135.199C95.7039 136.135 95.6751 136.886 95.6545 137.476C95.6545 137.725 95.6298 137.927 95.6215 138.096C95.6169 138.17 95.6016 138.242 95.5762 138.311Z" fill="#263238"/>
<path d="M88.3387 117.07C88.3358 117.433 88.2944 117.795 88.2152 118.149C88.1082 118.807 87.9352 119.714 87.7088 120.705C87.4824 121.696 87.2436 122.59 87.0542 123.235C86.9721 123.588 86.852 123.93 86.696 124.256C86.7327 123.895 86.803 123.539 86.906 123.193L87.4988 120.663C87.7129 119.714 87.9105 118.853 88.067 118.132C88.1241 117.77 88.2151 117.414 88.3387 117.07V117.07Z" fill="#263238"/>
<path d="M75.2508 110.647C74.7115 111.56 74.1103 112.434 73.4517 113.261C72.8476 114.132 72.1889 114.962 71.4797 115.745C72.018 114.831 72.6192 113.957 73.2788 113.131C73.8802 112.258 74.5391 111.428 75.2508 110.647Z" fill="#263238"/>
<path d="M68.3879 105.907C68.4291 105.945 65.8766 109.019 62.6819 112.768C59.4871 116.517 56.8564 119.515 56.8111 119.486C56.7659 119.456 59.3225 116.374 62.5172 112.625C65.7119 108.876 68.3427 105.865 68.3879 105.907Z" fill="#263238"/>
<path d="M64.9504 100.673C63.9407 101.671 62.8813 102.614 61.7762 103.499C59.9853 105.009 58.5033 106.198 58.4827 106.151C59.493 105.156 60.5524 104.214 61.6568 103.33C62.7105 102.389 63.8097 101.502 64.9504 100.673Z" fill="#263238"/>
<path d="M60.9322 92.7831C60.9569 92.838 57.3999 94.6513 52.9824 96.8274C48.565 99.0034 44.9709 100.728 44.9421 100.673C44.9132 100.619 48.4744 98.8094 52.8919 96.6292C57.3093 94.4489 60.9075 92.7283 60.9322 92.7831Z" fill="#263238"/>
<path d="M59.3184 88.8485C59.2002 88.9017 59.0756 88.9386 58.9479 88.9582C58.705 89.0172 58.3551 89.0931 57.9228 89.1732C57.0541 89.3419 55.8437 89.5275 54.5016 89.6666C53.1595 89.8058 51.9368 89.8648 51.0516 89.8775C50.6111 89.8775 50.2529 89.8775 50.0059 89.8775C49.8771 89.886 49.7478 89.8732 49.623 89.8395C50.0953 89.7731 50.5709 89.7351 51.0475 89.7257C51.9285 89.6709 53.143 89.5865 54.481 89.4473C55.819 89.3082 57.0253 89.1479 57.8981 89.0256C58.3668 88.9323 58.8415 88.8731 59.3184 88.8485V88.8485Z" fill="#263238"/>
<path d="M58.0133 79.7606C57.7736 79.781 57.5326 79.781 57.2928 79.7606L55.3332 79.6594C53.6864 79.5751 51.3974 79.4992 48.8737 79.5118C46.35 79.5245 44.061 79.6299 42.4101 79.7311L40.4546 79.8534C40.2155 79.8814 39.9746 79.8899 39.7341 79.8787C39.968 79.8212 40.2063 79.7845 40.4464 79.7691C40.9075 79.7142 41.5744 79.6468 42.3978 79.5751C44.0446 79.4359 46.3418 79.3094 48.8696 79.2925C51.3974 79.2757 53.6905 79.3811 55.3455 79.5034C56.1689 79.5666 56.84 79.6257 57.3011 79.6763C57.5401 79.6873 57.7781 79.7154 58.0133 79.7606V79.7606Z" fill="#263238"/>
<path d="M58.8203 71.7818C58.8203 71.8409 56.1402 71.1282 52.8672 70.192C49.5942 69.2558 46.9553 68.4545 46.9718 68.3955C46.9882 68.3364 49.6519 69.0449 52.9248 69.9811C56.1978 70.9173 58.8367 71.7228 58.8203 71.7818Z" fill="#263238"/>
<path d="M60.5452 65.1019C60.479 65.0979 60.4137 65.0837 60.3517 65.0597L59.8041 64.891C59.3348 64.7392 58.6555 64.5031 57.828 64.1952C55.6658 63.3819 53.5468 62.4529 51.4797 61.4119C49.4134 60.3697 47.4029 59.2154 45.4566 57.9539C44.7115 57.4689 44.1145 57.064 43.7111 56.7731L43.25 56.4315C43.147 56.3514 43.0935 56.3092 43.0976 56.3008C43.1599 56.3264 43.2192 56.359 43.2747 56.3977L43.7605 56.7014C44.1722 56.9713 44.7815 57.355 45.5349 57.8231C47.0458 58.7593 49.1619 59.995 51.5744 61.1968C53.9869 62.3987 56.2348 63.3771 57.8815 64.035C58.7049 64.3597 59.3677 64.6169 59.833 64.794L60.364 65.0007C60.4271 65.0292 60.4877 65.063 60.5452 65.1019V65.1019Z" fill="#263238"/>
<path d="M64.4193 58.3545C64.3864 58.4009 62.3032 56.9586 59.7672 55.1284C57.2311 53.2982 55.2015 51.7758 55.2385 51.7252C55.2756 51.6746 57.3546 53.121 59.8948 54.9513C62.4349 56.7815 64.4522 58.3165 64.4193 58.3545Z" fill="#263238"/>
<path d="M56.2308 37.8677C56.2308 37.8677 56.2884 37.9014 56.3872 37.9815L56.7989 38.3526L58.318 39.7274L63.3036 44.2861L68.3098 48.8196L69.8249 50.1986L70.2365 50.5823C70.2863 50.6242 70.3305 50.6723 70.3683 50.7257C70.3683 50.7257 70.3107 50.6962 70.2077 50.616L69.796 50.266C69.4214 49.9582 68.8903 49.5027 68.2357 48.9376C66.9265 47.8074 65.1398 46.226 63.1843 44.4506C61.2287 42.6752 59.479 41.039 58.2439 39.8413C57.6182 39.2425 57.1159 38.7575 56.7701 38.4117L56.379 38.0153C56.2802 37.9225 56.2225 37.8719 56.2308 37.8677Z" fill="#263238"/>
<path d="M69.0715 38.2514C69.0715 38.2514 69.1827 38.3442 69.3515 38.5424C69.5203 38.7406 69.7632 39.0316 70.0472 39.3858C70.6195 40.1196 71.3811 41.157 72.1716 42.3378C72.962 43.5186 73.6249 44.6235 74.0818 45.4374C74.3124 45.8591 74.4935 46.1754 74.6088 46.4074C74.68 46.5227 74.7355 46.6476 74.7735 46.7785C74.4717 46.3761 74.1966 45.9534 73.9501 45.5133C73.4602 44.7205 72.7768 43.6367 71.9904 42.4559C71.2041 41.2751 70.4631 40.2335 69.932 39.4786C69.6216 39.0874 69.3343 38.6776 69.0715 38.2514V38.2514Z" fill="#263238"/>
<g opacity="0.2">
<path d="M52.616 34.6627L70.5287 50.7257L74.9791 47.0779L64.588 30.7661C64.588 30.7661 63.7893 31.3649 61.7061 31.9722C59.7177 32.5583 53.8099 32.7144 52.616 34.6627Z" fill="black"/>
</g>
<g opacity="0.2">
<path d="M72.5542 21.0751L81.2986 43.4976L86.8893 41.7053L85.0244 22.2559C85.0244 22.2559 84.0651 22.4878 81.9284 22.2095C79.8576 21.9396 74.8391 19.928 72.5542 21.0751Z" fill="black"/>
</g>
<g opacity="0.3">
<path d="M95.8726 16.3814L96.4613 40.7311L101.698 40.9884L107.001 22.2981C105.899 22.074 104.851 21.6297 103.917 20.9907C102.106 19.8015 98.4086 16.1832 95.8726 16.3814Z" fill="black"/>
</g>
<g opacity="0.2">
<path d="M118.713 20.9823L110.022 43.4301L114.74 45.7453L126.7 30.6227C125.801 29.8453 125.035 28.9204 124.432 27.8857C123.304 26.0175 121.36 21.7287 118.713 20.9823Z" fill="black"/>
</g>
<g opacity="0.2">
<path d="M139.125 34.9874L122.937 52.2776L126.544 57.258L142.361 46.4453C141.84 45.4627 141.488 44.3957 141.319 43.2909C140.941 41.1824 140.887 37.3532 139.125 34.9874Z" fill="black"/>
</g>
<g opacity="0.2">
<path d="M151.904 54.4958L130.105 63.6849L131.912 69.3907L150.879 67.2821C150.879 67.2821 150.759 66.6833 151.011 64.4946C151.249 62.3734 153.439 57.6334 151.904 54.4958Z" fill="black"/>
</g>
<g opacity="0.2">
<path d="M156.733 78.8244L132.966 79.6678L132.769 85.0362L150.883 90.4679C151.003 89.695 151.245 88.9473 151.599 88.2539C152.95 85.673 156.733 82.0294 156.733 78.8244Z" fill="black"/>
</g>
<g opacity="0.2">
<path d="M152.349 101.842L130.467 93.1078L128.256 97.9955L143.147 110.069C143.93 109.301 144.796 108.628 145.729 108.062C147.54 106.877 151.846 104.958 152.349 101.842Z" fill="black"/>
</g>
<g opacity="0.2">
<path d="M120.167 101.496L114.749 106.135C115.16 106.556 122.377 119.14 126.828 126.908C126.886 126.857 126.946 126.809 127.009 126.765C129.936 124.757 135.148 125.563 138.088 123.577L120.167 101.496Z" fill="black"/>
<path d="M110.212 110.301L102.126 113.127L105.955 135.612C106.204 135.522 106.458 135.451 106.717 135.397C110.529 134.625 115.556 138.024 119.067 136.536C119.548 136.325 119.995 136.04 120.393 135.692L110.212 110.301Z" fill="black"/>
<path d="M95.4484 141.263L96.737 111.887L89.7383 110.069L84.5386 135.372L84.728 135.406C88.3509 136.127 91.6485 141.01 95.4484 141.263Z" fill="black"/>
<path d="M77.8693 106.898C77.8693 106.898 68.6309 119.575 63.7976 126.398C64.0213 126.513 64.2384 126.641 64.4481 126.782C67.6222 128.958 68.8203 135.018 72.3896 136.536C72.5543 136.603 72.7231 136.658 72.8919 136.709L85.7985 111.684L77.8693 106.898Z" fill="black"/>
<path d="M68.3879 96.6924L48.6843 110.563C48.7584 110.664 48.8408 110.761 48.9066 110.866C51.0474 114.139 49.9071 120.207 52.6119 122.982C52.8615 123.233 53.1377 123.455 53.4353 123.644C60.397 115.606 72.896 101.175 73.3489 100.673L68.3879 96.6924Z" fill="black"/>
<path d="M63.8717 86.7863L40.574 90.6408C40.9486 94.47 38.0009 99.3028 39.3883 102.727C39.4719 102.936 39.5725 103.138 39.6889 103.33C47.8404 99.172 64.8721 90.5227 65.5802 90.4763L63.8717 86.7863Z" fill="black"/>
<path d="M62.5997 73.494L40.5782 66.9869C40.5576 67.1809 40.5329 67.3749 40.5 67.5647C39.7672 71.3601 34.761 74.8139 34.761 78.8244C34.7621 79.0915 34.7841 79.358 34.8269 79.6214H61.7063L62.5997 73.494Z" fill="black"/>
<path d="M39.479 54.7404C47.7129 59.2569 63.7977 68.3955 63.7977 68.3955L67.7582 60.6908L49.1579 46.3525C49.0756 46.5001 48.9973 46.652 48.9068 46.7743C46.8113 49.9751 41.0764 51.2233 39.479 54.7404Z" fill="black"/>
</g>
<path d="M156.692 78.8244L156.667 78.5545C156.658 78.29 156.622 78.0273 156.56 77.7701C156.321 76.7589 155.902 75.8012 155.325 74.9447C154.617 73.7807 153.547 72.4777 152.443 70.8288C151.82 69.9516 151.342 68.9758 151.027 67.94C150.759 66.731 150.759 65.4759 151.027 64.2669C151.258 62.9807 151.632 61.6565 151.958 60.2522C152.283 58.8479 152.588 57.3297 152.283 55.7778C152.11 54.9923 151.759 54.2597 151.258 53.6398C150.72 53.0085 150.106 52.4502 149.43 51.9782C148.063 50.983 146.49 50.1901 144.988 49.1527C144.21 48.6393 143.504 48.0208 142.888 47.3141C142.283 46.5469 141.844 45.6573 141.599 44.7037C141.072 42.7849 140.953 40.7353 140.554 38.6858C140.379 37.6422 140.036 36.6359 139.537 35.7085C138.995 34.7749 138.174 34.0456 137.194 33.6295C136.183 33.2134 135.125 32.93 134.045 32.7861C132.954 32.6005 131.834 32.4698 130.714 32.2674C129.567 32.0979 128.454 31.7375 127.421 31.2004C126.396 30.5693 125.528 29.7031 124.885 28.6701C124.201 27.6665 123.613 26.5869 122.987 25.52C122.387 24.4283 121.669 23.4097 120.846 22.4836C119.998 21.5468 118.84 20.9654 117.598 20.8516C116.328 20.8035 115.059 20.9557 113.835 21.3028C112.6 21.6107 111.332 21.986 110.035 22.2348C108.724 22.5513 107.356 22.5252 106.058 22.1589C104.792 21.6503 103.608 20.9494 102.546 20.0799C101.447 19.2364 100.377 18.393 99.2033 17.6424C98.03 16.8917 96.7002 16.3477 95.3169 16.508H95.0575C94.9711 16.508 94.8887 16.5459 94.8064 16.5628C94.6376 16.6049 94.4647 16.6345 94.3 16.6851C93.9684 16.7931 93.6439 16.9227 93.3284 17.073C92.6916 17.3833 92.0803 17.7457 91.5005 18.1568C90.3313 19.0003 89.2239 19.9196 88.0217 20.7546C87.4232 21.1838 86.7896 21.5591 86.1279 21.8764C85.4498 22.1871 84.7239 22.374 83.983 22.4288C82.4975 22.4386 81.0188 22.224 79.5944 21.792C78.1602 21.3726 76.6973 21.0639 75.2181 20.8685C74.4794 20.794 73.7337 20.8453 73.0114 21.0203C72.2919 21.2252 71.6283 21.5975 71.0723 22.1083C69.936 23.1246 69.1456 24.491 68.3551 25.832C67.6089 27.2363 66.7364 28.5662 65.7491 29.8046C65.2264 30.418 64.5986 30.9282 63.8965 31.3101C63.1798 31.6571 62.4271 31.9203 61.6528 32.0945C60.1048 32.4445 58.5239 32.5921 56.9636 32.8788C55.4033 33.1656 53.81 33.6168 52.682 34.7386C52.1375 35.3327 51.7172 36.0344 51.4469 36.8008C51.1743 37.5737 50.9744 38.3716 50.85 39.1834C50.5618 40.8112 50.4383 42.4812 50.0266 44.1217C49.8497 44.9543 49.5542 45.7557 49.1497 46.5002C48.7235 47.2378 48.1647 47.886 47.5029 48.4105C46.2019 49.4817 44.724 50.2745 43.3077 51.1601C42.5982 51.5975 41.9175 52.0821 41.2699 52.6108C40.6256 53.1381 40.0838 53.7847 39.6725 54.5169C39.2804 55.2626 39.0819 56.0991 39.0961 56.946C39.1107 57.7973 39.2086 58.645 39.3884 59.4763C39.7343 61.1631 40.2571 62.8204 40.5371 64.5368C40.703 65.4176 40.7363 66.3193 40.6359 67.2105C40.519 68.0994 40.2397 68.9578 39.8125 69.7407C38.952 71.28 37.8322 72.6337 36.84 74.0675C36.3305 74.7741 35.8867 75.5281 35.5144 76.3195C35.1065 77.0913 34.8929 77.9552 34.8929 78.8329C34.8929 79.7106 35.1065 80.5744 35.5144 81.3463C35.8861 82.138 36.3299 82.892 36.84 83.5982C37.8322 85.032 38.952 86.3857 39.8125 87.925C40.2318 88.6934 40.5108 89.5337 40.6359 90.4047C40.7405 91.2838 40.7127 92.1741 40.5535 93.0446C40.2777 94.7778 39.7548 96.4394 39.4049 98.1262C39.2266 98.9578 39.1287 99.8053 39.1126 100.656C39.0964 101.504 39.2934 102.342 39.6848 103.09C40.0929 103.824 40.6336 104.473 41.2781 105C41.9257 105.529 42.6065 106.013 43.316 106.451C44.7322 107.336 46.1978 108.138 47.5152 109.2C48.176 109.726 48.7345 110.374 49.162 111.111C49.5696 111.852 49.8652 112.653 50.0389 113.485C50.4259 115.13 50.5577 116.8 50.8623 118.427C50.9901 119.239 51.1914 120.037 51.4634 120.81C51.7273 121.576 52.1405 122.279 52.6779 122.877C53.8183 124.011 55.4239 124.462 56.9636 124.749C58.5033 125.036 60.1048 125.171 61.6528 125.533C62.4283 125.708 63.1822 125.971 63.9006 126.318C64.6018 126.701 65.2294 127.211 65.7532 127.823C66.7307 129.064 67.5948 130.393 68.3346 131.796C69.125 133.137 69.9155 134.503 71.0517 135.519C71.6068 136.029 72.2688 136.402 72.9867 136.608C73.7152 136.796 74.4694 136.859 75.2181 136.793C76.6946 136.59 78.1546 136.275 79.5861 135.853C81.0113 135.417 82.4917 135.201 83.9789 135.212C84.7199 135.269 85.4456 135.457 86.1238 135.768C86.785 136.087 87.4185 136.462 88.0176 136.89C89.2197 137.733 90.3231 138.665 91.4964 139.484C92.0737 139.898 92.6838 140.262 93.3202 140.572C93.636 140.721 93.9604 140.851 94.2918 140.96C94.4606 141.006 94.6294 141.04 94.7982 141.082L95.0534 141.137H95.3087C96.6961 141.297 98.03 140.715 99.1992 140.002C100.368 139.29 101.443 138.391 102.538 137.565C103.602 136.695 104.787 135.994 106.054 135.486C107.353 135.122 108.72 135.096 110.031 135.41C111.328 135.663 112.579 136.038 113.831 136.346C115.057 136.689 116.327 136.841 117.598 136.797C118.839 136.679 119.994 136.097 120.842 135.161C121.663 134.231 122.381 133.212 122.983 132.12C123.604 131.058 124.193 129.978 124.876 128.97C125.523 127.939 126.392 127.073 127.417 126.44C128.45 125.902 129.563 125.543 130.71 125.377C131.834 125.171 132.95 125.04 134.041 124.859C135.122 124.708 136.18 124.417 137.19 123.994C138.169 123.576 138.99 122.848 139.533 121.915C140.028 120.987 140.371 119.981 140.545 118.938C140.957 116.888 141.064 114.834 141.595 112.916C141.837 111.962 142.277 111.074 142.884 110.31C143.498 109.601 144.205 108.982 144.984 108.471C146.486 107.433 148.059 106.641 149.422 105.645C150.101 105.174 150.717 104.614 151.254 103.98C151.754 103.361 152.104 102.63 152.275 101.846C152.418 101.088 152.439 100.312 152.336 99.5474C152.251 98.8146 152.122 98.0878 151.949 97.3714C151.62 95.967 151.25 94.6429 151.019 93.3567C150.751 92.1477 150.751 90.8925 151.019 89.6835C151.335 88.6485 151.814 87.6729 152.435 86.7948C153.551 85.1459 154.625 83.8428 155.317 82.6789C155.895 81.8227 156.313 80.8649 156.552 79.8534C156.614 79.5964 156.65 79.3335 156.659 79.069L156.684 78.8033C156.684 78.8033 156.684 78.8919 156.684 79.069C156.676 79.3345 156.643 79.5987 156.585 79.8576C156.351 80.8772 155.932 81.8428 155.35 82.7042C154.646 83.8766 153.58 85.1839 152.468 86.8328C151.851 87.7041 151.379 88.6746 151.072 89.7046C150.805 90.9008 150.805 92.1436 151.072 93.3398C151.303 94.6049 151.678 95.9417 152.011 97.346C152.191 98.068 152.328 98.8003 152.423 99.539C152.525 100.313 152.504 101.099 152.361 101.867C152.189 102.669 151.834 103.418 151.324 104.051C150.781 104.693 150.16 105.26 149.475 105.738C148.1 106.742 146.532 107.539 145.037 108.572C144.274 109.08 143.582 109.691 142.979 110.39C142.384 111.142 141.954 112.016 141.719 112.954C141.196 114.851 141.081 116.901 140.677 118.963C140.503 120.023 140.157 121.045 139.652 121.987C139.096 122.947 138.253 123.698 137.248 124.129C136.228 124.558 135.158 124.853 134.065 125.006C132.97 125.192 131.851 125.322 130.735 125.529C129.602 125.695 128.503 126.05 127.482 126.579C126.487 127.198 125.642 128.042 125.012 129.046C124.337 130.046 123.748 131.121 123.123 132.192C122.517 133.294 121.793 134.324 120.965 135.262C120.09 136.229 118.896 136.83 117.614 136.949C116.326 137.001 115.037 136.849 113.794 136.498C112.538 136.19 111.286 135.819 110.002 135.57C108.719 135.263 107.382 135.287 106.111 135.642C104.864 136.146 103.697 136.838 102.649 137.696C101.558 138.518 100.484 139.403 99.298 140.146C98.9892 140.314 98.6969 140.513 98.3758 140.652C98.2152 140.728 98.0588 140.808 97.8982 140.875L97.4001 141.057C96.7246 141.294 96.0072 141.38 95.2963 141.31L95.0287 141.289C94.9423 141.289 94.8558 141.251 94.7652 141.234C94.5923 141.192 94.4153 141.158 94.2465 141.107C93.9045 140.999 93.5702 140.866 93.2461 140.711C92.6 140.397 91.9804 140.029 91.3935 139.61C90.2119 138.767 89.1045 137.847 87.9147 137.017C87.3236 136.597 86.6998 136.227 86.0497 135.912C85.3919 135.612 84.6886 135.431 83.9706 135.376C82.5029 135.369 81.0422 135.584 79.6355 136.013C78.189 136.449 76.7123 136.772 75.2181 136.979C74.4546 137.055 73.6841 137.002 72.9373 136.823C72.1893 136.609 71.4991 136.222 70.92 135.692C69.7508 134.642 68.9521 133.263 68.1616 131.918C67.4292 130.527 66.5719 129.208 65.6009 127.979C65.0951 127.385 64.4865 126.892 63.8059 126.524C63.1043 126.183 62.3667 125.925 61.6075 125.757C60.076 125.411 58.4992 125.263 56.9265 124.972C56.1342 124.837 55.3556 124.629 54.6005 124.348C53.8346 124.061 53.1341 123.616 52.542 123.041C51.9801 122.426 51.5496 121.698 51.2781 120.903C51.0002 120.117 50.7948 119.307 50.6647 118.482C50.3765 116.842 50.253 115.172 49.8413 113.552C49.6704 112.741 49.3817 111.961 48.985 111.237C48.5683 110.522 48.0236 109.894 47.3794 109.386C46.1031 108.336 44.6293 107.543 43.2089 106.653C42.4924 106.21 41.8048 105.72 41.1505 105.186C40.4845 104.639 39.9257 103.968 39.5037 103.208C39.0972 102.431 38.893 101.559 38.9109 100.678C38.9206 99.8048 39.02 98.9355 39.2073 98.084C39.5572 96.3972 40.0801 94.7103 40.3518 93.0235C40.5072 92.1739 40.5336 91.3047 40.43 90.4468C40.3053 89.5944 40.026 88.7734 39.6066 88.0262C38.7832 86.508 37.647 85.1628 36.6466 83.7163C36.1252 82.9956 35.6691 82.2277 35.2839 81.4222C34.8651 80.6205 34.646 79.7253 34.646 78.816C34.646 77.9067 34.8651 77.0115 35.2839 76.2098C35.6638 75.4067 36.1159 74.6415 36.6342 73.9241C37.6346 72.4777 38.7503 71.1324 39.5902 69.6184C40.0092 68.8695 40.2884 68.0472 40.4135 67.1936C40.5096 66.3352 40.4819 65.467 40.3312 64.6169C40.0554 62.9301 39.5325 61.2432 39.1826 59.5564C38.9987 58.7058 38.9007 57.8382 38.8903 56.9671C38.8739 56.0851 39.0795 55.2137 39.4872 54.4368C39.912 53.6801 40.4704 53.0108 41.134 52.4632C41.7873 51.9273 42.475 51.437 43.1925 50.9956C44.6128 50.1058 46.0743 49.3088 47.3629 48.2629C48.0059 47.7547 48.5493 47.1266 48.9644 46.4116C49.3592 45.686 49.6464 44.9043 49.8166 44.0922C50.1995 42.4728 50.3312 40.807 50.64 39.1666C50.7687 38.3419 50.9727 37.5315 51.2493 36.7459C51.4976 35.9418 51.9297 35.2101 52.5097 34.6115C53.0897 34.013 53.8009 33.565 54.584 33.3048C55.3392 33.0245 56.1178 32.8156 56.9101 32.6806C58.4827 32.3897 60.0595 32.2589 61.591 31.9005C62.3488 31.7268 63.0859 31.4695 63.7895 31.1329C64.4681 30.7622 65.075 30.2677 65.5803 29.6738C66.5513 28.4451 67.4086 27.1265 68.1411 25.735C68.9315 24.3898 69.7302 23.0108 70.9035 21.9649C71.4855 21.4271 72.1818 21.0358 72.9373 20.8221C73.6843 20.6442 74.4546 20.5915 75.2181 20.666C76.7031 20.8694 78.1713 21.1852 79.6108 21.6107C81.0169 22.0431 82.4779 22.2591 83.9459 22.2517C84.6572 22.1936 85.3534 22.011 86.0044 21.7119C86.6567 21.4007 87.2808 21.0309 87.8694 20.607C89.0633 19.7636 90.1707 18.84 91.3523 18.0177C91.9382 17.5976 92.558 17.2294 93.2049 16.917C93.5286 16.7625 93.8613 16.6287 94.2012 16.5164C94.3741 16.4658 94.5512 16.4363 94.7241 16.3941L94.9834 16.3351H95.251C95.9619 16.2663 96.6788 16.3525 97.3548 16.5881L97.8529 16.7694C98.0135 16.8369 98.1699 16.917 98.3305 16.9929C98.6557 17.1363 98.948 17.3303 99.2527 17.499C100.442 18.2412 101.513 19.1268 102.608 19.9491C103.655 20.806 104.82 21.4982 106.066 22.0029C107.337 22.3595 108.674 22.3842 109.957 22.0746C111.241 21.83 112.493 21.4589 113.748 21.151C114.992 20.8008 116.28 20.6472 117.569 20.6956C118.851 20.8162 120.044 21.4168 120.92 22.3824C121.749 23.3223 122.474 24.3533 123.081 25.4567C123.707 26.5236 124.292 27.6032 124.967 28.5985C125.595 29.6048 126.44 30.4502 127.437 31.0697C128.457 31.6012 129.556 31.956 130.69 32.1198C131.805 32.3264 132.925 32.4571 134.02 32.6427C135.113 32.7979 136.182 33.0925 137.203 33.5198C138.208 33.9507 139.052 34.7 139.611 35.6579C140.114 36.6007 140.46 37.6225 140.636 38.6816C141.048 40.7438 141.155 42.7933 141.674 44.691C141.912 45.6273 142.341 46.5012 142.933 47.255C143.535 47.9557 144.228 48.5686 144.992 49.0768C146.486 50.11 148.059 50.9071 149.43 51.9107C150.115 52.3888 150.736 52.9558 151.278 53.5976C151.789 54.2299 152.146 54.977 152.32 55.7778C152.463 56.5467 152.484 57.3342 152.382 58.1099C152.287 58.8472 152.15 59.5781 151.97 60.2986C151.641 61.7071 151.262 63.0271 151.031 64.3091C150.763 65.5053 150.763 66.7481 151.031 67.9442C151.338 68.9743 151.809 69.9448 152.427 70.8161C153.534 72.4692 154.601 73.7681 155.309 74.9447C155.889 75.8067 156.308 76.7721 156.544 77.7912C156.602 78.0502 156.635 78.3143 156.643 78.5798C156.692 78.7317 156.692 78.8244 156.692 78.8244Z" fill="#263238"/>
<path d="M84.2753 136.793C84.3329 136.793 82.8138 143.119 80.883 150.887C78.9521 158.655 77.3383 164.942 77.2806 164.93C77.223 164.917 78.7422 158.604 80.673 150.832C82.6038 143.06 84.2341 136.759 84.2753 136.793Z" fill="#263238"/>
<path d="M95.7285 117.107C116.369 117.107 133.102 99.9676 133.102 78.8244C133.102 57.6812 116.369 40.5413 95.7285 40.5413C75.0877 40.5413 58.355 57.6812 58.355 78.8244C58.355 99.9676 75.0877 117.107 95.7285 117.107Z" fill="white"/>
<path d="M72.7148 65.5573C72.2002 66.0845 69.3677 71.3643 69.1084 75.7206C68.849 80.0769 69.4624 104.528 69.4624 104.528L69.5736 106.151C76.3006 114.21 100.755 126.204 122.781 106.109L124.016 91.0667L120.381 59.2232L107.742 56.0561L104.782 51.1432L85.0532 55.8748L83.2912 60.1341L72.7148 65.5573Z" fill="#455A64"/>
<path d="M103.427 38.34C104.296 35.0296 105.148 31.698 105.448 28.2864C105.749 24.8747 105.473 21.3492 104.148 18.2032C103.946 17.7267 102.278 14.5428 101.776 14.6229C101.418 14.6777 102.497 17.6719 102.332 17.9966C100.747 21.1468 100.459 24.8452 100.916 28.3581C101.387 31.7695 102.23 35.1162 103.427 38.3358" fill="#263238"/>
<path d="M103.098 25.2669C102.941 16.6766 97.9269 9.61293 89.5489 10.0136L88.7749 10.0979C85.0277 10.5026 81.5664 12.3372 79.0796 15.237C76.5928 18.1367 75.2627 21.8891 75.3538 25.7477C75.5349 33.1909 75.8231 41.4143 76.2801 45.37C77.2228 53.5554 85.3373 53.9687 85.3373 53.9687L85.7119 59.3539L89.1496 63.1789L105.086 53.0578L103.098 25.2669Z" fill="#FFBF9D"/>
<path d="M85.3579 54.0319C85.3579 54.0319 90.4341 53.7916 95.4526 49.7516C95.4526 49.7516 93.7729 57.1779 85.712 57.3002L85.3579 54.0319Z" fill="#FF9A6C"/>
<path d="M79.9608 32.4234C79.989 32.7312 80.1344 33.0153 80.3656 33.2142C80.5967 33.413 80.8949 33.5107 81.1958 33.4861C81.3424 33.4823 81.4867 33.4486 81.6203 33.3869C81.7539 33.3251 81.8741 33.2367 81.9738 33.1266C82.0736 33.0166 82.1508 32.8873 82.201 32.7462C82.2513 32.6052 82.2734 32.4552 82.2662 32.3053C82.237 31.9979 82.0913 31.7145 81.8604 31.5158C81.6295 31.3171 81.3318 31.219 81.0312 31.2426C80.8845 31.2457 80.7399 31.2791 80.606 31.3406C80.4721 31.4022 80.3517 31.4906 80.2518 31.6008C80.152 31.7109 80.0748 31.8405 80.0248 31.9818C79.9748 32.1231 79.953 32.2733 79.9608 32.4234V32.4234Z" fill="#263238"/>
<path d="M77.4163 28.9653C77.5727 29.1003 78.3714 28.3538 79.6024 28.2231C80.8333 28.0924 81.7967 28.6448 81.9161 28.455C81.9737 28.3834 81.8008 28.1219 81.3768 27.8689C80.8061 27.5502 80.1536 27.4192 79.5077 27.4935C78.8681 27.5611 78.2657 27.8341 77.7868 28.2737C77.4369 28.6153 77.3381 28.9021 77.4163 28.9653Z" fill="#263238"/>
<path d="M90.8253 31.4788C90.8535 31.7866 90.999 32.0707 91.2301 32.2695C91.4612 32.4684 91.7595 32.5661 92.0604 32.5415C92.2069 32.5377 92.3512 32.504 92.4848 32.4423C92.6184 32.3805 92.7386 32.292 92.8384 32.182C92.9381 32.072 93.0154 31.9427 93.0656 31.8016C93.1158 31.6606 93.138 31.5106 93.1308 31.3607C93.1025 31.0525 92.9572 30.768 92.7262 30.5685C92.4953 30.3689 92.197 30.2703 91.8957 30.2937C91.749 30.2981 91.6046 30.3323 91.4709 30.3945C91.3373 30.4567 91.2171 30.5456 91.1175 30.6559C91.0178 30.7663 90.9406 30.8959 90.8904 31.0372C90.8403 31.1785 90.8181 31.3286 90.8253 31.4788V31.4788Z" fill="#263238"/>
<path d="M89.5161 28.1725C89.6725 28.3117 90.4753 27.561 91.7021 27.4303C92.929 27.2996 93.9006 27.852 94.0159 27.6665C94.0735 27.5905 93.9047 27.3291 93.4807 27.0803C92.9091 26.76 92.2547 26.6288 91.6075 26.7049C90.9671 26.7696 90.3639 27.0431 89.8866 27.4851C89.5408 27.8225 89.442 28.1135 89.5161 28.1725Z" fill="#263238"/>
<path d="M86.099 38.3316C86.099 38.2599 85.3209 38.2051 84.0653 38.1755C83.7483 38.1755 83.4436 38.146 83.3695 37.9309C83.3074 37.6023 83.3462 37.2619 83.4807 36.9568L84.1558 34.4265C85.0863 30.7998 85.7244 27.8309 85.5844 27.793C85.4444 27.755 84.5675 30.6648 83.6371 34.2958L83.0031 36.8471C82.8481 37.2519 82.8364 37.6996 82.9702 38.1123C83.0264 38.2221 83.1064 38.3173 83.2042 38.3904C83.302 38.4635 83.4149 38.5126 83.5342 38.534C83.7133 38.5565 83.8944 38.5565 84.0735 38.534C85.3292 38.4792 86.1031 38.4033 86.099 38.3316Z" fill="#263238"/>
<path d="M89.8084 38.8123C89.6066 38.8123 89.7466 40.1871 88.705 41.2836C87.6634 42.38 86.2349 42.38 86.2349 42.574C86.2349 42.6584 86.5766 42.806 87.1818 42.7553C87.9613 42.6804 88.6901 42.3265 89.2402 41.7559C89.7653 41.2038 90.0605 40.4644 90.0636 39.6937C90.0842 39.116 89.8989 38.7955 89.8084 38.8123Z" fill="#263238"/>
<path d="M89.059 23.0529C89.2155 23.3818 90.4259 23.0866 91.8874 23.1119C93.3489 23.1373 94.5592 23.4114 94.7157 23.0824C94.7857 22.9264 94.551 22.627 94.0446 22.3444C93.3729 22.0108 92.636 21.8375 91.8894 21.8375C91.1429 21.8375 90.406 22.0108 89.7342 22.3444C89.2155 22.5975 88.989 22.8969 89.059 23.0529Z" fill="#263238"/>
<path d="M77.4946 24.7229C77.7375 24.9844 78.5568 24.5964 79.5736 24.4699C80.5905 24.3434 81.4757 24.4699 81.6321 24.1409C81.7062 23.9849 81.5415 23.7192 81.1381 23.4831C80.5976 23.213 79.991 23.1134 79.3952 23.1967C78.7993 23.28 78.2411 23.5426 77.791 23.9512C77.4699 24.2843 77.3834 24.5922 77.4946 24.7229Z" fill="#263238"/>
<path d="M103.069 31.4113C103.201 31.3353 108.396 29.1509 108.8 34.785C109.203 40.419 103.625 39.6515 103.588 39.4913C103.551 39.331 103.069 31.4113 103.069 31.4113Z" fill="#FFBF9D"/>
<path d="M105.111 37.2351C105.136 37.2351 105.21 37.2941 105.379 37.3574C105.613 37.4406 105.87 37.427 106.095 37.3194C106.659 37.058 107.079 36.0796 107.034 35.0633C107.015 34.5799 106.889 34.1071 106.667 33.6801C106.603 33.5085 106.499 33.3556 106.364 33.2344C106.229 33.1132 106.068 33.0273 105.893 32.9842C105.782 32.9616 105.666 32.9802 105.567 33.0365C105.467 33.0928 105.39 33.1834 105.35 33.2921C105.284 33.4566 105.329 33.5662 105.3 33.5789C105.272 33.5915 105.177 33.4903 105.202 33.2584C105.223 33.1158 105.291 32.9849 105.395 32.8872C105.538 32.7596 105.724 32.6945 105.914 32.7059C106.142 32.7336 106.36 32.8216 106.546 32.9613C106.731 33.101 106.878 33.2876 106.972 33.5029C107.242 33.9719 107.395 34.5022 107.416 35.0464C107.462 36.1808 106.972 37.2857 106.181 37.5767C106.037 37.6322 105.883 37.6538 105.73 37.64C105.577 37.6261 105.428 37.5771 105.296 37.4966C105.132 37.3701 105.095 37.2435 105.111 37.2351Z" fill="#FF9A6C"/>
<path d="M78.322 16.1832C77.404 15.7362 79.8865 12.6113 82.0273 11.4516C85.2344 9.70151 90.2158 8.42372 93.3159 9.10689C97.05 9.95032 100.212 11.595 102.266 14.8928C104.32 18.1906 105.263 22.1252 105.403 26.0344C105.444 27.2279 105.403 28.4762 104.843 29.522C104.156 30.8167 102.731 31.698 102.904 33.4102C102.945 33.7193 102.926 34.0338 102.847 34.3351C102.767 34.6363 102.63 34.9183 102.443 35.1645C101.504 36.3284 100.212 35.3796 99.5819 34.3844C98.2356 32.2758 97.9351 29.6401 97.6716 27.1182C97.4822 25.3302 97.297 23.4999 97.6716 21.7456C97.8775 20.7883 98.2562 19.8732 98.4127 18.9075C98.5691 17.9418 98.4744 16.8664 97.8486 16.1242C97.7028 15.9685 97.5429 15.8273 97.3711 15.7025C96.5611 15.0657 95.5999 14.6619 94.5866 14.5329C93.5734 14.4039 92.5449 14.5544 91.6074 14.9687C88.5814 16.2929 83.4064 18.3171 81.9573 17.3303C79.8782 15.9133 79.3348 14.9181 79.3348 14.9181L78.322 16.1832Z" fill="#263238"/>
<path d="M72.715 65.5573C72.398 66.0086 67.8982 67.5394 66.1896 70.4534C64.4811 73.3675 62.7932 86.449 62.7932 86.449L61.7063 95.0435C63.8471 98.51 66.7207 103.102 69.7672 106.341L72.715 65.5573Z" fill="#455A64"/>
<g opacity="0.3">
<path d="M106.527 78.175C106.649 79.9388 106.975 81.6815 107.499 83.3663C108.088 85.0236 109.121 86.5839 110.632 87.44C111.262 87.7943 111.974 88.0304 112.505 88.5365C113.036 89.0425 113.357 89.8606 113.872 90.4553C114.516 91.1092 115.31 91.5864 116.182 91.8427C118.634 92.7639 121.236 93.1934 123.847 93.1078C123.93 92.2054 123.934 88.8907 124.016 87.984L106.527 78.175Z" fill="black"/>
</g>
<path d="M120.381 59.2232C120.381 59.2232 126.054 60.9438 127.717 63.4192C129.38 65.8947 132.324 75.4929 132.929 77.2725C133.534 79.0521 133.003 83.1765 131.871 86.1285C130.739 89.0805 128.771 91.6487 125.375 92.0324C121.978 92.4162 116.61 90.4089 115.399 89.0805C114.189 87.7521 113.691 84.8127 113.691 84.8127C115.199 84.5419 116.686 84.16 118.141 83.6699" fill="#455A64"/>
<path d="M118.141 83.6994L118.071 83.729L117.857 83.8091C117.667 83.8766 117.383 83.9735 117.009 84.0874C115.926 84.419 114.827 84.6893 113.715 84.8971L113.761 84.8338C113.899 85.5584 114.093 86.2705 114.341 86.9635C114.477 87.3563 114.64 87.7383 114.831 88.1063C115.026 88.4996 115.284 88.8572 115.593 89.1648C115.941 89.4712 116.326 89.7319 116.737 89.9408C117.172 90.1745 117.618 90.3843 118.075 90.5691C119.055 90.9705 120.062 91.2975 121.089 91.5475C122.197 91.826 123.332 91.9746 124.473 91.9903C124.77 91.993 125.067 91.9789 125.362 91.9481C125.66 91.9132 125.956 91.8597 126.247 91.7879C126.845 91.6501 127.42 91.4213 127.952 91.1089C129.059 90.4529 129.989 89.5237 130.656 88.4057C131.362 87.2448 131.903 85.9867 132.262 84.6694C132.555 83.6571 132.774 82.6239 132.917 81.5782C133.07 80.5657 133.119 79.5396 133.065 78.5166C133.032 78.0244 132.934 77.5391 132.772 77.0743C132.616 76.602 132.464 76.1339 132.316 75.67L131.43 72.9584C130.846 71.1957 130.269 69.5299 129.693 67.9822C129.187 66.542 128.577 65.1423 127.869 63.7946C127.542 63.2218 127.105 62.7226 126.585 62.327C126.131 61.9575 125.649 61.6261 125.144 61.336C124.332 60.8614 123.492 60.4389 122.628 60.0709C121.92 59.7715 121.36 59.5606 120.982 59.4214L120.549 59.2654C120.498 59.2513 120.448 59.2316 120.401 59.2064C120.453 59.2133 120.504 59.226 120.553 59.2443L120.994 59.3793C121.381 59.5058 121.949 59.704 122.665 59.9907C123.536 60.3428 124.384 60.7498 125.206 61.2095C125.72 61.4995 126.212 61.8309 126.675 62.2005C127.211 62.6032 127.662 63.1123 128.001 63.6976C128.725 65.0527 129.347 66.4625 129.862 67.9147C130.451 69.4582 131.031 71.1282 131.62 72.8909C131.912 73.7723 132.208 74.679 132.513 75.6025C132.665 76.0622 132.818 76.5303 132.97 77.0026C133.139 77.4834 133.243 77.9857 133.279 78.4955C133.337 79.5338 133.289 80.5756 133.135 81.6035C132.989 82.6605 132.768 83.7049 132.472 84.7284C132.104 86.0681 131.55 87.3465 130.825 88.5238C130.139 89.6716 129.182 90.6243 128.042 91.2945C127.493 91.6144 126.901 91.8489 126.284 91.9903C125.984 92.0634 125.681 92.1184 125.374 92.1548C125.07 92.1548 124.765 92.2096 124.469 92.1969C123.312 92.1754 122.162 92.0198 121.039 91.7331C120.003 91.4786 118.988 91.1445 118.001 90.7336C117.541 90.5432 117.092 90.3278 116.655 90.0884C116.231 89.871 115.836 89.6005 115.477 89.2829C115.159 88.9599 114.894 88.5851 114.695 88.1738C114.504 87.8002 114.34 87.4125 114.205 87.0141C113.964 86.3087 113.775 85.5855 113.641 84.8507V84.7959H113.695C115.144 84.5386 116.255 84.2477 117.009 84.0368L117.865 83.788L118.083 83.7247C118.116 83.6994 118.141 83.6952 118.141 83.6994Z" fill="#263238"/>
<path d="M128.553 80.5914C128.512 80.5914 128.38 79.8745 127.906 78.8033C127.284 77.4109 126.416 76.1484 125.346 75.0796C124.752 74.5012 124.081 74.0127 123.353 73.6289L122.855 73.4012C122.69 73.3253 122.517 73.2916 122.361 73.2367C122.065 73.1412 121.76 73.0762 121.451 73.0427L121.245 73.0132H120.685C120.492 73.0102 120.299 73.0272 120.109 73.0638C119.944 73.0979 119.775 73.1162 119.607 73.1187C119.763 73.0525 119.926 73.0058 120.092 72.9795C120.284 72.9238 120.482 72.894 120.681 72.8909H121.052H121.253L121.468 72.9162C121.787 72.939 122.103 72.9955 122.41 73.0849C122.583 73.1292 122.753 73.1827 122.921 73.2452L123.44 73.4729C124.195 73.855 124.889 74.3527 125.498 74.9489C126.592 76.0319 127.459 77.3319 128.046 78.7696C128.151 79.0141 128.242 79.2648 128.318 79.5203C128.382 79.7123 128.434 79.908 128.475 80.1064C128.516 80.2652 128.542 80.4276 128.553 80.5914Z" fill="#263238"/>
<path d="M131.649 75.3748C131.415 74.761 131.128 74.1697 130.792 73.6078C129.939 72.2739 128.662 71.2831 127.178 70.8035C125.436 70.2594 123.744 70.4281 122.563 70.542L121.151 70.7149C120.979 70.7465 120.806 70.7621 120.632 70.7613C120.795 70.6962 120.965 70.6522 121.138 70.6305C121.468 70.5631 121.962 70.4745 122.546 70.3902C124.107 70.1108 125.708 70.1799 127.24 70.5926C128.078 70.8509 128.857 71.2813 129.529 71.8577C130.078 72.3362 130.548 72.9031 130.92 73.5361C131.175 73.9516 131.378 74.3978 131.525 74.8645C131.585 75.0292 131.627 75.2004 131.649 75.3748V75.3748Z" fill="#263238"/>
<path d="M127.371 69.1377C125.152 68.6017 122.832 68.695 120.661 69.4076C120.945 69.2173 121.258 69.0749 121.587 68.9859C122.366 68.7405 123.173 68.5988 123.987 68.5641C124.802 68.5346 125.616 68.6111 126.412 68.7919C126.747 68.8574 127.07 68.974 127.371 69.1377Z" fill="#263238"/>
<path d="M118.191 60.6739C118.223 60.6739 118.141 61.2685 118.075 62.2216C117.903 64.6628 118.108 67.1166 118.685 69.4919L118.536 69.5425C118.368 69.0575 118.236 68.6611 118.149 68.3828C118.096 68.2471 118.057 68.1056 118.034 67.9611C118.118 68.092 118.184 68.2339 118.232 68.3828C118.343 68.6485 118.495 69.0365 118.685 69.5172L118.536 69.5636C118.21 68.3967 117.994 67.2007 117.89 65.9917C117.782 64.7411 117.793 63.4827 117.923 62.2342C117.976 61.7577 118.038 61.3908 118.088 61.1083C118.101 60.9592 118.136 60.8129 118.191 60.6739V60.6739Z" fill="#263238"/>
<path d="M110.167 49.857C110.167 49.857 107.223 49.857 106.852 53.4795C106.568 56.2628 106.852 58.9617 106.852 60.1847C106.852 61.4077 106.33 65.7387 106.33 65.7387C106.33 65.7387 104.32 67.5647 104.353 69.7576C104.386 71.9505 105.918 72.6337 105.918 72.6337C105.661 73.3132 105.605 74.055 105.755 74.7671C105.906 75.4792 106.257 76.1304 106.766 76.6399C106.766 76.6399 105.914 78.6599 106.614 80.0136C107.017 80.687 107.647 81.1863 108.384 81.4179C108.263 81.6844 108.2 81.9744 108.198 82.2682C108.195 82.562 108.255 82.8528 108.372 83.121C108.489 83.3892 108.661 83.6286 108.876 83.823C109.091 84.0173 109.345 84.1621 109.619 84.2476C110.608 84.5614 111.644 84.6914 112.678 84.6314L114.876 84.5892L116.811 85.6857C116.811 85.6857 120.13 84.2055 120.212 82.2023L120.298 80.1992C120.298 80.1992 119.347 76.9098 119.269 75.8555C119.191 74.8013 120.035 72.2836 119.524 71.1535C119.014 70.0233 117.231 69.357 117.4 67.7798C117.569 66.2025 117.231 65.3254 116.465 64.4524C115.7 63.5795 112.32 61.842 112.32 61.842C112.32 61.842 111.451 59.3118 111.451 57.5785C111.451 55.8453 113.143 50.5191 110.167 49.857Z" fill="#FFBF9D"/>
<path d="M112.151 62.4999C111.898 62.7121 111.621 62.8932 111.327 63.0397C110.809 63.3518 110.092 63.7651 109.269 64.2121C108.446 64.6591 107.729 65.0555 107.211 65.3296C106.93 65.5032 106.632 65.6447 106.321 65.7513C106.573 65.5368 106.85 65.3542 107.145 65.2073C107.663 64.8953 108.38 64.482 109.203 64.035C110.027 63.588 110.743 63.1916 111.262 62.9174C111.541 62.7438 111.84 62.6037 112.151 62.4999V62.4999Z" fill="#FF9A6C"/>
<path d="M114.086 69.319C114.086 69.319 114.004 69.416 113.827 69.5552C113.581 69.7528 113.325 69.9372 113.061 70.1076C112.192 70.6783 111.267 71.1559 110.303 71.533C109.338 71.9163 108.338 72.1989 107.318 72.3764C106.906 72.4397 106.606 72.4776 106.387 72.4903C106.273 72.5122 106.156 72.5122 106.042 72.4903C106.042 72.4565 106.519 72.3891 107.277 72.2246C108.276 72.0096 109.257 71.7163 110.212 71.3474C111.165 70.9698 112.087 70.5158 112.97 69.9895C113.331 69.7467 113.703 69.5229 114.086 69.319V69.319Z" fill="#FF9A6C"/>
<path d="M116.614 67.1472C116.667 67.1683 116.556 67.5689 116.202 67.8767C115.848 68.1846 115.469 68.2774 115.457 68.2225C115.445 68.1677 115.749 68.0075 116.058 67.7123C116.367 67.4171 116.556 67.1219 116.614 67.1472Z" fill="#FF9A6C"/>
<path d="M115.399 75.2863C115.004 75.483 114.59 75.6384 114.164 75.7501C113.151 76.0588 112.12 76.2997 111.076 76.4713C110.033 76.6454 108.98 76.7469 107.923 76.7749C107.485 76.8095 107.045 76.7954 106.61 76.7327C107.042 76.6697 107.478 76.6331 107.915 76.6231C108.738 76.564 109.829 76.4544 111.044 76.2562C112.258 76.058 113.341 75.8007 114.123 75.5983C114.542 75.4689 114.968 75.3647 115.399 75.2863Z" fill="#FF9A6C"/>
<path d="M118.092 74.8013C118.154 74.5817 118.23 74.3662 118.318 74.1561C118.481 73.6409 118.536 73.0962 118.479 72.5578C118.413 72.0197 118.233 71.503 117.952 71.0438C117.818 70.8605 117.696 70.6689 117.585 70.4703C117.585 70.4492 117.82 70.6052 118.079 70.9553C118.412 71.4179 118.622 71.9611 118.688 72.5318C118.755 73.1025 118.675 73.6811 118.458 74.2109C118.289 74.5946 118.112 74.8013 118.092 74.8013Z" fill="#FF9A6C"/>
<path d="M115.564 81.3926C115.227 81.52 114.876 81.6049 114.518 81.6457C113.663 81.7839 112.799 81.853 111.933 81.8523C111.065 81.8507 110.199 81.776 109.343 81.6288C108.986 81.5875 108.635 81.5011 108.298 81.3716C108.655 81.378 109.012 81.4132 109.364 81.477C110.217 81.5757 111.074 81.6278 111.933 81.633C112.79 81.6312 113.646 81.5833 114.498 81.4896C114.85 81.4282 115.207 81.3958 115.564 81.3926V81.3926Z" fill="#FF9A6C"/>
<path d="M110.327 57.6207C110.327 57.646 110.191 57.7599 109.915 57.8611C109.552 57.9854 109.167 58.0256 108.787 57.979C108.406 57.9323 108.041 57.7999 107.717 57.5912C107.47 57.4267 107.355 57.2834 107.371 57.2623C107.826 57.4964 108.311 57.664 108.812 57.7599C109.321 57.7876 109.831 57.7408 110.327 57.6207Z" fill="#FF9A6C"/>
<path d="M118.701 75.0417C118.738 75.1456 118.755 75.2559 118.75 75.3664C118.75 75.6661 118.716 75.9648 118.647 76.2562C118.569 76.6231 118.433 77.049 118.302 77.5214C118.142 78.0155 118.09 78.5395 118.149 79.0564C118.219 79.592 118.61 80.0221 118.672 80.5661C118.714 81.026 118.599 81.4865 118.347 81.8692C118.193 82.123 118.016 82.3603 117.816 82.5777C117.676 82.7337 117.589 82.8096 117.577 82.8012C117.565 82.7928 117.861 82.4301 118.215 81.7933C118.428 81.4343 118.519 81.0132 118.475 80.5956C118.425 80.136 118.03 79.7058 117.935 79.0943C117.873 78.545 117.933 77.9883 118.112 77.4665C118.256 76.99 118.405 76.5725 118.499 76.2014C118.594 75.8204 118.662 75.4328 118.701 75.0417V75.0417Z" fill="#FF9A6C"/>
<path d="M119.809 77.69C119.876 77.8136 119.923 77.9474 119.948 78.0864C120.023 78.3437 120.121 78.7232 120.212 79.1955C120.324 79.7512 120.39 80.3154 120.41 80.8824C120.445 81.5913 120.318 82.299 120.039 82.9488C119.715 83.571 119.286 84.1293 118.771 84.5977C118.362 84.9798 117.925 85.3307 117.466 85.6477C117.075 85.9218 116.746 86.1243 116.515 86.255C116.402 86.3336 116.278 86.396 116.149 86.4405C116.128 86.411 116.622 86.0905 117.384 85.5212C117.825 85.192 118.246 84.8342 118.643 84.4501C119.133 83.9917 119.542 83.4512 119.854 82.8518C120.118 82.2314 120.243 81.5586 120.22 80.8824C120.211 80.3241 120.161 79.7674 120.072 79.2166C119.911 78.2762 119.776 77.6984 119.809 77.69Z" fill="#263238"/>
<path d="M88.7463 63.6512C88.575 63.548 88.4149 63.4264 88.2687 63.2885L87.0337 62.23L86.1773 61.492C86.031 61.3518 85.8678 61.2313 85.6915 61.1336C85.6062 61.0888 85.5116 61.0654 85.4157 61.0654C85.3198 61.0654 85.2252 61.0888 85.1399 61.1336C84.7858 61.3233 84.547 61.7872 84.2465 62.1752C83.946 62.5632 83.6495 63.0186 83.3367 63.4403C82.8426 64.1235 82.3609 64.7772 81.9204 65.3844L81.6528 65.7471L81.7393 65.3001C81.9753 64.046 82.3183 62.8155 82.7644 61.6228C82.9291 61.201 83.0773 60.8384 83.1761 60.6064C83.2224 60.4818 83.2847 60.3641 83.3614 60.2564C83.3331 60.3851 83.2931 60.5107 83.242 60.6317C83.1555 60.8721 83.0279 61.2221 82.8797 61.6691C82.4771 62.8679 82.162 64.0957 81.9369 65.3423L81.7516 65.2579L83.1637 63.3096L84.0736 62.0445L84.51 61.4499C84.6485 61.2386 84.835 61.065 85.0534 60.9438C85.1678 60.8924 85.2921 60.8684 85.417 60.8735C85.5418 60.8786 85.6638 60.9127 85.7739 60.9733C85.9609 61.0812 86.1338 61.213 86.2885 61.3655L87.1119 62.1246L88.314 63.2337C88.4686 63.361 88.6132 63.5006 88.7463 63.6512V63.6512Z" fill="#263238"/>
<path d="M106.128 60.0877C106.08 60.1432 106.026 60.1927 105.967 60.2353L105.482 60.6233L103.666 62.0192L97.61 66.5863L97.5194 66.6538L97.4577 66.5568C97.4083 66.4809 97.3589 66.3966 97.3054 66.3164L94.2671 61.3993L94.3782 61.4372C93.2075 61.9136 92.0781 62.4906 91.0023 63.162C90.6153 63.4024 90.3148 63.5837 90.109 63.7398C90.0089 63.817 89.9013 63.8834 89.7878 63.938C89.8751 63.8449 89.9717 63.7615 90.076 63.6892C90.2736 63.5416 90.5659 63.3265 90.9488 63.0692C92.0109 62.3611 93.1357 61.7568 94.3082 61.2643L94.3782 61.2348L94.4194 61.298C95.3128 62.7192 96.3626 64.4019 97.4865 66.1984C97.54 66.2785 97.5894 66.3628 97.6388 66.4387L97.4824 66.4092L103.58 61.8969L105.432 60.5516L105.943 60.1974C106.062 60.1172 106.124 60.0793 106.128 60.0877Z" fill="#263238"/>
<path d="M69.1784 76.8592C69.1972 76.9564 69.2055 77.0554 69.2031 77.1544C69.2031 77.3737 69.2031 77.6563 69.2237 77.9978C69.2237 78.7611 69.2607 79.8281 69.2813 81.1354C69.3307 83.7837 69.4336 87.4611 69.5695 91.4884C69.7054 95.5158 69.7836 99.1931 69.7918 101.846C69.7918 103.174 69.7918 104.245 69.7918 104.987C69.7918 105.337 69.7918 105.624 69.7712 105.831C69.7757 105.931 69.7688 106.032 69.7506 106.13C69.7447 106.031 69.7447 105.931 69.7506 105.831C69.7506 105.616 69.7506 105.329 69.7259 104.987C69.7259 104.22 69.693 103.153 69.6683 101.85C69.623 99.1973 69.516 95.5242 69.3842 91.4926C69.2525 87.4611 69.1702 83.788 69.1619 81.1354C69.1619 79.8112 69.1619 78.7358 69.1619 77.9978C69.1619 77.6436 69.1619 77.3611 69.1619 77.1544C69.1612 77.0558 69.1667 76.9572 69.1784 76.8592V76.8592Z" fill="#263238"/>
<path d="M88.8822 114.948C88.8684 114.91 88.8601 114.871 88.8575 114.83C88.8575 114.737 88.8575 114.619 88.8204 114.472C88.7875 114.139 88.7422 113.679 88.6887 113.093C88.5734 111.895 88.4417 110.141 88.3099 108.011C88.1782 105.881 88.067 103.301 87.997 100.458C87.927 97.6159 87.9188 94.4826 87.997 91.1806C88.0752 87.8786 88.2193 84.7706 88.4087 81.9324C88.5981 79.0943 88.8204 76.5387 89.0427 74.4006C89.265 72.2626 89.4544 70.5293 89.6356 69.3401C89.7179 68.7539 89.7797 68.2985 89.8249 67.9695C89.8496 67.8219 89.8661 67.7038 89.8826 67.6111C89.8846 67.5706 89.8929 67.5307 89.9073 67.493C89.9137 67.5335 89.9137 67.5748 89.9073 67.6153C89.9073 67.7081 89.8867 67.8261 89.8744 67.9737C89.8373 68.3027 89.7879 68.7623 89.722 69.3485C89.582 70.5462 89.4009 72.2752 89.1992 74.4091C88.9974 76.5429 88.7875 79.1027 88.6105 81.9409C88.4334 84.779 88.2976 87.9039 88.2235 91.1848C88.1494 94.4657 88.1699 97.5906 88.2235 100.433C88.277 103.275 88.3799 105.831 88.4952 107.977C88.6105 110.124 88.7134 111.866 88.8039 113.063C88.841 113.649 88.8739 114.113 88.8945 114.446C88.8945 114.594 88.8945 114.712 88.9151 114.805C88.908 114.854 88.897 114.902 88.8822 114.948V114.948Z" fill="#263238"/>
<path d="M76.6137 45.9224L76.1773 46.2176L74.8928 47.061C74.3247 47.4363 73.6578 47.9719 72.8755 48.5623C72.4639 48.8659 72.0851 49.2328 71.6405 49.6039L70.9694 50.1817C70.7389 50.3841 70.5207 50.6034 70.286 50.8353C68.009 53.0111 66.0089 55.4722 64.3329 58.1605L63.6001 59.3666C63.3407 59.7672 63.1431 60.21 62.9043 60.6317C62.6656 61.0534 62.4309 61.5089 62.2168 61.9728C62.0027 62.4367 61.8051 62.9132 61.5828 63.3939C61.4799 63.6343 61.3646 63.8705 61.2658 64.1193C61.167 64.3681 61.0805 64.6211 60.9859 64.8784C60.8006 65.3844 60.603 65.8947 60.4218 66.4218C60.1172 67.4888 59.7302 68.5684 59.4996 69.7196C58.326 74.7009 58.1301 79.8714 58.9233 84.9308C59.9554 91.446 62.6188 97.5759 66.6535 102.722C70.6881 107.869 75.9563 111.856 81.9439 114.295C87.9315 116.733 94.4341 117.541 100.817 116.637C107.2 115.734 113.246 113.152 118.363 109.141C119.656 108.124 120.885 107.025 122.044 105.852L122.867 104.958C123.147 104.663 123.419 104.363 123.691 104.047L124.473 103.124C124.72 102.803 124.963 102.483 125.21 102.166C128.934 97.2529 131.418 91.4751 132.443 85.3441C132.684 83.9207 132.848 82.4846 132.933 81.0426C132.974 80.3299 132.974 79.6257 132.999 78.9341C133.024 78.2425 132.95 77.5382 132.925 76.8508C132.925 76.5092 132.896 76.1634 132.884 75.8218C132.872 75.4802 132.81 75.1471 132.777 74.8097C132.695 74.1392 132.616 73.4729 132.538 72.815C132.46 72.1571 132.291 71.5161 132.168 70.8751C132.064 70.2395 131.927 69.6102 131.756 68.9901L131.245 67.1641C131.165 66.8645 131.068 66.5702 130.953 66.2827C130.846 65.9917 130.739 65.7007 130.636 65.414C130.418 64.8446 130.224 64.2627 129.99 63.7271C129.755 63.1915 129.5 62.6475 129.257 62.1204C127.466 58.3077 125.065 54.8295 122.151 51.8306C119.944 49.5839 117.481 47.6172 114.815 45.973L113.242 45.0494C113.005 44.9069 112.76 44.7774 112.509 44.6615L111.818 44.3241L110.583 43.7253C110.212 43.5313 109.846 43.4216 109.537 43.3036L108.104 42.7385L107.618 42.536L108.112 42.7174L109.549 43.2656C109.862 43.3921 110.228 43.5018 110.603 43.6873L111.838 44.2777L112.534 44.6151C112.786 44.728 113.032 44.8547 113.271 44.9946L114.848 45.914C117.531 47.5478 120.01 49.5106 122.229 51.7589C125.16 54.7557 127.579 58.2354 129.385 62.0529C129.627 62.5885 129.874 63.1241 130.126 63.6723C130.377 64.2205 130.537 64.7983 130.776 65.3591L131.097 66.2279C131.212 66.5168 131.309 66.8125 131.389 67.1135C131.562 67.7207 131.735 68.328 131.908 68.9479C132.087 69.5703 132.231 70.2025 132.34 70.8414C132.464 71.4824 132.612 72.1065 132.719 72.7855C132.826 73.4644 132.876 74.1181 132.958 74.7928C132.995 75.1302 133.049 75.4676 133.069 75.8092C133.09 76.1508 133.098 76.4966 133.11 76.8424C133.135 77.534 133.172 78.2298 133.189 78.9509C133.205 79.6721 133.168 80.3637 133.123 81.0595C132.702 88.7791 129.998 96.1848 125.371 102.293L124.621 103.254L123.831 104.186C123.576 104.502 123.3 104.806 123.007 105.101L122.184 106.004C121.018 107.184 119.78 108.288 118.479 109.31C113.336 113.337 107.262 115.93 100.85 116.837C94.4377 117.744 87.9053 116.933 81.8898 114.484C75.8743 112.035 70.5809 108.031 66.5256 102.863C62.4703 97.6949 59.7915 91.5385 58.7504 84.9941C58.3326 82.356 58.1946 79.6795 58.3387 77.0111C58.4425 74.5497 58.7887 72.1055 59.372 69.7154C59.6026 68.5599 59.9937 67.4803 60.2983 66.405C60.4836 65.8821 60.6853 65.3676 60.8747 64.8573C60.9694 64.6043 61.0641 64.3512 61.1547 64.0982C61.2452 63.8452 61.3728 63.6132 61.4758 63.3686C61.694 62.8879 61.8875 62.4156 62.1139 61.9475C62.3403 61.4794 62.5832 61.045 62.8097 60.6022C63.0361 60.1594 63.2502 59.7208 63.5095 59.316L64.2506 58.1099C65.9354 55.4175 67.9514 52.9584 70.2489 50.7932C70.4836 50.5697 70.7018 50.3419 70.9324 50.1395L71.6075 49.5618C72.0522 49.1949 72.4309 48.8322 72.8426 48.5286C73.6454 47.9382 74.3041 47.411 74.8764 47.0399L76.1732 46.1965C76.4532 46.011 76.6137 45.9224 76.6137 45.9224Z" fill="#263238"/>
</svg>
