<svg width="136" height="138" viewBox="0 0 136 138" fill="none" xmlns="http://www.w3.org/2000/svg">
<path d="M99.025 15.1184L103.619 8.4103L96.1527 11.7659L96.5681 1.53385L90.7368 8.23579L85.9187 0.235718L83.5933 9.32573L76.2945 8.45622L81.1365 16.3216L72.929 22.1816L83.148 19.7659L83.4768 28.0722L90.3004 22.4663L97.4648 28.6294L96.598 20.5344L105.61 19.7935L99.025 15.1184Z" fill="white"/>
<path d="M99.0251 15.1184C99.0251 15.1184 99.1656 15.2255 99.4465 15.4245L100.708 16.343L105.583 19.8394L105.604 19.7537L96.5921 20.4701H96.5294V20.5375C96.7834 22.9623 97.0734 25.6964 97.3842 28.6355L97.5067 28.5682L90.3334 22.3959L90.2796 22.35L90.2258 22.3959L83.3992 27.9956L83.5486 28.063C83.444 25.43 83.3334 22.6317 83.2228 19.7598V19.6496L83.1182 19.668C79.941 20.213 76.3184 21.4897 72.8962 22.0806L72.9649 22.2612C75.356 20.6998 78.1835 18.3484 80.757 16.6768L81.1754 16.4043L81.2591 16.3492L81.2053 16.2665L76.3752 8.40421L76.2826 8.55422L83.5815 9.42373H83.6652L83.6861 9.34107C84.4831 6.21615 85.2572 3.18513 86.0085 0.247993L85.8411 0.275548L90.6652 8.27255L90.7249 8.37359L90.7997 8.2848L96.625 1.57675L96.4905 1.52164C96.3411 5.30276 96.2096 8.72262 96.09 11.7536V11.8547L96.1827 11.8149L103.655 8.44707L103.601 8.37971C102.107 10.5749 100.971 12.2588 100.194 13.4008L99.312 14.6836C99.1178 14.9714 99.0131 15.1153 99.0131 15.1153C99.0131 15.1153 99.1207 14.9684 99.312 14.6806L100.209 13.4008L103.643 8.43176L103.736 8.29705L103.586 8.3644L96.1139 11.7016L96.2006 11.7628C96.3291 8.73486 96.4726 5.31501 96.631 1.53388V1.31344L96.4905 1.47877C94.6633 3.57294 92.7175 5.80487 90.6532 8.17458H90.7877L85.9965 0.18676L85.8859 0L85.8321 0.211253C85.0789 3.14022 84.3018 6.17023 83.5008 9.30126L83.6024 9.22779L76.3065 8.35828L76.1033 8.33379L76.2108 8.5083C77.795 11.0801 79.409 13.7029 81.0529 16.3767L81.0857 16.2359L80.6673 16.5084C78.0939 18.1831 75.2873 20.5344 72.8752 22.0959L72.4688 22.3622L72.944 22.2796C76.3633 21.6887 79.9888 20.412 83.163 19.8639L83.0524 19.7721C83.169 22.6439 83.2826 25.4422 83.3872 28.0752V28.2589L83.5247 28.1426L90.3424 22.5337H90.2348C92.7933 24.7258 95.2083 26.8016 97.4081 28.6906L97.5516 28.8131L97.5307 28.6233C97.2108 25.6841 96.9149 22.9531 96.6519 20.5283L96.5951 20.5987L105.604 19.8394H105.732L105.625 19.766L100.75 16.3216L99.4704 15.4245L99.0251 15.1184Z" fill="#263238"/>
<path d="M91.4065 11.224L91.1076 15.9542C91.0963 16.1412 91.0186 16.3176 90.8893 16.4501C90.7599 16.5826 90.5878 16.6621 90.4052 16.6737C90.2128 16.6859 90.0233 16.6218 89.8758 16.4947C89.7283 16.3676 89.6343 16.1872 89.6131 15.991L89.102 11.2362C89.0945 11.1513 89.1044 11.0657 89.1311 10.9849C89.1578 10.9042 89.2006 10.83 89.2569 10.7672C89.3132 10.7043 89.3816 10.6542 89.4579 10.6201C89.5342 10.5859 89.6166 10.5684 89.6998 10.5688H90.8266C90.9073 10.5711 90.9866 10.59 91.0599 10.6245C91.1332 10.6591 91.1989 10.7084 91.2531 10.7696C91.3072 10.8308 91.3488 10.9027 91.3751 10.9807C91.4015 11.0588 91.4122 11.1416 91.4065 11.224V11.224Z" fill="#2C83E7"/>
<path d="M89.1856 19.3343C89.2561 19.5508 89.3876 19.7411 89.5635 19.881C89.7395 20.021 89.952 20.1044 90.1743 20.1207C90.3965 20.137 90.6184 20.0855 90.8121 19.9726C91.0057 19.8597 91.1623 19.6905 91.2621 19.4865C91.3619 19.2824 91.4004 19.0527 91.3728 18.8262C91.3452 18.5998 91.2526 18.3868 91.1068 18.2142C90.961 18.0416 90.7686 17.9172 90.5538 17.8566C90.339 17.796 90.1115 17.802 89.9 17.8739C89.6166 17.971 89.3823 18.1792 89.2484 18.4529C89.1145 18.7267 89.0919 19.0436 89.1856 19.3343V19.3343Z" fill="#2C83E7"/>
<path d="M65.8576 35.0558L64.2256 16.9094C64.1599 11.8485 61.2368 7.66938 56.2931 7.87757L55.8388 7.9235C53.6282 8.14939 51.5817 9.22008 50.1072 10.9223C48.6327 12.6245 47.8383 14.8332 47.8824 17.1084C47.9631 21.4927 48.1065 26.3362 48.3636 28.6661C48.8896 33.4943 54.443 33.6597 54.443 33.6597L55.0408 37.8694C55.0408 37.8694 57.4319 39.3298 60.908 38.7022C64.677 38.0164 65.8576 35.0558 65.8576 35.0558Z" fill="#FFBE9D"/>
<path d="M54.4338 33.6444C56.6255 33.4235 58.7089 32.5616 60.4355 31.1614C60.4355 31.1614 59.3595 34.7864 54.6102 34.8353L54.4338 33.6444Z" fill="#EB996E"/>
<path d="M50.0999 20.6967C50.1196 20.8738 50.2051 21.0362 50.3387 21.1503C50.4723 21.2644 50.6437 21.3212 50.8173 21.309C50.9038 21.3079 50.9891 21.2889 51.0683 21.2532C51.1474 21.2175 51.2187 21.1658 51.2778 21.1012C51.337 21.0366 51.3828 20.9604 51.4126 20.8772C51.4423 20.7941 51.4554 20.7056 51.4509 20.6171C51.4349 20.4371 51.3511 20.2705 51.2171 20.1527C51.0832 20.035 50.9098 19.9753 50.7336 19.9864C50.6458 19.9883 50.5592 20.0084 50.4792 20.0455C50.3992 20.0827 50.3274 20.1361 50.2682 20.2025C50.2089 20.2689 50.1635 20.347 50.1345 20.4319C50.1056 20.5169 50.0939 20.607 50.0999 20.6967Z" fill="#263238"/>
<path d="M49.1256 19.3587C49.2183 19.4414 49.6905 19.0005 50.4168 18.9301C51.1431 18.8597 51.708 19.175 51.7797 19.074C51.8126 19.0311 51.711 18.8781 51.4629 18.728C51.1283 18.537 50.7437 18.4577 50.363 18.5015C49.9856 18.5369 49.6293 18.6958 49.3468 18.9546C49.1405 19.1536 49.0808 19.322 49.1256 19.3587Z" fill="#263238"/>
<path d="M56.7591 20.0323C56.7744 20.2127 56.858 20.3797 56.9921 20.4976C57.1262 20.6155 57.3001 20.6749 57.4764 20.663C57.5628 20.6615 57.648 20.6422 57.7269 20.6063C57.8058 20.5705 57.877 20.5188 57.936 20.4542C57.9951 20.3897 58.041 20.3137 58.0709 20.2307C58.1008 20.1477 58.1141 20.0594 58.1101 19.9711C58.0956 19.7904 58.0121 19.6229 57.8779 19.5048C57.7436 19.3868 57.5693 19.3277 57.3928 19.3404C57.3065 19.3423 57.2216 19.3619 57.1428 19.3979C57.0641 19.4339 56.9931 19.4856 56.9341 19.5501C56.8751 19.6145 56.8292 19.6903 56.7992 19.7731C56.7691 19.8559 56.7555 19.944 56.7591 20.0323Z" fill="#263238"/>
<path d="M56.2661 18.771C56.3588 18.8506 56.831 18.4127 57.5573 18.3393C58.2837 18.2658 58.8486 18.5842 58.9173 18.4862C58.9532 18.4434 58.8545 18.2872 58.6184 18.1403C58.2841 17.9481 57.8995 17.8678 57.5185 17.9106C57.1397 17.9433 56.7813 18.1 56.4963 18.3576C56.2811 18.5628 56.2213 18.7342 56.2661 18.771Z" fill="#263238"/>
<path d="M54.1709 24.5452C54.1709 24.5023 53.7106 24.4686 52.9754 24.4472C52.7871 24.4472 52.6077 24.4288 52.5659 24.3003C52.531 24.1067 52.555 23.9069 52.6346 23.7277C52.7641 23.2501 52.8996 22.75 53.0411 22.2275C53.6 20.0844 53.9856 18.3484 53.9019 18.3239C53.8182 18.2994 53.3041 20.014 52.7362 22.1479C52.6027 22.6725 52.4752 23.1746 52.3537 23.6542C52.2583 23.8943 52.2498 24.1615 52.3298 24.4074C52.3625 24.472 52.4096 24.5277 52.4672 24.5703C52.5248 24.6128 52.5914 24.6409 52.6615 24.6523C52.7666 24.6671 52.8732 24.6671 52.9783 24.6523C53.7166 24.6309 54.1709 24.588 54.1709 24.5452Z" fill="#263238"/>
<path d="M56.3528 24.8422C56.2362 24.8422 56.3109 25.6536 55.6952 26.2935C55.0795 26.9333 54.2307 26.9303 54.2337 27.0436C54.2337 27.0956 54.4369 27.1813 54.7926 27.1568C55.2538 27.115 55.6863 26.9092 56.015 26.5751C56.3329 26.2503 56.5133 25.8104 56.5172 25.3505C56.5142 25.0229 56.4066 24.8331 56.3528 24.8422Z" fill="#263238"/>
<path d="M55.7967 15.8776C55.8863 16.0736 56.6007 15.9052 57.4615 15.9205C58.3223 15.9358 59.0337 16.1073 59.1293 15.9205C59.1711 15.8286 59.0337 15.6511 58.7348 15.4827C58.3427 15.2801 57.9095 15.1752 57.4705 15.1765C57.0296 15.1658 56.5927 15.2645 56.1972 15.4643C55.8983 15.6021 55.7548 15.7858 55.7967 15.8776Z" fill="#263238"/>
<path d="M49.1825 17.1819C49.3259 17.3381 49.8101 17.1115 50.4109 17.0411C51.0117 16.9707 51.5288 17.0411 51.6304 16.8543C51.6722 16.7625 51.5766 16.6033 51.3315 16.4655C51.0144 16.3057 50.6583 16.2455 50.3078 16.2923C49.9574 16.3391 49.6283 16.491 49.3618 16.7288C49.1735 16.9248 49.1197 17.1054 49.1825 17.1819Z" fill="#263238"/>
<path d="M48.1273 14.8367C48.1273 14.8367 49.0748 11.6832 50.4317 10.829C52.0726 9.80029 53.0052 11.6618 54.6012 11.0249C56.1973 10.3881 57.7665 9.39615 59.5718 10.529C61.5504 11.7536 60.7853 12.8527 61.1081 14.9837C62.4142 23.6297 64.2046 25.9321 64.2464 21.7897C64.2464 21.3366 65.442 20.8712 65.442 18.9424C65.442 16.4624 65.2387 13.4681 64.5453 11.7781C63.9475 10.3544 63.0329 9.42065 61.4578 8.45317C58.968 6.92235 55.7789 7.20708 53.6448 7.65102C51.5107 8.09496 47.5534 11.0647 48.1273 14.8367Z" fill="#263238"/>
<path d="M63.9266 21.6887C63.9152 21.5109 63.9392 21.3325 63.9969 21.1645C64.0547 20.9964 64.1451 20.842 64.2627 20.7107C64.3803 20.5794 64.5226 20.4738 64.6811 20.4004C64.8396 20.3269 65.011 20.2871 65.1849 20.2834C66.0816 20.2834 67.1038 20.6936 67.2263 22.5612C67.4445 25.8739 64.1507 25.4147 64.1388 25.3167C64.1268 25.2188 64.0043 23.0787 63.9266 21.6887Z" fill="#FFBE9D"/>
<path d="M64.7604 24.0247C64.7604 24.0247 64.8202 24.0615 64.9189 24.1013C65.0568 24.1502 65.2078 24.1425 65.3403 24.0798C65.6721 23.9268 65.9231 23.3512 65.9022 22.7541C65.8916 22.4699 65.8191 22.1916 65.69 21.9398C65.652 21.8383 65.591 21.7477 65.512 21.6752C65.433 21.6028 65.3383 21.5508 65.2357 21.5234C65.1696 21.5125 65.1018 21.5247 65.0433 21.558C64.9847 21.5914 64.9388 21.6438 64.9129 21.7071C64.877 21.802 64.9129 21.8663 64.883 21.8724C64.8531 21.8785 64.8113 21.8234 64.8292 21.6826C64.8414 21.5997 64.8816 21.5239 64.9428 21.4683C65.0248 21.3938 65.1322 21.3553 65.2417 21.3611C65.3764 21.3787 65.5044 21.4316 65.6133 21.5148C65.7222 21.5979 65.8084 21.7084 65.8633 21.8357C66.0229 22.1149 66.1113 22.4307 66.1204 22.7541C66.1443 23.4216 65.8514 24.0707 65.3941 24.2421C65.3067 24.2724 65.2137 24.2821 65.122 24.2705C65.0304 24.2588 64.9426 24.2261 64.8651 24.1747C64.7724 24.1043 64.7515 24.0339 64.7604 24.0247Z" fill="#EB996E"/>
<path d="M63.2393 15.2959C62.8759 15.665 62.4278 15.9345 61.9362 16.0797C61.437 16.1838 60.8303 15.945 60.6958 15.4429C60.636 15.2163 60.6659 14.9439 60.4985 14.7816C60.3311 14.6193 59.9844 14.6867 59.7184 14.7448C59.2514 14.8274 58.7709 14.7452 58.3556 14.5116C57.9402 14.278 57.6145 13.9069 57.4319 13.459C57.2286 13.8508 56.6697 13.8906 56.2841 13.6886C55.9177 13.4432 55.5867 13.1464 55.3008 12.8068C55.0019 12.5007 54.5596 12.2465 54.1381 12.3537C53.9191 12.4563 53.6895 12.5333 53.4537 12.5833C53.0262 12.5833 52.7692 12.0996 52.6646 11.6648C52.56 11.2301 52.4584 10.7463 52.0668 10.5443C51.6753 10.3422 51.2957 10.5443 50.9131 10.63C50.5305 10.7157 50.0164 10.6851 49.8759 10.3055C49.8494 10.2027 49.8434 10.0955 49.8583 9.99025C49.8732 9.88503 49.9087 9.78398 49.9626 9.69314C50.1851 9.26507 50.5426 8.92693 50.977 8.73397C51.4113 8.541 51.8966 8.50461 52.3537 8.63075C52.4594 8.06483 52.7264 7.54368 53.121 7.13312C53.5156 6.72256 54.0202 6.44102 54.5709 6.32406C55.1217 6.20709 55.694 6.25996 56.2154 6.47598C56.7368 6.692 57.1841 7.06148 57.5006 7.53774C57.813 7.18517 58.2038 6.91499 58.6399 6.7501C59.076 6.58522 59.5445 6.5305 60.0056 6.59059C60.4667 6.65069 60.9068 6.82382 61.2887 7.0953C61.6706 7.36678 61.9829 7.7286 62.1992 8.15007C62.5844 7.99878 63.0046 7.96751 63.4071 8.06019C63.8096 8.15288 64.1764 8.36537 64.4613 8.67097C64.7462 8.97657 64.9366 9.36163 65.0085 9.77775C65.0803 10.1939 65.0305 10.6225 64.8653 11.0096C65.478 11.2883 66.0339 11.8271 66.1116 12.5098C66.1894 13.1926 65.6065 13.9396 64.943 13.8264C65.0935 14.0813 65.145 14.3848 65.0874 14.6768C65.0297 14.9688 64.867 15.2279 64.6316 15.4028C64.3961 15.5777 64.1051 15.6556 63.8162 15.6211C63.5274 15.5866 63.2617 15.4421 63.0719 15.2163" fill="#263238"/>
<path d="M52.2252 9.638C52.2218 9.65827 52.2218 9.67897 52.2252 9.69923C52.2252 9.73903 52.2431 9.80027 52.264 9.87375C52.3295 10.0935 52.4305 10.3005 52.5629 10.4861C52.7707 10.7815 53.0416 11.0245 53.355 11.1964C53.7691 11.4275 54.245 11.5155 54.7119 11.4474L54.6521 11.377C54.6163 11.5328 54.6114 11.6943 54.6376 11.8521C54.6637 12.0098 54.7205 12.1606 54.8046 12.2955C54.9777 12.5777 55.1901 12.8325 55.4352 13.0517C55.555 13.1807 55.6883 13.2957 55.8328 13.3946C55.9962 13.4855 56.1789 13.5338 56.3648 13.5355C56.5579 13.545 56.7503 13.5056 56.925 13.4206C57.0997 13.3357 57.2512 13.208 57.3661 13.0487L57.2405 13.0272C57.319 13.3663 57.4659 13.6848 57.6718 13.9621C57.8777 14.2395 58.1381 14.4696 58.4361 14.6377C58.7652 14.8385 59.1491 14.9244 59.53 14.8826C59.8873 14.8304 60.2331 14.7154 60.5522 14.5427L60.4626 14.5121C60.668 14.8952 60.964 15.2194 61.3234 15.4551C61.4891 15.5741 61.6787 15.6538 61.8783 15.6882C62.0779 15.7226 62.2824 15.711 62.4771 15.6541C62.8111 15.5428 63.1059 15.3335 63.3248 15.0521C63.5437 14.7707 63.6771 14.4296 63.7085 14.0713L63.6368 14.1141C63.9953 14.264 64.3934 14.2824 64.7636 14.1662C65.0394 14.0838 65.2923 13.9359 65.5018 13.7345C65.6335 13.6085 65.7419 13.4591 65.8217 13.2936C65.8504 13.2373 65.8724 13.1777 65.8874 13.116C65.7809 13.3352 65.6372 13.5332 65.463 13.7008C65.2557 13.8875 65.0092 14.0226 64.7427 14.0958C64.3906 14.1979 64.0149 14.1731 63.6786 14.0253L63.6159 13.9978V14.0682C63.5796 14.4002 63.4498 14.7142 63.2423 14.9719C63.0348 15.2296 62.7585 15.4198 62.4472 15.5194C62.27 15.5695 62.0842 15.5785 61.9032 15.5457C61.7222 15.5128 61.5507 15.439 61.4011 15.3296C61.061 15.1051 60.7815 14.7966 60.5881 14.4325L60.5582 14.3744L60.4984 14.405C60.1925 14.5681 59.8622 14.6778 59.5211 14.7295C59.1686 14.7666 58.8139 14.6849 58.5108 14.4968C58.2287 14.3369 57.9825 14.118 57.7884 13.8542C57.5943 13.5905 57.4565 13.2879 57.384 12.966L57.3481 12.8129L57.2585 12.9415C57.1573 13.0819 57.0239 13.1948 56.8702 13.27C56.7164 13.3453 56.547 13.3807 56.3767 13.3732C56.2129 13.3726 56.0517 13.3305 55.9075 13.2507C55.771 13.1578 55.6448 13.05 55.5309 12.9293C55.2929 12.7286 55.0836 12.4946 54.9092 12.2343C54.7568 11.9924 54.7031 11.6988 54.7597 11.4168L54.7777 11.3341H54.697C54.2517 11.4061 53.7957 11.3287 53.3968 11.1137C53.0903 10.9542 52.8219 10.7273 52.6107 10.4493C52.4375 10.2037 52.307 9.9292 52.2252 9.638V9.638Z" fill="#455A64"/>
<path d="M65.2 15.5838C65.1089 15.7849 64.9846 15.9682 64.8323 16.1257C64.4879 16.5262 64.0845 16.8691 63.6368 17.1422C63.1888 17.4204 62.7005 17.624 62.1902 17.7453C61.983 17.8091 61.7663 17.834 61.5505 17.8188C62.2493 17.6388 62.9231 17.3693 63.5561 17.0166C64.1605 16.6114 64.7128 16.1301 65.2 15.5838V15.5838Z" fill="white"/>
<path d="M65.421 17.2615C65.3167 17.4362 65.1855 17.5923 65.0324 17.7238C64.332 18.4082 63.4873 18.9183 62.5636 19.2149C62.3732 19.2925 62.1707 19.334 61.9658 19.3373C62.5905 19.0899 63.1995 18.8026 63.789 18.477C64.3561 18.1053 64.901 17.6995 65.421 17.2615V17.2615Z" fill="white"/>
<path d="M54.8104 36.2284L46.5431 38.6043C45.561 38.8822 44.6975 39.4877 44.0892 40.3249L37.947 49.1455L39.8838 51.4203L85.6707 51.4417C85.6707 51.4417 83.9163 44.8531 83.3394 42.8324C82.4696 39.7707 81.289 38.9165 80.213 37.8021C79.7125 37.3443 79.1284 36.9926 78.4944 36.7673C76.5935 36.3417 67.573 34.1955 65.8573 34.2445C65.8573 34.2445 64.0909 38.5491 59.9483 38.5093C55.8057 38.4695 54.8104 36.2284 54.8104 36.2284Z" fill="#455A64"/>
<path d="M73.9933 44.1029C74.0232 44.1029 74.1129 43.7049 74.3908 43.1079C74.7654 42.3368 75.2578 41.6319 75.8494 41.0198C76.4482 40.4091 77.0874 39.8414 77.7623 39.3206C78.0503 39.1138 78.323 38.8856 78.5783 38.6379C78.2621 38.8023 77.9619 38.997 77.6816 39.2196C76.9777 39.7142 76.3203 40.2748 75.7179 40.8943C75.1107 41.5181 74.6204 42.2507 74.2713 43.0558C74.1683 43.3004 74.0854 43.5534 74.0232 43.8121C73.9965 43.9064 73.9864 44.0049 73.9933 44.1029V44.1029Z" fill="#263238"/>
<path d="M47.416 49.3016C47.4588 48.9616 47.4698 48.6181 47.4489 48.276C47.4489 47.6422 47.41 46.7696 47.3383 45.8052C47.2666 44.8408 47.1679 43.9682 47.0813 43.3559C47.0504 43.0152 46.9894 42.678 46.8989 42.3486C46.8891 42.6906 46.9091 43.0329 46.9587 43.3712C47.0155 44.054 47.0872 44.902 47.162 45.8205C47.2367 46.739 47.2785 47.5932 47.3264 48.2698C47.3284 48.6157 47.3584 48.9608 47.416 49.3016V49.3016Z" fill="#263238"/>
<g opacity="0.3">
<path d="M44.5764 50.5538C45.3719 50.3655 46.1099 49.9796 46.7254 49.4302C47.3053 48.8454 47.6221 47.8994 47.2664 47.1554C47.8399 48.4034 48.7532 49.4552 49.8964 50.1841C51.0396 50.913 52.3641 51.2881 53.7105 51.2641L42.2959 51.408C43.0185 51.0273 43.7846 50.7404 44.5764 50.5538Z" fill="black"/>
</g>
<g opacity="0.3">
<path d="M73.1144 51.4203L73.3057 46.8738L70.1882 51.4142L73.1144 51.4203Z" fill="black"/>
</g>
<path d="M73.1144 51.4233C73.0863 50.5256 73.1092 49.627 73.1832 48.7321C73.2067 47.8335 73.2805 46.937 73.4043 46.0471C73.4325 46.9447 73.4095 47.8433 73.3356 48.7382C73.3121 49.6369 73.2382 50.5333 73.1144 51.4233V51.4233Z" fill="#263238"/>
<path d="M65.9262 47.4616H90.6773L92.0911 46.0134H107.14C107.628 46.0134 108.097 46.2121 108.442 46.5658C108.787 46.9195 108.981 47.3992 108.981 47.8994V50.4467H64.2674L64.2136 49.3169C64.2019 49.0786 64.2374 48.8403 64.3181 48.6165C64.3988 48.3926 64.5229 48.1878 64.6829 48.0144C64.843 47.841 65.0356 47.7026 65.2493 47.6076C65.463 47.5126 65.6933 47.4629 65.9262 47.4616V47.4616Z" fill="#2C83E7"/>
<path d="M31.0907 87.7742L31.4225 54.0135C31.4312 53.0677 31.804 52.1636 32.46 51.498C33.116 50.8323 34.0021 50.4589 34.9255 50.4589H110.661C111.586 50.4589 112.473 50.8332 113.129 51.5001C113.785 52.1671 114.157 53.0727 114.164 54.0196L114.412 87.7742L117.897 102.519V107.788H115.428V122.879C115.427 125.527 114.399 128.067 112.57 129.939C110.741 131.811 108.261 132.863 105.676 132.863H38.3508C35.7642 132.863 33.2835 131.81 31.4545 129.937C29.6255 128.063 28.598 125.522 28.598 122.873V107.145H26.1292V102.519L31.0907 87.7742Z" fill="#2C83E7"/>
<path d="M31.0905 87.7742C31.0905 87.7742 30.9858 88.1018 30.7766 88.7355L29.8321 91.5645L26.1618 102.531C26.1618 103.983 26.1618 105.528 26.1618 107.167L26.1229 107.13H28.6306V107.145C28.6306 110.443 28.6306 114.083 28.6306 118.042C28.6306 119.031 28.6306 120.041 28.6306 121.07C28.5996 122.115 28.6325 123.161 28.7292 124.202C28.8608 125.275 29.1733 126.317 29.6528 127.282C30.1399 128.283 30.7864 129.195 31.5657 129.979C33.2186 131.628 35.393 132.618 37.6959 132.768C38.2937 132.811 38.8915 132.799 39.4893 132.802H44.9978H60.7224H96.1229H105.687C107.306 132.783 108.897 132.363 110.323 131.577L110.84 131.253L111.1 131.09L111.345 130.904L111.833 130.53L112.284 130.107L112.511 129.896L112.717 129.667L113.13 129.201L113.5 128.699L113.683 128.448C113.742 128.362 113.79 128.271 113.844 128.182L114.164 127.643C114.263 127.459 114.346 127.266 114.436 127.076C114.611 126.695 114.764 126.304 114.893 125.904C115.142 125.096 115.288 124.258 115.33 123.412C115.359 122.989 115.356 122.561 115.356 122.132V118.259C115.356 114.801 115.356 111.311 115.356 107.788V107.709H117.903L117.825 107.788V102.553C117.473 101.056 117.09 99.439 116.707 97.8194C115.894 94.3904 115.09 90.9858 114.34 87.8109V87.7926C114.26 76.8747 114.182 66.2447 114.107 56.0005C114.047 54.736 114.292 53.3889 113.629 52.302C113.325 51.7671 112.888 51.3236 112.363 51.0162C111.839 50.7088 111.244 50.5483 110.64 50.5508H89.2783L40.8223 50.5048H35.792C35.3855 50.5048 34.976 50.5048 34.5964 50.5232C34.2037 50.5654 33.8208 50.6751 33.4636 50.8477C32.7569 51.1882 32.1852 51.7662 31.8437 52.4857C31.6751 52.8327 31.565 53.2064 31.5179 53.591C31.476 53.9737 31.485 54.3625 31.479 54.7452C31.479 55.5167 31.479 56.276 31.4551 57.0169C31.4392 58.509 31.4242 59.952 31.4103 61.3461C31.3505 66.9214 31.2997 71.7159 31.2578 75.6317C31.216 79.5476 31.1771 82.5816 31.1532 84.6391C31.1532 85.6647 31.1293 86.4485 31.1233 86.9751C31.1174 87.5017 31.1233 87.7681 31.1233 87.7681C31.1233 87.7681 31.1233 87.4986 31.1233 86.972C31.1233 86.4454 31.1233 85.6617 31.1233 84.6329C31.1413 82.5755 31.1652 79.5414 31.1981 75.6256C31.2309 71.7098 31.2758 66.9152 31.3266 61.34C31.3385 59.948 31.3515 58.5059 31.3654 57.0139C31.3654 56.2699 31.3654 55.5137 31.3864 54.7452C31.3864 54.3625 31.3864 53.9737 31.4222 53.5787C31.499 52.975 31.7222 52.4006 32.0715 51.908C32.4208 51.4155 32.885 51.0204 33.4218 50.7589C33.789 50.5795 34.1831 50.4646 34.5875 50.4191C34.9969 50.3885 35.3975 50.4191 35.8069 50.4007H40.8372H89.2933H110.625C111.098 50.3971 111.568 50.4894 112.006 50.6725C112.444 50.8555 112.843 51.1255 113.179 51.467C113.514 51.8086 113.781 52.2148 113.963 52.6623C114.145 53.1099 114.239 53.5899 114.239 54.0747C114.239 54.7115 114.239 55.3514 114.254 55.9913C114.328 66.2355 114.409 76.8656 114.49 87.7803V87.7619C115.243 90.9399 116.047 94.3445 116.857 97.7704C117.239 99.3931 117.622 101.01 117.978 102.507V107.874H115.431L115.509 107.794V122.147C115.509 122.576 115.509 123.004 115.482 123.436C115.44 124.296 115.291 125.147 115.04 125.968C114.908 126.375 114.752 126.772 114.573 127.159C114.481 127.349 114.397 127.545 114.298 127.735L113.97 128.271C113.916 128.362 113.865 128.454 113.805 128.543L113.62 128.797L113.243 129.308L112.825 129.78L112.616 130.016L112.385 130.227L111.928 130.656L111.432 131.026L111.184 131.216L110.921 131.381L110.392 131.709C108.943 132.503 107.327 132.923 105.684 132.933H96.1199H60.7194H44.9948H39.4952C38.8975 132.933 38.2997 132.933 37.7019 132.9C35.3731 132.747 33.1748 131.745 31.5059 130.074C30.7196 129.279 30.0662 128.358 29.5721 127.346C29.0905 126.369 28.7761 125.315 28.6425 124.229C28.5471 123.184 28.5152 122.134 28.5469 121.085C28.5469 120.056 28.5469 119.046 28.5469 118.057C28.5469 114.098 28.5469 110.458 28.5469 107.16L28.5858 107.203H26.093V107.145C26.093 105.512 26.093 103.967 26.093 102.51C27.71 97.7337 28.9534 94.0506 29.7963 91.5614L30.7557 88.7355C30.9769 88.0987 31.0905 87.7742 31.0905 87.7742Z" fill="#263238"/>
<path d="M47.9173 82.0712C50.2843 79.44 50.1208 75.3415 47.5521 72.9169C44.9835 70.4924 40.9823 70.6598 38.6154 73.291C36.2484 75.9222 36.4119 80.0207 38.9806 82.4453C41.5492 84.8698 45.5503 84.7024 47.9173 82.0712Z" fill="#E0E0E0"/>
<path d="M49.5919 77.68C49.5827 77.646 49.5776 77.6111 49.5769 77.5759C49.5769 77.4963 49.5769 77.3952 49.556 77.2697C49.5485 77.1032 49.5295 76.9375 49.4992 76.7737C49.4681 76.5496 49.4231 76.3277 49.3647 76.1093C49.2154 75.5056 48.9776 74.9286 48.6593 74.3979C48.2449 73.6924 47.702 73.075 47.0603 72.5793C46.2845 71.9742 45.3802 71.5651 44.4211 71.3852C43.3202 71.1771 42.1851 71.2744 41.1333 71.6669C40.8537 71.7709 40.5811 71.8936 40.3173 72.0343C40.0511 72.1842 39.7954 72.353 39.5522 72.5395C39.3025 72.7266 39.0658 72.9312 38.8438 73.1518C38.6297 73.3858 38.43 73.6332 38.246 73.8927C37.8575 74.428 37.5548 75.0233 37.3493 75.6562C36.9229 76.9669 36.9229 78.3838 37.3493 79.6945C37.5548 80.3275 37.8575 80.9228 38.246 81.458C38.4284 81.7198 38.6281 81.9684 38.8438 82.202C39.0673 82.4209 39.3039 82.6254 39.5522 82.8143C39.7954 83.0008 40.0511 83.1696 40.3173 83.3195C40.5811 83.4602 40.8537 83.5829 41.1333 83.6869C42.5019 84.1962 44.0007 84.2023 45.3732 83.704C46.7456 83.2058 47.9063 82.2343 48.6563 80.9559C48.9741 80.425 49.2119 79.848 49.3617 79.2445C49.4205 79.0252 49.4654 78.8022 49.4962 78.577C49.5268 78.4133 49.5458 78.2476 49.553 78.081C49.553 77.9555 49.568 77.8514 49.5739 77.7749C49.5742 77.7396 49.5793 77.7046 49.5889 77.6708C49.5922 77.7054 49.5922 77.7403 49.5889 77.7749C49.5889 77.8545 49.5889 77.9555 49.5889 78.081C49.589 78.2483 49.575 78.4153 49.547 78.5801C49.5237 78.8086 49.4827 79.0348 49.4245 79.2567C49.2842 79.8702 49.0523 80.4578 48.737 80.9988C48.277 81.7968 47.6568 82.4857 46.9174 83.0198C46.178 83.554 45.3363 83.9212 44.448 84.0972C43.3251 84.3127 42.1665 84.2176 41.0914 83.8216C40.8049 83.7156 40.5254 83.5909 40.2545 83.4481C39.979 83.3034 39.7134 83.1397 39.4595 82.9582C39.2044 82.7631 38.9618 82.5514 38.7332 82.3245C38.5074 82.0873 38.2977 81.8346 38.1055 81.5682C37.7072 81.0203 37.3974 80.4105 37.1879 79.7619C36.7495 78.4186 36.7495 76.9658 37.1879 75.6225C37.3968 74.9737 37.7066 74.3637 38.1055 73.8162C38.2985 73.5494 38.5081 73.2958 38.7332 73.0569C38.9618 72.8309 39.2044 72.6202 39.4595 72.4262C39.7098 72.2366 39.9724 72.0648 40.2456 71.9118C40.5158 71.7678 40.7955 71.643 41.0825 71.5383C42.1572 71.1409 43.3162 71.0457 44.439 71.2628C45.3263 71.4361 46.1675 71.8009 46.9065 72.333C47.6455 72.8651 48.2654 73.5523 48.7251 74.3489C49.0404 74.8899 49.2722 75.4775 49.4125 76.091C49.4705 76.3119 49.5115 76.5371 49.5351 76.7645C49.563 76.9304 49.577 77.0983 49.5769 77.2666C49.5769 77.3952 49.5769 77.4963 49.5769 77.5728C49.5853 77.6079 49.5903 77.6438 49.5919 77.68V77.68Z" fill="#263238"/>
<g opacity="0.3">
<path d="M26.1292 102.519H117.897L114.412 87.7773H31.0937L26.1292 102.519Z" fill="black"/>
</g>
<path d="M107.768 68.244H97.22C96.8237 68.244 96.4436 68.0827 96.1633 67.7956C95.883 67.5085 95.7256 67.1191 95.7256 66.7131V55.8964C95.7256 55.4904 95.883 55.101 96.1633 54.8139C96.4436 54.5268 96.8237 54.3655 97.22 54.3655H107.768C108.164 54.3655 108.544 54.5268 108.825 54.8139C109.105 55.101 109.262 55.4904 109.262 55.8964V66.7009C109.264 66.9029 109.226 67.1033 109.152 67.2905C109.078 67.4776 108.968 67.6478 108.829 67.7913C108.69 67.9347 108.525 68.0486 108.343 68.1263C108.16 68.204 107.965 68.244 107.768 68.244V68.244ZM97.22 54.6595C96.903 54.6595 96.5989 54.7885 96.3746 55.0182C96.1504 55.2478 96.0245 55.5593 96.0245 55.8841V66.7009C96.0245 67.0257 96.1504 67.3372 96.3746 67.5669C96.5989 67.7965 96.903 67.9255 97.22 67.9255H107.768C108.085 67.9255 108.389 67.7965 108.613 67.5669C108.837 67.3372 108.963 67.0257 108.963 66.7009V55.8964C108.963 55.5716 108.837 55.2601 108.613 55.0304C108.389 54.8007 108.085 54.6717 107.768 54.6717L97.22 54.6595Z" fill="#263238"/>
<path d="M108.362 62.7098C109.12 59.3923 107.109 56.0736 103.87 55.2973C100.631 54.521 97.3913 56.5811 96.6334 59.8986C95.8756 63.2162 97.8867 66.5349 101.125 67.3112C104.364 68.0875 107.604 66.0274 108.362 62.7098Z" fill="#263238"/>
<path d="M53.083 57.418H38.2222C37.0981 57.418 36.1868 58.3515 36.1868 59.503V63.1464C36.1868 64.2979 37.0981 65.2313 38.2222 65.2313H53.083C54.2071 65.2313 55.1184 64.2979 55.1184 63.1464V59.503C55.1184 58.3515 54.2071 57.418 53.083 57.418Z" fill="#FAFAFA"/>
<path d="M53.083 65.2283C53.2491 65.2139 53.4139 65.1873 53.5762 65.1487C54.0411 65.022 54.4469 64.7301 54.7209 64.3251C54.9182 64.0361 55.0387 63.6995 55.0706 63.3484C55.0886 62.9627 55.0706 62.534 55.0706 62.0779C55.0706 61.6217 55.0706 61.1318 55.0706 60.6144C55.0706 60.3572 55.0706 60.0908 55.0706 59.8153C55.0836 59.5399 55.0605 59.2639 55.0019 58.9948C54.9294 58.711 54.7975 58.4468 54.6153 58.2205C54.4331 57.9942 54.205 57.8113 53.9468 57.6844C53.4118 57.3782 52.7513 57.5038 52.0967 57.4823H47.8823H38.2252C37.8156 57.484 37.4168 57.6164 37.0841 57.8612C36.7514 58.1059 36.5015 58.4508 36.3691 58.8478C36.2701 59.2476 36.2348 59.6611 36.2645 60.0725V62.5524C36.2345 62.9467 36.2648 63.3433 36.3542 63.7281C36.4666 64.0876 36.6752 64.4075 36.9563 64.6516C37.2374 64.8957 37.5796 65.0541 37.9443 65.1089C38.1238 65.13 38.3046 65.1371 38.4852 65.1303H40.1022H42.1466H45.82L51.1373 65.1548H52.5809H52.9575C53.0002 65.1502 53.0433 65.1502 53.086 65.1548H52.9575H52.5809L51.1373 65.1701L45.82 65.1977H42.1466H38.4823C38.2946 65.2046 38.1067 65.1964 37.9203 65.1732C37.5287 65.1157 37.1607 64.9465 36.8584 64.685C36.5561 64.4235 36.3317 64.0803 36.2107 63.6944C36.1511 63.4958 36.1179 63.2898 36.1121 63.0821C36.1121 62.88 36.1121 62.6779 36.1121 62.4697V59.4632C36.1175 59.2415 36.1548 59.0217 36.2226 58.8111C36.3648 58.3823 36.6343 58.0099 36.9934 57.7458C37.3525 57.4817 37.7832 57.3393 38.2252 57.3384H47.8823H52.0967H53.0681C53.3915 57.3361 53.7109 57.4116 54.0006 57.5589C54.2729 57.695 54.5131 57.89 54.7045 58.1306C54.896 58.3711 55.0341 58.6513 55.1095 58.9519C55.1678 59.2304 55.1899 59.5156 55.1753 59.8C55.1753 60.0755 55.1753 60.3419 55.1753 60.5991C55.1753 61.1165 55.1753 61.6064 55.1753 62.0625C55.1753 62.5187 55.1753 62.9412 55.1573 63.3392C55.1196 63.7014 54.9909 64.0474 54.7837 64.3435C54.4962 64.7572 54.071 65.049 53.5881 65.164C53.4242 65.2129 53.2537 65.2346 53.083 65.2283V65.2283Z" fill="#263238"/>
<path d="M74.0262 87.0823C83.0953 87.0823 90.4472 79.5514 90.4472 70.2616C90.4472 60.9718 83.0953 53.441 74.0262 53.441C64.9572 53.441 57.6052 60.9718 57.6052 70.2616C57.6052 79.5514 64.9572 87.0823 74.0262 87.0823Z" fill="#263238"/>
<path d="M74.026 87.2445C70.7486 87.2445 67.5447 86.249 64.8197 84.3837C62.0946 82.5185 59.9707 79.8674 58.7166 76.7657C57.4625 73.6639 57.1346 70.2509 57.7742 66.9583C58.4138 63.6656 59.9923 60.6412 62.31 58.2675C64.6277 55.8938 67.5806 54.2774 70.7951 53.6228C74.0097 52.9682 77.3415 53.3048 80.3693 54.59C83.3971 55.8752 85.9849 58.0512 87.8053 60.8429C89.6257 63.6346 90.5971 66.9166 90.5965 70.2739C90.5917 74.7738 88.8443 79.088 85.7377 82.2697C82.6311 85.4513 78.419 87.2405 74.026 87.2445ZM74.026 53.6063C70.8078 53.6063 67.6619 54.5838 64.986 56.4153C62.3102 58.2467 60.2246 60.8499 58.9931 63.8955C57.7615 66.9411 57.4393 70.2924 58.0671 73.5255C58.695 76.7587 60.2447 79.7286 62.5203 82.0596C64.7959 84.3906 67.6952 85.9781 70.8516 86.6212C74.008 87.2643 77.2796 86.9342 80.2529 85.6727C83.2261 84.4112 85.7674 82.2748 87.5553 79.5339C89.3433 76.7929 90.2976 73.5704 90.2976 70.2739C90.296 65.8527 88.5816 61.6129 85.5307 58.4856C82.4799 55.3582 78.3421 53.5989 74.026 53.594V53.6063Z" fill="#455A64"/>
<path d="M74.0262 85.5484C71.0149 85.5454 68.0719 84.6279 65.5695 82.9118C63.0671 81.1958 61.1176 78.7583 59.9674 75.9075C58.8172 73.0567 58.5179 69.9206 59.1074 66.8956C59.6969 63.8706 61.1488 61.0926 63.2794 58.9127C65.41 56.7327 68.1238 55.2488 71.0776 54.6485C74.0314 54.0482 77.0927 54.3585 79.8744 55.54C82.6561 56.7216 85.0333 58.7215 86.7056 61.2868C88.378 63.8521 89.2702 66.8677 89.2696 69.9524C89.2649 74.0904 87.6568 78.0573 84.7986 80.9816C81.9404 83.9058 78.0659 85.5484 74.0262 85.5484V85.5484ZM74.0262 54.6595C71.0747 54.6625 68.1903 55.5616 65.7375 57.2432C63.2846 58.9248 61.3734 61.3133 60.2452 64.1071C59.1171 66.9009 58.8227 69.9745 59.3992 72.9396C59.9758 75.9048 61.3974 78.6283 63.4844 80.7661C65.5714 82.9039 68.2303 84.3601 71.1249 84.9507C74.0196 85.5413 77.0202 85.2397 79.7476 84.0841C82.475 82.9285 84.8068 80.9708 86.4484 78.4582C88.09 75.9457 88.9678 72.9911 88.9707 69.9677C88.9707 65.9077 87.3962 62.014 84.5936 59.1432C81.791 56.2723 77.9898 54.6595 74.0262 54.6595Z" fill="#455A64"/>
<path d="M74.026 82.6429C80.7741 82.6429 86.2446 77.0393 86.2446 70.1269C86.2446 63.2145 80.7741 57.6109 74.026 57.6109C67.2778 57.6109 61.8074 63.2145 61.8074 70.1269C61.8074 77.0393 67.2778 82.6429 74.026 82.6429Z" fill="#455A64"/>
<path d="M46.7432 80.9548C48.5045 78.9866 48.3747 75.9286 46.4533 74.1245C44.5319 72.3204 41.5465 72.4533 39.7852 74.4215C38.024 76.3897 38.1538 79.4477 40.0752 81.2518C41.9966 83.0559 44.982 82.923 46.7432 80.9548Z" fill="#2C83E7"/>
<path d="M47.9869 77.68C47.9536 77.2854 47.8937 76.8935 47.8076 76.5074C47.696 76.0581 47.5186 75.6287 47.2815 75.2337C46.9704 74.709 46.5647 74.2498 46.086 73.8805C45.5078 73.4326 44.8353 73.1296 44.1222 72.9957C43.3044 72.8437 42.4617 72.9166 41.6803 73.2069C41.2588 73.3608 40.8627 73.5797 40.5057 73.856C40.3214 73.9981 40.1458 74.1514 39.9796 74.3152C39.8163 74.4894 39.6646 74.6745 39.5253 74.8694C38.9389 75.6834 38.6225 76.6684 38.6225 77.68C38.6225 78.6916 38.9389 79.6766 39.5253 80.4906C39.6637 80.6852 39.8155 80.8693 39.9796 81.0417C40.1444 81.2071 40.3201 81.3605 40.5057 81.5009C40.862 81.7784 41.2583 81.9974 41.6803 82.15C42.6979 82.5283 43.8121 82.5334 44.833 82.1644C45.8539 81.7954 46.7182 81.075 47.2785 80.1262C47.5153 79.7312 47.6926 79.3018 47.8046 78.8526C47.8907 78.4664 47.9506 78.0746 47.9839 77.68C47.9839 77.68 47.9839 77.7076 47.9839 77.7565C47.9839 77.8055 47.9839 77.8943 47.9839 77.9892C47.9841 78.1144 47.9741 78.2393 47.954 78.3627C47.9353 78.533 47.9053 78.7018 47.8643 78.8679C47.7595 79.3267 47.5872 79.7665 47.3532 80.1722C47.0095 80.7695 46.5458 81.2852 45.993 81.6853C45.4401 82.0853 44.8106 82.3606 44.1462 82.4929C43.3055 82.6576 42.4371 82.5868 41.6325 82.2878C41.1962 82.1314 40.7859 81.9074 40.416 81.6234C40.2244 81.4791 40.0427 81.3216 39.872 81.1519C39.7028 80.9727 39.5451 80.7825 39.3998 80.5824C38.793 79.7401 38.4656 78.7207 38.4656 77.6739C38.4656 76.627 38.793 75.6077 39.3998 74.7653C39.5432 74.5656 39.7 74.3763 39.869 74.1989C40.0404 74.0291 40.2221 73.8706 40.413 73.7244C40.7829 73.4404 41.1932 73.2163 41.6295 73.06C42.4347 72.7635 43.3027 72.6937 44.1432 72.8579C44.8082 72.9887 45.4382 73.2634 45.9913 73.6636C46.5444 74.0638 47.0077 74.5803 47.3503 75.1786C47.5846 75.5841 47.757 76.024 47.8614 76.4829C47.9023 76.649 47.9323 76.8178 47.951 76.9881C47.9711 77.1115 47.9811 77.2364 47.9809 77.3616C47.9809 77.4534 47.9809 77.53 47.9809 77.5912C47.9809 77.6524 47.9869 77.68 47.9869 77.68Z" fill="#263238"/>
<path d="M45.2789 74.1805C45.0137 74.0487 44.7401 73.9351 44.46 73.8407C43.688 73.6035 42.8642 73.6099 42.0958 73.8591C41.5318 74.046 41.0165 74.3612 40.5884 74.7812C40.1603 75.2011 39.8306 75.7148 39.6239 76.2839C39.5046 76.6109 39.4282 76.9527 39.3968 77.3003C39.3651 77.6632 39.3812 78.0288 39.4446 78.3872C39.5782 79.1437 39.9228 79.8443 40.4368 80.4045C40.9507 80.9646 41.6121 81.3603 42.3408 81.5438C43.0206 81.7142 43.7324 81.6963 44.4032 81.4917C45.0074 81.3002 45.5585 80.9644 46.0112 80.512C46.4023 80.115 46.7078 79.6383 46.9079 79.1128C47.1993 78.3431 47.2577 77.5013 47.0753 76.6972C47.0242 76.4794 46.9583 76.2656 46.878 76.0573C46.8448 75.9861 46.8168 75.9124 46.7943 75.8369C46.8063 75.8535 46.8173 75.8709 46.8272 75.8889C46.8451 75.9226 46.872 75.9747 46.9049 76.0451C47.0013 76.2493 47.0784 76.4626 47.135 76.6819C47.3428 77.499 47.2989 78.362 47.0095 79.1526C46.8085 79.6975 46.4979 80.193 46.0979 80.6069C45.6319 81.0784 45.0634 81.4299 44.4391 81.6326C43.744 81.8494 43.0048 81.8705 42.299 81.6938C41.5396 81.5075 40.8505 81.0965 40.3174 80.512C39.7832 79.9296 39.4251 79.2012 39.2862 78.4148C39.2238 78.0417 39.2087 77.662 39.2414 77.285C39.3427 76.2482 39.8232 75.289 40.5864 74.6C41.0111 74.212 41.5127 73.9226 42.0569 73.7519C42.8453 73.5051 43.6891 73.5147 44.4719 73.7795C44.6793 73.8516 44.8795 73.9439 45.0697 74.055L45.2192 74.1438L45.2789 74.1805Z" fill="#263238"/>
<path d="M114.412 87.7742C114.412 87.8201 95.7584 87.8568 72.7558 87.8568C49.7533 87.8568 31.0906 87.8201 31.0906 87.7742C31.0906 87.7283 49.7383 87.6946 72.7528 87.6946C95.7673 87.6946 114.412 87.7313 114.412 87.7742Z" fill="#263238"/>
<path d="M116.985 107.807H116.755H116.083H113.497H103.99C95.9615 107.776 84.8608 107.672 72.6242 107.528C60.3877 107.384 49.2779 107.262 41.2408 107.206L31.7361 107.145L29.1507 107.127H28.4782H28.248H28.4782H29.1507H31.7361H41.2438C49.272 107.154 60.3727 107.258 72.6272 107.402C84.8817 107.546 95.9645 107.669 103.993 107.727L113.5 107.788L116.086 107.807H116.758H116.985Z" fill="#263238"/>
<path d="M107.813 121.189H36.2136V125.157H107.813V121.189Z" fill="#263238"/>
<path d="M37.8006 123.173L32.561 137.777H112.176L106.13 123.173H37.8006Z" fill="white"/>
<path d="M37.8006 123.173C37.8006 123.173 37.9112 123.173 38.1324 123.173H39.1187H42.9445L57.2225 123.151L106.13 123.118H106.181L106.199 123.167C108.144 127.86 110.171 132.756 112.248 137.771L112.293 137.881H106.686L32.5611 137.847H32.4983L32.5192 137.786L36.4048 127.021L37.4389 124.171C37.5555 123.865 37.6452 123.608 37.705 123.439C37.7647 123.271 37.7976 123.197 37.7976 123.197C37.7976 123.197 37.7707 123.283 37.7139 123.452L37.4539 124.189L36.4406 127.046C35.544 129.547 34.2468 133.197 32.6029 137.808L32.564 137.749L106.689 137.713H112.179L112.108 137.823C110.03 132.808 108.007 127.912 106.064 123.219L106.133 123.265L57.2673 123.231L42.9744 123.21H39.1366H38.1443L37.8006 123.173Z" fill="#263238"/>
<g opacity="0.3">
<path d="M81.8569 75.9165C81.7075 74.3428 80.3625 73.7733 79.0982 73.608C76.4351 73.2253 73.4193 74.006 71.2314 72.4139C70.5335 71.8879 70.0002 71.1651 69.6966 70.3339C69.393 69.5026 69.3323 68.5988 69.5217 67.7327C69.8206 66.4192 70.7173 64.9772 69.8475 63.8689C69.6785 63.663 69.4689 63.4961 69.2324 63.379C68.996 63.2618 68.7381 63.1972 68.4756 63.1892C67.9768 63.1757 67.4817 63.2805 67.029 63.4954C66.0507 63.9376 65.2551 64.7178 64.7814 65.6998C63.6789 68.0242 63.477 70.6902 64.2165 73.161C64.6681 74.7011 65.4518 76.1177 66.5098 77.3058C67.5678 78.4939 68.8729 79.4233 70.3287 80.0252C71.7935 80.6039 73.3637 80.849 74.9303 80.7432C76.4968 80.6375 78.0221 80.1835 79.4001 79.4129C80.4372 78.8281 81.4146 78.032 81.7643 76.8135C81.8499 76.5231 81.8813 76.2188 81.8569 75.9165V75.9165Z" fill="white"/>
</g>
<g opacity="0.3">
<path d="M75.138 61.5022C75.1386 61.7562 75.0656 62.0047 74.9282 62.2161C74.7908 62.4275 74.5952 62.5924 74.3663 62.6899C74.1373 62.7874 73.8853 62.813 73.6421 62.7636C73.3988 62.7142 73.1754 62.592 73.0001 62.4124C72.8248 62.2328 72.7054 62.0039 72.6572 61.7548C72.609 61.5057 72.634 61.2475 72.7292 61.013C72.8244 60.7784 72.9853 60.5781 73.1917 60.4374C73.3981 60.2967 73.6407 60.2219 73.8886 60.2225C74.22 60.2225 74.5378 60.3573 74.7721 60.5973C75.0064 60.8373 75.138 61.1628 75.138 61.5022V61.5022Z" fill="white"/>
</g>
<path d="M69.7101 81.1886C69.6372 81.1673 69.567 81.1375 69.5008 81.0998C69.3693 81.0325 69.1661 80.9498 68.924 80.7937C68.225 80.4038 67.5678 79.94 66.9633 79.4098C66.0638 78.6233 65.2814 77.7063 64.6409 76.688C63.0338 74.1795 62.4154 71.14 62.9103 68.1828C63.099 66.9923 63.4554 65.8362 63.9684 64.7507C64.315 64.0177 64.7357 63.324 65.2237 62.681C65.3911 62.4514 65.5465 62.2922 65.6422 62.1758C65.6898 62.1158 65.7418 62.0595 65.7976 62.0074C65.7591 62.0744 65.7151 62.1379 65.6661 62.1973C65.5794 62.3197 65.4329 62.482 65.2745 62.7208C64.8104 63.3719 64.4099 64.0682 64.079 64.7997C63.5792 65.8835 63.234 67.0352 63.0538 68.2195C62.5791 71.1403 63.189 74.1374 64.7634 76.6207C65.3912 77.6316 66.156 78.5459 67.035 79.3363C67.6284 79.8704 68.271 80.3441 68.9539 80.7508C69.19 80.9039 69.3903 80.9927 69.5158 81.057C69.5847 81.0941 69.6498 81.1382 69.7101 81.1886Z" fill="white"/>
<path d="M74.7794 82.003C74.3606 82.0575 73.9368 82.0575 73.518 82.003C73.0952 82.0046 72.6738 81.9542 72.2627 81.8529C72.6824 81.7984 73.1073 81.7984 73.527 81.8529C73.9488 81.8514 74.3693 81.9018 74.7794 82.003V82.003Z" fill="white"/>
<path d="M85.4166 71.8261C85.3838 71.8261 85.5213 71.2138 85.5661 70.2433C85.5661 69.9953 85.581 69.7289 85.5661 69.4411C85.5511 69.1533 85.5302 68.8441 85.5003 68.5226C85.3357 67.1256 84.9095 65.7741 84.245 64.5425C84.0836 64.2639 83.9461 63.9914 83.7757 63.7587C83.6054 63.526 83.4769 63.3025 83.3155 63.1066C82.7177 62.3381 82.2693 61.937 82.2903 61.9125C82.4073 61.9909 82.5156 62.0823 82.6131 62.185C82.7374 62.295 82.8552 62.4126 82.9657 62.5371C83.0973 62.6841 83.2646 62.8433 83.4021 63.0362C83.572 63.2431 83.7316 63.4587 83.8803 63.6822C84.0507 63.9179 84.2032 64.1904 84.3705 64.469C85.0583 65.7145 85.4906 67.0908 85.6408 68.5134C85.6738 68.8185 85.6917 69.125 85.6946 69.4319C85.7032 69.7026 85.6962 69.9735 85.6737 70.2433C85.6624 70.4658 85.6394 70.6876 85.6049 70.9076C85.5865 71.0745 85.5586 71.2401 85.5213 71.4036C85.4981 71.5472 85.4631 71.6886 85.4166 71.8261Z" fill="white"/>
<g opacity="0.3">
<path d="M28.5977 107.158V111.34H115.428V107.788L28.5977 107.158Z" fill="black"/>
</g>
<path d="M40.135 123.173L36.0461 135.961H108.691L103.957 123.173H40.135Z" fill="#455A64"/>
<path d="M106.45 123.173C106.45 123.216 91.003 123.252 71.9578 123.252C52.9125 123.252 37.4629 123.216 37.4629 123.173C37.4629 123.13 52.9035 123.093 71.9578 123.093C91.012 123.093 106.45 123.127 106.45 123.173Z" fill="#263238"/>
<path d="M105.714 59.5275L111.011 61.0246L107.098 62.0043C105.099 62.3319 104.205 63.2106 103.843 64.3526L102.621 74.456L101.126 64.3526C100.942 63.882 100.663 63.4565 100.307 63.104C99.9511 62.7516 99.5265 62.4801 99.0611 62.3074L93.98 61.0368L99.3421 59.4815C99.7847 59.2951 100.186 59.0181 100.52 58.6675C100.855 58.3169 101.116 57.9001 101.288 57.4425L102.624 46.0103L103.583 57.1945C103.739 57.7252 104.012 58.2119 104.382 58.6166C104.752 59.0213 105.208 59.333 105.714 59.5275V59.5275Z" fill="white"/>
<path d="M108.443 73.409L109.678 73.758L108.766 73.9876C108.3 74.0642 108.094 74.2693 108.007 74.5326L107.723 76.884L107.373 74.5296C107.331 74.42 107.266 74.3209 107.183 74.2391C107.1 74.1573 107.001 74.0945 106.892 74.055L105.711 73.7488L106.961 73.3876C107.063 73.3435 107.156 73.2788 107.234 73.1973C107.311 73.1158 107.372 73.0191 107.412 72.913L107.711 70.2524L107.935 72.8548C107.971 72.9818 108.036 73.0982 108.124 73.1945C108.212 73.2908 108.322 73.3643 108.443 73.409V73.409Z" fill="white"/>
<path d="M90.1483 47.4983C90.1483 47.4983 89.0783 46.0073 88.5522 45.7226C88.0262 45.4378 87.2969 45.4501 86.9801 45.744L86.6602 46.0502C86.6602 46.0502 84.9984 45.2878 84.1974 45.8757C84.1974 45.8757 82.6163 45.1102 81.8601 45.9859C81.8601 45.9859 80.6406 45.1745 80.1265 45.8818C79.6124 46.589 79.6632 47.7892 79.9143 48.4046C80.1654 49.02 80.6286 51.1233 80.9933 51.1601C80.9933 51.1601 81.9647 51.2641 82.0962 50.7284C82.2277 50.1926 82.2785 49.9293 82.2785 49.9293C82.2785 49.9293 82.6521 51.8336 83.0975 51.9285C83.5428 52.0234 84.3976 51.9714 84.4275 51.1356C84.4275 51.1356 84.843 51.7663 85.2495 51.5826C85.656 51.3989 86.1461 51.0958 86.1103 50.5783C86.0744 50.0609 86.0595 49.5466 86.0595 49.5466C86.0595 49.5466 86.2807 50.2997 86.6573 50.1344C87.0339 49.9691 87.3925 50.0058 87.5988 49.369C87.805 48.7322 88.3161 47.5136 88.3161 47.5136L90.1483 47.4983Z" fill="#FFBE9D"/>
<path d="M86.0864 49.4884C86.1103 49.4884 86.0116 49.2832 85.928 48.9495C85.8161 48.52 85.7977 48.0706 85.8742 47.633C85.9553 47.1915 86.1297 46.7735 86.3853 46.4084C86.5825 46.1297 86.7379 45.9828 86.723 45.9644C86.7081 45.946 86.5227 46.0655 86.2956 46.3349C85.9995 46.6946 85.7997 47.127 85.7159 47.5897C85.6321 48.0523 85.667 48.5294 85.8174 48.974C85.8645 49.1655 85.9569 49.3421 86.0864 49.4884V49.4884Z" fill="#EB996E"/>
<path d="M84.0957 45.8695C83.9883 46.1071 83.9168 46.36 83.8835 46.6196C83.7686 47.2399 83.7305 47.8725 83.7699 48.5025C83.8125 49.128 83.933 49.7454 84.1286 50.3395C84.1917 50.5917 84.2925 50.8323 84.4275 51.0529C84.1777 50.2135 84.0085 49.3511 83.9224 48.478C83.8963 47.6048 83.9543 46.7311 84.0957 45.8695V45.8695Z" fill="#EB996E"/>
<path d="M81.8212 45.9951C81.7059 46.6607 81.6978 47.3413 81.7973 48.0096C81.8472 48.6838 82.0057 49.3449 82.2665 49.966C82.3143 49.9507 82.0782 49.0842 81.9676 47.9912C81.857 46.8982 81.872 45.9981 81.8212 45.9951Z" fill="#EB996E"/>
<path d="M75.2816 46.4237C75.3216 46.3373 75.3799 46.2611 75.4523 46.2008C75.5247 46.1404 75.6093 46.0973 75.7 46.0747C75.9106 46.0284 76.1289 46.0343 76.3369 46.0918C76.5448 46.1493 76.7363 46.2568 76.8956 46.4053C77.2483 46.7265 77.5507 47.1013 77.7922 47.5167L75.437 47.5014C75.4549 47.137 75.1501 46.7666 75.2816 46.4237Z" fill="#FFBE9D"/>
<path d="M28.3767 68.1736C29.676 68.3975 30.986 68.5508 32.3011 68.6328L35.3856 70.776L37.3404 73.409C37.0654 73.9846 35.7772 73.7396 35.7772 73.7396L33.933 72.0649L32.5402 71.7587L33.138 72.8028L35.9775 74.799L36.6589 75.3898C36.6589 75.3898 38.4762 76.4431 39.1188 76.9207C39.8212 77.4381 40.0812 77.8698 39.869 78.1637C39.6119 78.5127 38.9454 78.4699 38.5569 78.2862L35.0987 76.9054C35.0987 76.9054 33.6043 77.634 32.8331 77.5759C32.062 77.5177 30.7409 77.2697 30.7409 77.2697L29.8442 77.8147C29.7595 77.9076 29.647 77.969 29.5244 77.9892C29.232 78.0576 28.9278 78.0542 28.6369 77.9791C28.346 77.9041 28.0766 77.7596 27.8506 77.5575L25.7315 75.7205C25.2652 75.3194 24.4403 74.1193 23.717 72.9987C23.2744 72.3178 22.9903 71.542 22.8866 70.7309C22.783 69.9198 22.8626 69.0951 23.1192 68.3205C23.3359 67.7126 23.6802 67.1608 24.128 66.7042C24.5758 66.2476 25.1161 65.8974 25.7106 65.6783L31.3118 57.8956L31.2819 68.5685" fill="#FFBE9D"/>
<path d="M31.8108 75.5123C32.2759 75.9037 32.8038 76.2093 33.371 76.4155C33.9179 76.6742 34.5044 76.8337 35.1046 76.887C35.1046 76.838 34.3424 76.639 33.4338 76.2563C32.5251 75.8736 31.8377 75.4694 31.8108 75.5123Z" fill="#EB996E"/>
<path d="M29.7544 76.835C29.7275 76.8839 30.137 77.0952 30.6511 77.233C30.9631 77.3491 31.2936 77.4041 31.6255 77.3952C31.3326 77.2384 31.0182 77.1279 30.6929 77.0676C30.3868 76.9641 30.0729 76.8863 29.7544 76.835V76.835Z" fill="#EB996E"/>
<path d="M37.4121 75.8001C37.1427 75.5845 36.8612 75.3851 36.5692 75.2031C36.0461 74.8388 35.3318 74.3275 34.5607 73.7335C34.1751 73.4273 33.8104 73.1518 33.4847 72.8854C33.1896 72.6664 32.9303 72.4008 32.7165 72.0986C32.5315 71.812 32.4356 71.4747 32.4415 71.1311C32.3998 71.2184 32.3832 71.3161 32.3937 71.4128C32.4036 71.6785 32.4808 71.937 32.6179 72.1629C32.8241 72.4881 33.084 72.774 33.386 73.0079C33.7118 73.2804 34.0735 73.5743 34.462 73.8713C35.2361 74.4652 35.9565 74.9673 36.5064 75.3041C36.7893 75.5036 37.0931 75.6699 37.4121 75.8001V75.8001Z" fill="#EB996E"/>
<path d="M32.7852 71.7465C32.7852 71.7741 33.0362 71.8169 33.4158 71.97C33.91 72.1743 34.3539 72.488 34.716 72.8885C34.9025 73.1303 35.1118 73.3528 35.3407 73.5529C35.5461 73.7124 35.792 73.808 36.049 73.8284C36.2755 73.8637 36.5069 73.8437 36.7245 73.7703C36.7245 73.7396 36.4645 73.7703 36.064 73.706C35.8344 73.6736 35.6175 73.5784 35.4363 73.4304C35.2203 73.2276 35.0204 73.0075 34.8385 72.7722C34.4609 72.3506 33.9846 72.0345 33.4547 71.8537C33.2428 71.7645 33.0134 71.7278 32.7852 71.7465V71.7465Z" fill="#EB996E"/>
<path d="M31.9872 68.6175C31.9872 68.5655 30.5944 68.4828 28.9236 68.195C27.2528 67.9072 25.9347 67.549 25.9167 67.6164C26.1816 67.731 26.4556 67.8222 26.7357 67.8888C27.2618 68.0358 28.015 68.2164 28.8668 68.3603C29.8946 68.5631 30.941 68.6493 31.9872 68.6175Z" fill="#EB996E"/>
</svg>
