<svg width="118" height="109" viewBox="0 0 118 109" fill="none" xmlns="http://www.w3.org/2000/svg">
<path d="M32.7356 55.0978L31.9883 80.1897C31.9887 81.5375 32.3149 82.8643 32.9377 84.0516C33.5606 85.2389 34.4607 86.2497 35.5578 86.9939V86.9939C37.0694 88.0188 38.8769 88.4851 40.682 88.3157C42.4872 88.1464 44.182 87.3516 45.4867 86.0626L53.4945 78.1528L52.6311 59.6552L41.9333 70.9229L41.3937 54.8933L32.7356 55.0978Z" fill="#FFBE9D"/>
<path d="M64.7103 45.5823L54.0772 50.5598L42.8209 67.565L52.2102 80.1565L59.3978 76.9257L64.7103 45.5823Z" fill="#FEB139"/>
<path d="M41.8011 70.7764C41.8416 70.7764 41.8713 72.6502 41.8713 74.9635C41.8713 77.2767 41.8416 79.1533 41.8011 79.1533C41.7606 79.1533 41.731 77.2795 41.731 74.9635C41.731 72.6475 41.7633 70.7764 41.8011 70.7764Z" fill="#EB996E"/>
<path d="M57.9788 49.1254L63.5125 46.2096L66.6908 42.5145L81.5058 41.5168L85.5934 44.7089L95.7327 47.8098L93.6363 76.2098L95.6814 107.998L54.0774 108.048V77.0113L57.9788 49.1254Z" fill="#FEB139"/>
<path d="M54.0153 66.7275C54.0531 66.7275 54.099 74.9247 54.1125 85.0344C54.126 95.1441 54.1125 103.344 54.072 103.344C54.0315 103.344 53.9884 95.1496 53.9722 85.0344C53.956 74.9192 53.9803 66.7275 54.0153 66.7275Z" fill="#263238"/>
<path d="M75.2192 70.7819C75.1491 70.7867 75.0788 70.7867 75.0088 70.7819L74.4071 70.7598L72.192 70.6548H72.1434V70.605C72.1785 68.8141 72.2271 66.3987 72.281 63.7372C72.3512 60.9901 72.4132 58.5027 72.4591 56.6842C72.4888 55.7943 72.5131 55.0702 72.532 54.5478C72.5427 54.3065 72.5508 54.113 72.5562 53.9674C72.5579 53.8998 72.5643 53.8324 72.5751 53.7657C72.5815 53.8328 72.5815 53.9004 72.5751 53.9674V54.5506C72.5751 55.0702 72.5589 55.797 72.5481 56.6869C72.5131 58.5055 72.4645 60.9928 72.4105 63.74C72.3431 66.4014 72.281 68.8169 72.2352 70.605L72.1866 70.5525L74.399 70.7045L75.0007 70.7543C75.0744 70.7539 75.1478 70.7632 75.2192 70.7819V70.7819Z" fill="#263238"/>
<path d="M74.3937 57.6791C74.4667 57.6682 74.5411 57.6808 74.6068 57.7151C74.7953 57.793 74.9523 57.9343 75.052 58.1158C75.1314 58.2494 75.1795 58.4 75.1926 58.5558C75.2057 58.7117 75.1834 58.8685 75.1276 59.014C75.0553 59.1885 74.9254 59.3313 74.7606 59.4175C74.586 59.5094 74.3896 59.5487 74.194 59.5308C73.9992 59.5149 73.8125 59.4441 73.6544 59.3263C73.5047 59.2133 73.3987 59.0499 73.3549 58.8648C73.3234 58.712 73.3265 58.5538 73.3639 58.4024C73.4013 58.2511 73.4721 58.1105 73.5708 57.9914C73.7 57.8302 73.8772 57.7166 74.0753 57.6681C74.1456 57.6454 74.2209 57.6454 74.2912 57.6681C74.2912 57.6819 74.2156 57.6681 74.0888 57.7206C73.913 57.7833 73.7597 57.8989 73.649 58.0522C73.5666 58.1609 73.5086 58.2868 73.4793 58.4211C73.4499 58.5553 73.4498 58.6946 73.479 58.8288C73.5366 58.9826 73.6354 59.1165 73.7641 59.2151C73.8928 59.3138 74.046 59.3732 74.2062 59.3865C74.3664 59.3998 74.527 59.3664 74.6695 59.2902C74.812 59.2141 74.9306 59.0982 75.0115 58.956C75.0613 58.8284 75.083 58.6912 75.075 58.5541C75.0671 58.417 75.0298 58.2834 74.9657 58.1628C74.8801 57.9938 74.7478 57.8544 74.5852 57.762C74.4665 57.7012 74.391 57.693 74.3937 57.6791Z" fill="#263238"/>
<path d="M74.3613 63.1624C74.4343 63.1514 74.5088 63.164 74.5745 63.1983C74.7628 63.2764 74.9198 63.4177 75.0196 63.599C75.0992 63.7325 75.1477 63.883 75.1612 64.0388C75.1748 64.1945 75.1531 64.3514 75.0979 64.4972C75.0239 64.6722 74.8934 64.8156 74.7282 64.9035C74.5529 64.9933 74.3571 65.0324 74.1617 65.0168C73.9666 64.9999 73.7798 64.9282 73.622 64.8095C73.474 64.6961 73.3683 64.5342 73.3226 64.3508C73.2906 64.1978 73.2937 64.0393 73.3316 63.8878C73.3695 63.7362 73.4412 63.5958 73.5411 63.4774C73.6677 63.3144 73.8447 63.2004 74.0429 63.1541C74.1133 63.1322 74.1884 63.1322 74.2588 63.1541C74.2588 63.1541 74.1832 63.1541 74.0564 63.2066C73.8814 63.2708 73.7292 63.3873 73.6193 63.541C73.5363 63.6487 73.4779 63.7742 73.4485 63.9081C73.4191 64.042 73.4194 64.181 73.4494 64.3148C73.5061 64.4688 73.6044 64.6031 73.7327 64.7023C73.861 64.8014 74.0141 64.8612 74.1742 64.8748C74.3343 64.8884 74.495 64.8552 74.6374 64.7791C74.7799 64.703 74.8984 64.587 74.9792 64.4447C75.0297 64.3169 75.0518 64.1791 75.0439 64.0414C75.0359 63.9038 74.9982 63.7696 74.9333 63.6488C74.8486 63.4792 74.716 63.3395 74.5529 63.248C74.4369 63.1872 74.3586 63.1762 74.3613 63.1624Z" fill="#263238"/>
<g opacity="0.3">
<path d="M60.504 72.1334C64.2597 77.3845 67.2006 83.2297 71.3826 88.116C75.5646 93.0023 81.4463 96.9599 87.7841 96.6448C89.8076 96.5426 93.3664 95.8461 94.799 94.3896L94.2594 88.8263C83.8718 86.0354 74.2636 80.7993 66.1996 73.5346C64.7912 72.2633 63.1643 70.8372 61.3027 71.0776" fill="black"/>
</g>
<path d="M62.514 27.0378C64.8222 27.0378 66.6933 24.9862 66.6933 22.4555C66.6933 19.9248 64.8222 17.8733 62.514 17.8733C60.2059 17.8733 58.3347 19.9248 58.3347 22.4555C58.3347 24.9862 60.2059 27.0378 62.514 27.0378Z" fill="#FEB139"/>
<path d="M62.8459 17.8733C62.9955 17.9608 63.1495 18.0401 63.3073 18.1109C63.722 18.3267 64.0943 18.619 64.4054 18.9732C64.8521 19.5097 65.1634 20.1503 65.3119 20.8387C65.5331 21.673 65.5331 22.5526 65.3119 23.3869C65.0924 24.2235 64.6615 24.9861 64.0627 25.5979C63.5807 26.101 62.9747 26.461 62.309 26.6398C61.8614 26.7653 61.3901 26.7739 60.9384 26.6647C60.62 26.5818 60.4608 26.485 60.4501 26.5016C60.4393 26.5182 60.4851 26.5348 60.5607 26.5818C60.6744 26.6481 60.7947 26.7018 60.9195 26.7421C61.3816 26.885 61.8726 26.8984 62.3414 26.7807C63.0408 26.6131 63.6814 26.2505 64.1923 25.7333C64.8209 25.1063 65.2737 24.3179 65.5035 23.4505C65.7387 22.5853 65.7387 21.6707 65.5035 20.8056C65.3414 20.0914 65.0043 19.4313 64.5241 18.8876C64.1931 18.5335 63.7957 18.2515 63.3559 18.0584C63.2385 18.0041 63.1177 17.958 62.9943 17.9203C62.8945 17.876 62.8486 17.865 62.8459 17.8733Z" fill="#263238"/>
<path d="M66.1403 24.8323C66.1645 24.8323 66.2023 24.7466 66.1888 24.6001C66.1653 24.4045 66.0711 24.2251 65.9248 24.0972C65.7784 23.9693 65.5906 23.9022 65.3983 23.9092C65.2526 23.9092 65.1744 23.97 65.1825 23.9949C65.1906 24.0197 65.5224 24.0114 65.7949 24.2519C66.0674 24.4923 66.0863 24.8323 66.1403 24.8323Z" fill="#263238"/>
<path d="M65.9676 23.4228C65.9865 23.3703 65.8597 23.2764 65.6762 23.2708C65.4927 23.2653 65.3605 23.351 65.3767 23.4035C65.3929 23.456 65.5224 23.467 65.6708 23.4726C65.8192 23.4781 65.9487 23.4753 65.9676 23.4228Z" fill="#263238"/>
<path d="M65.9649 19.6365C65.9918 19.5868 65.7436 19.4541 65.4468 19.5729C65.15 19.6918 65.0556 19.9599 65.1069 19.9792C65.1581 19.9986 65.293 19.8493 65.5197 19.7636C65.7463 19.678 65.9487 19.6918 65.9649 19.6365Z" fill="#263238"/>
<path d="M73.4414 53.2765C71.4619 53.1117 69.6229 52.1643 68.3135 50.6348C67.0041 49.1053 66.3274 47.1138 66.4264 45.0821C66.5694 42.1138 66.7205 39.4386 66.7205 39.4386C66.7205 39.4386 60.515 38.4491 60.434 32.0898C60.3531 25.7305 61.4323 11.127 61.4323 11.127C64.9618 9.57387 68.832 9.01375 72.6434 9.50444C76.4548 9.99514 80.0694 11.5189 83.1139 13.9183L84.0339 14.6452L81.6839 46.0687C81.6073 47.0973 81.3329 48.1003 80.8767 49.0199C80.4204 49.9396 79.7912 50.7578 79.0253 51.4276C78.2593 52.0974 77.3717 52.6056 76.4134 52.9229C75.4552 53.2402 74.4451 53.3603 73.4414 53.2765V53.2765Z" fill="#FFBE9D"/>
<path d="M66.6962 39.3474C66.6962 39.3474 70.6191 39.6735 74.7903 36.9927C74.7903 36.9927 72.8774 41.5694 66.6962 40.9945V39.3474Z" fill="#EB996E"/>
<path d="M71.326 28.1792C71.1722 28.1792 71.1695 29.2321 70.2819 29.9839C69.3942 30.7356 68.2934 30.6223 68.2853 30.7688C68.2718 30.8351 68.5308 30.9761 68.9976 30.9899C69.6045 30.9974 70.1947 30.7861 70.665 30.3929C71.1155 30.0152 71.4057 29.4734 71.4744 28.8811C71.5122 28.4251 71.3988 28.1736 71.326 28.1792Z" fill="#263238"/>
<path d="M71.736 16.4278C71.8277 16.7042 72.7828 16.566 73.8944 16.7042C75.006 16.8424 75.9207 17.1547 76.0691 16.917C76.1338 16.8037 75.9773 16.5522 75.6131 16.2952C75.1265 15.9788 74.5756 15.7807 74.0028 15.716C73.4299 15.6514 72.8502 15.7218 72.308 15.9221C71.9006 16.0906 71.6955 16.3007 71.736 16.4278Z" fill="#263238"/>
<path d="M62.4575 18.6167C62.6275 18.8571 63.3964 18.7024 64.2949 18.7853C65.1934 18.8682 65.9407 19.1004 66.1377 18.8875C66.224 18.7825 66.1377 18.5504 65.8139 18.3072C65.381 18.0082 64.8792 17.8308 64.3584 17.7925C63.8377 17.7542 63.3162 17.8563 62.846 18.0888C62.5088 18.2851 62.3793 18.5006 62.4575 18.6167Z" fill="#263238"/>
<path d="M83.2649 21.2395C83.3702 21.1925 87.5306 19.9488 87.3957 24.2962C87.2608 28.6435 83.0248 27.6126 83.0221 27.4827C83.0194 27.3528 83.2649 21.2395 83.2649 21.2395Z" fill="#FFBE9D"/>
<path d="M84.3711 25.8687C84.39 25.8687 84.444 25.9239 84.5654 25.9875C84.7352 26.0665 84.9278 26.0773 85.105 26.0179C85.5583 25.8631 85.9576 25.1473 86.0034 24.3597C86.0266 23.9871 85.9676 23.614 85.8308 23.268C85.7957 23.1304 85.7281 23.0037 85.634 22.8992C85.5399 22.7946 85.4222 22.7153 85.2912 22.6683C85.2066 22.6421 85.1157 22.6471 85.0344 22.6825C84.953 22.7178 84.8864 22.7812 84.846 22.8617C84.7866 22.9806 84.8109 23.069 84.7866 23.0745C84.7623 23.0801 84.7003 22.9999 84.7381 22.8203C84.7633 22.7101 84.8253 22.6123 84.9134 22.5439C85.0329 22.4564 85.1812 22.4207 85.3262 22.4444C85.5056 22.4863 85.671 22.5758 85.806 22.7039C85.9409 22.8319 86.0407 22.9941 86.0952 23.174C86.2626 23.5574 86.3376 23.9763 86.3137 24.3956C86.2571 25.2717 85.7957 26.0759 85.1751 26.239C85.0602 26.2691 84.9402 26.2723 84.8239 26.2483C84.7076 26.2244 84.598 26.174 84.5033 26.1008C84.3738 25.9764 84.3549 25.877 84.3711 25.8687Z" fill="#EB996E"/>
<path d="M59.0525 5.63272C59.5054 4.71683 60.157 3.91934 60.9574 3.30139C61.7578 2.68344 62.6857 2.26144 63.67 2.06774C64.6543 1.87404 65.6688 1.91379 66.6358 2.18395C67.6028 2.4541 68.4965 2.94748 69.2485 3.62625C69.7278 2.67002 70.4247 1.84593 71.2803 1.2235C72.1358 0.60108 73.125 0.198591 74.1643 0.0499997C74.2938 0.0334173 74.4341 0.0195989 74.5555 0.0113077C77.3103 -0.171098 79.7385 1.87405 80.2997 4.6433L80.6046 6.1523C80.6046 6.1523 85.8523 7.97359 87.0664 8.97958C87.7388 9.5321 88.2495 10.2639 88.5421 11.0944C88.8348 11.925 88.8981 12.8221 88.7252 13.6872C88.5523 14.5522 88.1498 15.3517 87.562 15.9976C86.9742 16.6435 86.2239 17.1108 85.3936 17.3481C86.7265 19.8078 85.4773 23.3371 82.9168 24.3514L82.299 24.0888C81.1429 22.7422 80.4035 21.0743 80.1743 19.2965C79.9452 17.5187 80.2368 15.7113 81.012 14.1035C80.9364 14.1035 80.8663 14.1035 80.7907 14.1035C79.7213 14.7114 78.4702 14.8931 77.278 14.6135C76.0857 14.334 75.0364 13.6129 74.3316 12.589C73.4712 13.2035 72.4576 13.5541 71.4097 13.5996C70.3618 13.6451 69.3229 13.3837 68.4148 12.846C68.1507 12.643 67.847 12.5007 67.5244 12.4287C67.1332 12.3873 66.7636 12.5945 66.4128 12.7714C65.4793 13.2385 64.4324 13.5453 63.4072 13.3905C62.9258 13.3293 62.4672 13.1455 62.0731 12.8558C61.6791 12.5661 61.3622 12.1798 61.1516 11.7322H61.0787C59.8835 11.5112 58.9203 10.4637 58.5938 9.26425C58.3009 8.03741 58.4644 6.7428 59.0525 5.63272V5.63272Z" fill="#263238"/>
<path d="M86.4054 21.0322C86.4054 21.0322 89.0172 8.17262 81.7675 6.15234H80.6046C80.6046 6.15234 85.7876 10.2813 84.0284 20.6425" fill="#FEB139"/>
<path d="M84.3657 29.4146C86.6738 29.4146 88.545 27.363 88.545 24.8323C88.545 22.3016 86.6738 20.2501 84.3657 20.2501C82.0575 20.2501 80.1864 22.3016 80.1864 24.8323C80.1864 27.363 82.0575 29.4146 84.3657 29.4146Z" fill="#FEB139"/>
<path d="M84.0365 20.2501C84.0365 20.2501 83.9879 20.2501 83.9043 20.2805C83.7795 20.3156 83.6577 20.3609 83.54 20.4159C83.1009 20.6104 82.7038 20.8922 82.3718 21.245C81.8927 21.7895 81.5558 22.4493 81.3924 23.163C81.1592 24.0291 81.1576 24.9435 81.3878 25.8105C81.618 26.6774 82.0716 27.465 82.7009 28.0907C83.2113 28.6073 83.8508 28.9698 84.5491 29.1382C85.0188 29.2563 85.5108 29.2429 85.9737 29.0995C86.0977 29.0594 86.2171 29.0056 86.3298 28.9392C86.4081 28.8922 86.4458 28.8673 86.4404 28.8591C86.4351 28.8508 86.2705 28.9392 85.9521 29.0221C85.5005 29.1327 85.0289 29.1242 84.5815 28.9972C83.9167 28.8178 83.311 28.459 82.8278 27.9581C82.2306 27.345 81.8 26.5829 81.5786 25.7471C81.3585 24.9127 81.3585 24.0334 81.5786 23.199C81.7271 22.5105 82.0384 21.8699 82.4851 21.3334C82.7962 20.9792 83.1685 20.6869 83.5832 20.4712C83.8665 20.3302 84.0419 20.2694 84.0365 20.2501Z" fill="#263238"/>
<path d="M80.7395 27.2091C80.7961 27.2091 80.8123 26.8692 81.0875 26.6287C81.3627 26.3883 81.6919 26.427 81.7 26.3717C81.7081 26.3164 81.6271 26.2971 81.4841 26.286C81.2922 26.2807 81.1051 26.3475 80.958 26.4739C80.8101 26.6014 80.7139 26.7807 80.6882 26.9769C80.6801 27.1234 80.726 27.2119 80.7395 27.2091Z" fill="#263238"/>
<path d="M80.9148 25.7996C80.9337 25.8521 81.0632 25.8549 81.2116 25.8494C81.36 25.8438 81.4814 25.8355 81.503 25.7803C81.5246 25.725 81.3869 25.6421 81.2062 25.6476C81.0254 25.6531 80.8959 25.7471 80.9148 25.7996Z" fill="#263238"/>
<path d="M80.9149 22.0133C80.9338 22.0685 81.1388 22.0464 81.3627 22.1404C81.5867 22.2344 81.7243 22.3864 81.7755 22.356C81.8268 22.3256 81.7297 22.0796 81.4329 21.9497C81.1361 21.8198 80.8906 21.9635 80.9149 22.0133Z" fill="#263238"/>
<path d="M76.0745 1.37385C76.0745 1.40701 76.5871 1.39596 77.4019 1.43741C77.8777 1.46197 78.3496 1.53699 78.8103 1.66128C79.3679 1.81072 79.8823 2.09506 80.3104 2.49039C80.7394 2.87995 81.0147 3.41655 81.0847 3.99938C81.1225 4.47919 81.0486 4.96132 80.8689 5.40612C80.564 6.17443 80.2241 6.5807 80.2591 6.60557C80.3526 6.52663 80.4336 6.43341 80.4993 6.3292C80.6957 6.0607 80.8622 5.77055 80.9957 5.46416C81.2047 5.0011 81.2975 4.4919 81.2655 3.9828C81.2037 3.35251 80.9152 2.76831 80.4561 2.34391C80.0053 1.92551 79.4602 1.62827 78.8696 1.47887C78.3951 1.36109 77.909 1.29897 77.4208 1.2937C77.0053 1.2937 76.6707 1.2937 76.4414 1.3241C76.3173 1.32093 76.1935 1.33772 76.0745 1.37385V1.37385Z" fill="#263238"/>
<path d="M81.2657 1.13892C81.2387 1.16103 81.4302 1.41529 81.6083 1.91829C81.8478 2.55206 81.9124 3.24118 81.7948 3.91004C81.6773 4.57891 81.3822 5.2017 80.9419 5.71011C80.6073 6.10532 80.3348 6.28773 80.3537 6.31537C80.6206 6.20678 80.8577 6.03318 81.0444 5.80961C81.5373 5.30156 81.8676 4.65191 81.9915 3.94699C82.1153 3.24206 82.0268 2.51521 81.7378 1.86301C81.6383 1.58692 81.4765 1.33882 81.2657 1.13892V1.13892Z" fill="#263238"/>
<path d="M62.8838 6.51986C62.8846 6.5717 62.8937 6.62305 62.9108 6.67187C62.9452 6.81376 62.9912 6.95244 63.0484 7.08643C63.3106 7.71899 63.7348 8.26716 64.2763 8.67292C64.8177 9.07868 65.4562 9.32692 66.1242 9.39137C67.1332 9.47963 68.1357 9.15913 68.9166 8.49869L68.771 8.47934C68.9566 8.74734 69.1681 8.99549 69.4023 9.22002C70.2309 9.99634 71.312 10.4289 72.4349 10.4333C73.1928 10.4212 73.9349 10.2087 74.5891 9.81654C75.2433 9.42433 75.7875 8.86567 76.169 8.19468C76.2518 8.04968 76.3231 7.89811 76.3822 7.74143C76.4075 7.68821 76.4248 7.63137 76.4334 7.57284C76.4145 7.57284 76.3282 7.78841 76.1043 8.15323C75.7832 8.66277 75.368 9.10309 74.882 9.44941C74.1665 9.96832 73.3116 10.2474 72.4349 10.2481C71.362 10.2343 70.3312 9.81843 69.5372 9.07907C69.3122 8.86728 69.1104 8.63097 68.9355 8.37432L68.8708 8.28312L68.7898 8.35498C68.0487 8.98494 67.098 9.29602 66.1376 9.22278C65.3649 9.16219 64.6326 8.84487 64.0521 8.31905C63.6606 7.97014 63.3413 7.54444 63.1131 7.06708C62.9539 6.71885 62.9027 6.5171 62.8838 6.51986Z" fill="#455A64"/>
<path d="M62.4654 10.9888C62.4493 11.0054 62.6138 11.2403 62.9889 11.5056C63.4826 11.8485 64.0618 12.0393 64.6581 12.0554C65.2543 12.0716 65.8426 11.9124 66.3533 11.5968C66.5701 11.4835 66.7556 11.3162 66.893 11.1104C66.8714 11.0855 66.6609 11.2707 66.2751 11.4697C65.7746 11.7352 65.2166 11.8664 64.6532 11.8509C64.0898 11.8354 63.5395 11.6739 63.0536 11.3812C62.6867 11.1601 62.487 10.9667 62.4654 10.9888Z" fill="#455A64"/>
<path d="M62.5195 21.5158C62.6301 21.6346 63.3019 21.1261 64.2597 21.1289C65.2175 21.1316 65.9136 21.6208 66.0189 21.4992C66.0701 21.4467 65.9568 21.2228 65.6519 21.0045C65.2388 20.7103 64.7467 20.5548 64.2435 20.5596C63.7462 20.5575 63.2613 20.7183 62.8594 21.0183C62.5654 21.2532 62.4655 21.4688 62.5195 21.5158Z" fill="#263238"/>
<path d="M72.7775 21.4633C72.7752 21.7003 72.8634 21.9287 73.0231 22.1001C73.1829 22.2715 73.4016 22.3722 73.6328 22.3809C73.7465 22.3899 73.8609 22.3754 73.9691 22.3383C74.0772 22.3013 74.1771 22.2423 74.2626 22.165C74.3481 22.0877 74.4177 21.9936 74.4671 21.8882C74.5164 21.7829 74.5447 21.6685 74.5501 21.5518C74.5524 21.3141 74.464 21.0849 74.3037 20.913C74.1435 20.7411 73.924 20.6401 73.6921 20.6314C73.5783 20.6224 73.4639 20.637 73.3557 20.6743C73.2475 20.7116 73.1477 20.7708 73.0624 20.8484C72.977 20.9261 72.9078 21.0205 72.8589 21.1262C72.8099 21.2318 72.7822 21.3465 72.7775 21.4633V21.4633Z" fill="#263238"/>
<path d="M71.914 20.3937C72.0246 20.5126 72.6992 20.0013 73.6543 20.004C74.6094 20.0068 75.3109 20.4988 75.4134 20.3772C75.4647 20.3246 75.354 20.1008 75.0465 19.8824C74.6333 19.5882 74.1412 19.4328 73.6381 19.4375C73.1408 19.4358 72.656 19.5965 72.254 19.8963C71.9599 20.1339 71.8601 20.3412 71.914 20.3937Z" fill="#263238"/>
<path d="M68.4471 27.6541C68.4471 27.5988 67.8562 27.4938 66.893 27.3777C66.6502 27.3528 66.4182 27.3031 66.3777 27.1317C66.357 26.8737 66.4134 26.6154 66.5396 26.3911L67.2627 24.4869C68.2637 21.7784 68.9894 19.5481 68.8815 19.5122C68.7736 19.4762 67.8751 21.6347 66.8715 24.3459C66.6313 25.0147 66.3993 25.6504 66.1808 26.2612C66.089 26.5375 65.9298 26.8664 66.0539 27.2423C66.0898 27.3302 66.1446 27.4086 66.2142 27.4718C66.2838 27.5349 66.3665 27.5812 66.456 27.6071C66.5903 27.6456 66.7292 27.6651 66.8688 27.6651C67.8401 27.7066 68.4417 27.7094 68.4471 27.6541Z" fill="#263238"/>
<path d="M66.5422 42.6583L72.227 50.9992L72.7424 53.1853L73.6624 50.9992L82.4635 42.2658V50.6427L75.891 54.6915L72.227 55.0978L66.6906 52.9697L65.0934 49.5676L66.5422 42.6583Z" fill="#FEB139"/>
<path d="M71.9978 51.0048C71.9978 51.0186 71.8494 51.0048 71.5823 51.0628C71.2053 51.1542 70.852 51.3276 70.5463 51.5713C69.7504 52.1766 68.9274 53.3982 68.3366 54.9348L68.2826 55.0702L68.2152 54.9431L67.2088 53.1107C66.1808 51.2176 65.2527 49.5179 64.5701 48.2438C64.2436 47.633 63.9792 47.1383 63.7849 46.7625C63.6986 46.5966 63.6312 46.464 63.5772 46.3562C63.5498 46.3103 63.528 46.2611 63.5125 46.2097C63.5483 46.2492 63.5783 46.2939 63.6015 46.3424C63.6608 46.4446 63.7391 46.5745 63.8308 46.7348C64.0359 47.0969 64.3138 47.5916 64.6564 48.1941L67.3302 53.0416C67.6809 53.6801 68.0182 54.2991 68.3312 54.8767H68.2098C68.8168 53.3208 69.664 52.0964 70.495 51.4912C70.814 51.2476 71.1832 51.0822 71.5742 51.0075C71.6787 50.9918 71.7843 50.9854 71.8899 50.9882C71.9628 50.9965 71.9978 50.9992 71.9978 51.0048Z" fill="#263238"/>
<path d="M85.0132 44.7311C84.9858 44.7893 84.9533 44.8448 84.9161 44.8969C84.8405 45.013 84.7434 45.1733 84.6193 45.3557C84.3495 45.7509 83.969 46.3175 83.4699 47.0139C82.1713 48.8017 80.7789 50.5159 79.2987 52.1489C78.1682 53.4009 77.0539 54.5202 76.0826 55.4433L76.0179 55.5096L75.9855 55.4212C75.5914 54.3385 75.1085 53.2919 74.542 52.2926C74.337 51.9306 74.1643 51.6514 74.0483 51.4635C73.9837 51.3694 73.926 51.2706 73.8756 51.1678C73.8968 51.1888 73.9158 51.2119 73.9323 51.2369L74.0807 51.4442C74.2075 51.6266 74.3882 51.9002 74.6014 52.2733C75.1945 53.2632 75.6959 54.3078 76.0988 55.3935L76.0017 55.3686C76.9622 54.4373 78.0684 53.3152 79.1962 52.0688C80.9256 50.159 82.3772 48.3239 83.3917 46.9697C83.8989 46.2898 84.2982 45.7343 84.5761 45.3474L84.8945 44.9052C84.9269 44.8424 84.9668 44.7839 85.0132 44.7311V44.7311Z" fill="#263238"/>
<g opacity="0.3">
<path d="M72.5805 56.5129C73.0338 55.9435 72.9744 54.9209 73.6597 54.6694C73.8287 54.615 74.0096 54.6121 74.1802 54.6612C74.3507 54.7102 74.5037 54.8092 74.6203 54.9458C75.2489 55.6367 75.0681 56.6538 75.6401 57.3807C75.7449 57.5183 75.8811 57.6275 76.0367 57.6985C76.6843 57.9887 77.2266 57.4774 77.6556 57.0076C78.4578 56.1213 79.2501 55.2268 80.0326 54.324C81.0651 53.1968 81.9894 51.9705 82.7927 50.6621C83.5988 49.3455 84.052 47.8346 84.1066 46.2816C81.646 49.4985 79.0127 52.6381 76.0556 55.377C75.713 54.1112 74.9629 52.8426 74.2776 51.7427C74.1805 51.5879 73.8459 51.0628 73.6759 50.9965C73.5896 50.9605 73.7623 50.9578 73.6759 50.9965L72.7559 53.1826C72.7559 53.1826 72.3431 51.4055 72.2406 50.9965C71.8725 50.9738 71.5041 51.0341 71.1613 51.1733C70.8928 51.3015 70.6386 51.459 70.4032 51.6432C69.3801 52.401 68.6753 53.5278 68.4309 54.7966C69.0002 54.6612 69.4157 54.1803 69.8555 53.7878C70.2953 53.3954 70.8969 53.0554 71.4392 53.2765C71.9815 53.4976 72.2082 54.1996 72.2487 54.8159C72.2891 55.4322 72.219 56.0845 72.5185 56.6206" fill="black"/>
</g>
<path d="M83.9529 16.787L84.0311 19.5176L87.0314 19.9073L87.1285 17.0524L83.9529 16.787Z" fill="#455A64"/>
<path d="M86.095 3.55164C86.1328 3.55164 86.1652 7.19975 86.1652 11.6991C86.1652 16.1984 86.1328 19.8465 86.095 19.8465C86.0573 19.8465 86.0249 16.1984 86.0249 11.6991C86.0249 7.19975 86.0546 3.55164 86.095 3.55164Z" fill="#455A64"/>
<path d="M85.4098 66.9431C85.4098 66.9431 85.4098 66.8934 85.4098 66.7939C85.4098 66.6944 85.4098 66.5396 85.3909 66.3489C85.3774 65.9537 85.3585 65.3816 85.3316 64.6464C85.2884 63.1596 85.2236 61.0177 85.1427 58.3756C85.0618 55.7334 84.9781 52.5718 84.8729 49.0756C84.8405 48.2023 84.8351 47.2986 84.7839 46.3948C84.7824 46.1726 84.7353 45.9531 84.6455 45.7508C84.5558 45.5484 84.4255 45.3676 84.2631 45.2203C84.0917 45.0849 83.8806 45.0128 83.6642 45.0157C83.5602 45.0184 83.4588 45.0496 83.3706 45.106C83.2823 45.1623 83.2104 45.2419 83.1623 45.3363C83.0825 45.5412 83.0819 45.7696 83.1606 45.9749C83.2393 46.1803 83.3914 46.3472 83.5859 46.4418C83.8015 46.5112 84.032 46.5157 84.2501 46.455C84.4681 46.3943 84.6646 46.2708 84.8162 46.0991C85.1305 45.738 85.3109 45.2754 85.3262 44.7919C85.3701 44.3 85.3336 43.804 85.2182 43.3243C85.1506 43.0477 85.016 42.793 84.827 42.5837C84.6391 42.3818 84.3899 42.2513 84.1201 42.2133C83.9914 42.1918 83.8594 42.2061 83.7379 42.2548C83.6164 42.3034 83.5099 42.3845 83.4294 42.4897C83.3466 42.5898 83.2921 42.7112 83.2716 42.8407C83.2512 42.9703 83.2656 43.1031 83.3134 43.2248C83.3749 43.3373 83.4698 43.4269 83.5842 43.4805C83.6987 43.5342 83.8268 43.5492 83.9502 43.5233C84.0784 43.5068 84.2017 43.4625 84.3119 43.3934C84.4222 43.3243 84.5168 43.232 84.5896 43.1226C84.8864 42.6749 84.9026 42.089 84.8864 41.5556C84.8769 41.2893 84.8203 41.0271 84.7191 40.7817C84.6278 40.5407 84.4516 40.3435 84.2254 40.229C84.0011 40.1259 83.7464 40.1169 83.5158 40.2041C83.4046 40.243 83.3088 40.3181 83.2431 40.4179C83.1774 40.5176 83.1452 40.6366 83.1515 40.7568C83.1619 40.8736 83.2082 40.9839 83.2837 41.0719C83.4068 41.2026 83.5618 41.2972 83.7326 41.3458C83.9034 41.3944 84.0838 41.3952 84.255 41.3483C84.4718 41.2713 84.6552 41.1187 84.7731 40.9171C84.8989 40.7123 84.9842 40.4841 85.024 40.2456C85.1003 39.7729 85.1067 39.2913 85.0429 38.8167C84.9862 38.3635 84.8081 37.8909 84.4223 37.6919C84.2398 37.5861 84.0264 37.5508 83.8206 37.5924C83.7237 37.6114 83.6337 37.6572 83.5605 37.725C83.4872 37.7927 83.4335 37.8797 83.4051 37.9765C83.3861 38.0753 83.3884 38.1772 83.4117 38.275C83.4349 38.3729 83.4788 38.4644 83.54 38.5431C83.6534 38.7074 83.8151 38.8304 84.0014 38.8941C84.0912 38.9212 84.1854 38.9291 84.2783 38.9172C84.3711 38.9053 84.4606 38.8739 84.541 38.825C84.7047 38.7302 84.8393 38.5904 84.9295 38.4215C85.1083 38.0905 85.1584 37.7026 85.0699 37.3354C84.9759 36.9898 84.804 36.6717 84.568 36.4067C84.3468 36.1548 84.1059 35.9219 83.8476 35.7103L83.8287 35.6965V35.6744C83.9475 33.7397 84.0419 32.2308 84.0985 31.1833C84.1336 30.6693 84.1579 30.2713 84.1768 29.9949C84.1768 29.8622 84.1957 29.7628 84.2011 29.6881C84.2065 29.6135 84.2011 29.5859 84.2011 29.5859C84.2029 29.6199 84.2029 29.6541 84.2011 29.6881C84.2011 29.7628 84.2011 29.865 84.2011 29.9949C84.2011 30.2713 84.1687 30.672 84.1444 31.1861C84.0878 32.2335 84.0068 33.7563 83.907 35.6799L83.8908 35.644C84.1548 35.8557 84.4004 36.0906 84.6247 36.3459C84.8762 36.6194 85.0611 36.9499 85.1643 37.3105C85.2618 37.7032 85.2097 38.1192 85.0186 38.474C84.9193 38.6614 84.7707 38.8166 84.5896 38.9217C84.4965 38.9779 84.3931 39.0137 84.2859 39.027C84.1786 39.0403 84.0698 39.0308 83.9663 38.9991C83.7554 38.9305 83.5718 38.7938 83.4429 38.6094C83.3726 38.5171 83.3227 38.4102 83.2966 38.2962C83.2705 38.1821 83.2689 38.0636 83.2918 37.9489C83.3247 37.8313 83.3883 37.7251 83.4758 37.6418C83.5633 37.5585 83.6713 37.5013 83.7883 37.4763C84.0211 37.4281 84.263 37.4663 84.4709 37.5841C84.6826 37.7008 84.8534 37.8825 84.9592 38.1037C85.0633 38.3227 85.1308 38.5582 85.1589 38.8001C85.2236 39.2884 85.2181 39.7838 85.1427 40.2704C85.0982 40.5245 85.0066 40.7674 84.8729 40.9862C84.8042 41.098 84.7197 41.1986 84.622 41.2847C84.5228 41.3775 84.4035 41.4447 84.2739 41.4809C84.0792 41.5359 83.8735 41.5359 83.6788 41.481C83.4841 41.426 83.3075 41.3181 83.1677 41.1686C83.0739 41.0578 83.0163 40.9195 83.0031 40.7734C82.9967 40.6266 83.0364 40.4815 83.1166 40.3596C83.1967 40.2376 83.313 40.1454 83.4483 40.0963C83.711 39.9967 84.0013 40.0056 84.2577 40.1212C84.5125 40.2489 84.7123 40.4683 84.8189 40.7375C84.9279 41.0003 84.9891 41.2813 84.9997 41.5666C85.0145 41.848 85.0036 42.1302 84.9673 42.4095C84.9326 42.7002 84.8339 42.979 84.6786 43.2248C84.5946 43.3498 84.4858 43.4552 84.3594 43.5343C84.2329 43.6133 84.0917 43.6642 83.9448 43.6836C83.7927 43.7132 83.6354 43.6928 83.4954 43.6253C83.3553 43.5578 83.2397 43.4466 83.165 43.3078C83.1237 43.1951 83.1047 43.0752 83.109 42.955C83.1132 42.8348 83.1408 42.7166 83.19 42.6073C83.2391 42.4981 83.309 42.3999 83.3955 42.3185C83.482 42.2371 83.5834 42.1741 83.6938 42.1332C83.8384 42.0777 83.9939 42.0587 84.1471 42.0779C84.4487 42.1207 84.7274 42.2668 84.9376 42.4925C85.1426 42.7181 85.2891 42.9927 85.3639 43.2912C85.4847 43.7887 85.523 44.3035 85.4773 44.814C85.46 45.3249 85.2692 45.8137 84.9376 46.1958C84.7671 46.3879 84.5459 46.5253 84.3008 46.5915C84.0557 46.6577 83.7971 46.6499 83.5562 46.5689C83.3241 46.4596 83.1425 46.2621 83.0499 46.0182C82.9573 45.7743 82.9608 45.503 83.0598 45.2617C83.1191 45.1446 83.2079 45.0459 83.317 44.9759C83.4262 44.906 83.5516 44.8672 83.6804 44.8637C83.9277 44.8604 84.169 44.9422 84.3657 45.0959C84.5569 45.2463 84.7036 45.4482 84.7893 45.679C84.8698 45.9013 84.9206 46.1337 84.9403 46.37C84.9916 47.293 84.9943 48.1857 85.0213 49.0618C85.1103 52.5607 85.1886 55.7113 85.256 58.3617C85.3235 61.0122 85.3666 63.1458 85.4017 64.6326C85.4152 65.3678 85.426 65.9426 85.4341 66.3378C85.4341 66.5285 85.4341 66.675 85.4341 66.7828C85.4341 66.8906 85.4098 66.9431 85.4098 66.9431Z" fill="#455A64"/>
<path d="M83.8287 29.3786V30.9899H84.6085L84.7245 29.4173L83.8287 29.3786Z" fill="#FEB139"/>
<path d="M44.8419 27.8862C44.8149 27.8862 44.8581 27.4523 44.8203 26.7614C44.8016 26.3588 44.7158 25.9625 44.5667 25.5896C44.3804 25.1385 44.0504 24.7654 43.6305 24.5311C43.2066 24.3003 42.7369 24.1717 42.2572 24.1552C41.8624 24.1439 41.4674 24.1726 41.0781 24.2409C40.4117 24.3597 39.9989 24.4647 39.9989 24.4398C40.0849 24.3965 40.1754 24.3631 40.2687 24.3404C40.4522 24.2878 40.7166 24.2105 41.0538 24.1414C41.4485 24.0559 41.8512 24.0161 42.2545 24.0225C42.7566 24.0336 43.2491 24.1652 43.6925 24.4067C44.1383 24.6566 44.4868 25.0556 44.68 25.537C44.827 25.9261 44.9055 26.3387 44.9121 26.7559C44.9202 27.0326 44.9103 27.3096 44.8824 27.585C44.8804 27.6867 44.8668 27.7878 44.8419 27.8862V27.8862Z" fill="#263238"/>
<path d="M55.2591 34.3201L49.5797 34.5246L32.7357 39.7011L45.1279 45.4248L47.2108 52.171L53.7239 49.5786L59.6596 46.8149L59.7891 40.1405C59.745 39.2846 59.5085 38.4508 59.098 37.7039C58.6876 36.957 58.1144 36.3173 57.4229 35.8346L55.2591 34.3201Z" fill="#455A64"/>
<path d="M38.4124 23.9811L39.8639 23.8484C39.941 23.842 40.0185 23.8512 40.0921 23.8755C40.1657 23.8998 40.2339 23.9388 40.2928 23.9901C40.3517 24.0414 40.4002 24.1042 40.4354 24.1747C40.4705 24.2452 40.4918 24.3222 40.498 24.4012C40.5042 24.4801 40.4952 24.5596 40.4715 24.635C40.4478 24.7103 40.4098 24.7802 40.3596 24.8405C40.3095 24.9009 40.2483 24.9505 40.1794 24.9865C40.1106 25.0226 40.0354 25.0444 39.9583 25.0506L38.7037 25.164L38.4124 23.9811Z" fill="#455A64"/>
<path d="M27.9628 26.7669C28.0302 26.2998 27.9628 27.701 27.9628 28.1322C27.9644 28.3268 28.0042 28.5191 28.0796 28.6977C28.1551 28.8763 28.2647 29.0376 28.402 29.1721C28.5393 29.3065 28.7016 29.4115 28.8792 29.4807C29.0567 29.5498 29.246 29.5819 29.4359 29.5748L31.2976 29.503L32.741 28.1626H29.9377V26.6619L27.9628 26.7669Z" fill="#455A64"/>
<path d="M40.1903 38.9107C40.1903 38.9107 41.6284 37.6532 42.2058 37.5868C42.7831 37.5205 46.4741 37.5509 46.4741 37.5509L48.9023 39.2506L54.7787 50.3055L57.0774 53.3152L50.6911 61.037L46.4741 57.4442L41.5043 55.7859L45.3004 55.8384C46.0667 54.5948 47.4265 52.6989 47.4265 52.6989L48.3627 47.1714L48.4059 44.9743L47.1648 41.5196L45.2627 39.4496L40.1903 38.9107Z" fill="#FFBE9D"/>
<path d="M33.5424 39.2423L35.3069 36.7135L42.0952 34.3201C42.0952 34.3201 43.1528 35.6301 41.5556 36.7826H41.016C41.016 36.7826 41.7768 38.5099 39.6292 38.0235C39.4295 37.9793 37.4464 38.3386 37.4464 38.3386L36.3888 39.2423H33.5424Z" fill="#FFBE9D"/>
<path d="M26.6947 39.2479L24.6442 41.2599L24.86 52.779L26.6974 54.8574L45.2708 56.0098L47.6883 52.7929L47.2107 42.6832L46.5713 41.0277L44.7879 39.7813L26.6947 39.2479Z" fill="#455A64"/>
<path d="M43.83 40.5855L43.9433 40.6878L44.2779 40.9973L45.5703 42.2437C45.5703 44.6261 45.5865 48.6943 45.6 53.8735V53.8956V53.9122L44.5963 55.1282L44.5774 55.1503H44.5477L27.4312 54.3709L27.013 54.3516H26.9834L26.9645 54.3295L25.3807 52.4695L25.3645 52.4474V52.4225C25.316 48.6694 25.2674 45.1069 25.2269 41.8596V41.8319L25.2485 41.8126C25.8421 41.2046 26.4168 40.6187 26.9726 40.0466L26.9915 40.0272H27.0184L39.2056 40.4252L42.6267 40.5496L43.5251 40.5855H43.7545H43.8327H43.5171L42.6132 40.5661L39.1867 40.4777L27.0184 40.1322L27.0616 40.1157C26.5031 40.685 25.9311 41.2737 25.3375 41.8844L25.3564 41.8347C25.4023 45.0821 25.4536 48.6445 25.5075 52.3976L25.4886 52.3534L27.0697 54.23L27.0211 54.2051L27.4366 54.2245L44.5531 55.0259L44.5045 55.0453L45.5136 53.8348V53.8707C45.5136 48.6915 45.5379 44.6233 45.5433 42.241V42.2603L44.2725 41.0222L43.946 40.6988C43.8651 40.638 43.83 40.5855 43.83 40.5855Z" fill="#263238"/>
<path d="M26.1523 41.3317L26.692 52.9615L45.1224 54.0283L44.8337 41.8485L26.1523 41.3317Z" fill="#263238"/>
<path d="M31.8641 42.5477L32.1879 50.1286L44.3319 50.6427V42.8048L31.8641 42.5477Z" fill="#455A64"/>
<path d="M44.4077 46.7352C44.7729 44.4176 43.2349 42.2356 40.9724 41.8615C38.7099 41.4874 36.5797 43.0628 36.2145 45.3804C35.8493 47.6979 37.3873 49.8799 39.6498 50.2541C41.9123 50.6282 44.0425 49.0527 44.4077 46.7352Z" fill="#263238"/>
<path d="M44.3319 48.2465C43.9925 48.7304 43.5575 49.1358 43.0553 49.4364C42.553 49.737 41.9947 49.926 41.4165 49.9913C40.8383 50.0565 40.2531 49.9966 39.699 49.8152C39.1449 49.6338 38.6342 49.3352 38.2001 48.9386C37.766 48.542 37.4181 48.0563 37.179 47.5131C36.9399 46.9699 36.815 46.3813 36.8124 45.7854C36.8098 45.1896 36.9295 44.5998 37.1638 44.0544C37.398 43.509 37.7416 43.0202 38.1723 42.6196L43.9191 42.7964C44.073 42.9453 44.2113 43.1102 44.3319 43.2884V48.2465Z" fill="#FAFAFA"/>
<path d="M26.6919 52.9698C26.6757 52.9339 27.8926 52.2706 29.4089 51.4857C30.9252 50.7008 32.1717 50.1038 32.1879 50.1287C32.2041 50.1536 30.9899 50.8279 29.4709 51.6128C27.9519 52.3977 26.7108 53.0057 26.6919 52.9698Z" fill="#455A64"/>
<path d="M40.3145 27.6596L54.0746 27.7315V35.4146L52.1266 35.0581L49.558 34.743V32.8471L49.5364 31.6062L45.287 31.7499L45.3221 34.1709L47.011 36.8213L47.0272 37.2138L42.821 36.9927L41.2426 34.182C41.2426 34.182 41.2075 33.0765 41.2426 32.966L40.2551 33.3639C39.7337 33.5792 39.1768 33.6899 38.6147 33.69H33.5423C32.9431 33.6886 32.3689 33.4441 31.9452 33.0101C31.5215 32.5761 31.2828 31.9878 31.2814 31.374V29.7158C31.2814 28.6103 32.4146 27.69 33.4803 27.6817L40.3145 27.6596Z" fill="#455A64"/>
<path d="M38.1561 27.6596H33.9444C32.3947 27.6596 31.1384 28.9465 31.1384 30.5339V30.8158C31.1384 32.4032 32.3947 33.69 33.9444 33.69H38.1561C39.7058 33.69 40.962 32.4032 40.962 30.8158V30.5339C40.962 28.9465 39.7058 27.6596 38.1561 27.6596Z" fill="#263238"/>
<path d="M38.1534 29.8899H33.3859C33.0268 29.8899 32.7357 30.1881 32.7357 30.556V30.6002C32.7357 30.968 33.0268 31.2662 33.3859 31.2662H38.1534C38.5125 31.2662 38.8036 30.968 38.8036 30.6002V30.556C38.8036 30.1881 38.5125 29.8899 38.1534 29.8899Z" fill="#455A64"/>
<path d="M42.0358 27.6678C42.1237 27.687 42.2076 27.7216 42.284 27.7701C42.5037 27.8839 42.7033 28.0342 42.8749 28.2151C43.1289 28.4888 43.3141 28.8217 43.4145 29.1851C43.5376 29.6266 43.5815 30.0873 43.544 30.5449C43.4687 31.0036 43.2632 31.4294 42.9531 31.7692C42.7092 32.0449 42.4317 32.2873 42.1275 32.4905C41.9246 32.6278 41.7128 32.7506 41.4935 32.8581C41.4157 32.9032 41.3322 32.9367 41.2452 32.9576C41.2452 32.9327 41.5771 32.7669 42.0708 32.4049C42.3584 32.1946 42.6218 31.9517 42.856 31.6808C43.1397 31.3552 43.3269 30.9535 43.3956 30.5228C43.4294 30.0845 43.3911 29.6435 43.2823 29.2183C43.1927 28.872 43.0265 28.5514 42.7966 28.2814C42.5669 28.0476 42.3116 27.8417 42.0358 27.6678V27.6678Z" fill="#263238"/>
<path d="M26.3035 24.3569L37.3655 23.315C37.7435 23.2787 38.1203 23.3963 38.4143 23.6426C38.7082 23.8888 38.8956 24.2438 38.9358 24.6305V24.6305C38.956 24.8236 38.9389 25.0189 38.8854 25.2052C38.8319 25.3915 38.7432 25.5652 38.6241 25.7164C38.5051 25.8675 38.3582 25.9932 38.1918 26.0862C38.0254 26.1792 37.8427 26.2377 37.6542 26.2584L26.7648 27.4717L26.3035 24.3569Z" fill="#455A64"/>
<path d="M65.517 21.0543H50.4025V31.2939H65.517V21.0543Z" fill="#455A64"/>
<path d="M65.5144 31.2911C65.5144 31.2911 65.5144 31.2248 65.5144 31.1031C65.5144 30.9815 65.5144 30.7936 65.5144 30.5504C65.5144 30.0695 65.5144 29.3758 65.5009 28.4887C65.5009 26.7061 65.482 24.1552 65.4712 21.046L65.5252 21.1012L50.4161 21.1178C50.3999 21.1178 50.5483 20.9796 50.4862 21.046V22.3974C50.4862 22.8479 50.4862 23.2956 50.4862 23.7378V26.3551C50.4862 28.0686 50.4862 29.7158 50.4862 31.28L50.4242 31.2137L61.2973 31.2469L64.4136 31.2662H65.2446H65.536C65.5136 31.2691 65.4909 31.2691 65.4685 31.2662H65.2608H64.4514L61.3486 31.2828L50.4349 31.316H50.3702V31.2496C50.3702 29.6854 50.3702 28.0382 50.3702 26.3247V21.057C50.3054 21.1206 50.4538 20.9686 50.4403 20.9824L65.5495 20.999H65.6061V21.057C65.6061 24.1828 65.5845 26.7448 65.5764 28.5356C65.5764 29.4173 65.5764 30.1082 65.563 30.5836C65.563 30.813 65.563 30.9898 65.563 31.117C65.563 31.2441 65.5144 31.2911 65.5144 31.2911Z" fill="#263238"/>
<path d="M32.9704 26.789C32.7289 26.8651 32.4802 26.9142 32.2284 26.9355C31.7671 27.0046 31.1249 27.0792 30.418 27.151L28.6076 27.3224C28.3576 27.3602 28.1048 27.375 27.8522 27.3666C28.0949 27.2921 28.3444 27.2431 28.5968 27.2201C29.0582 27.1538 29.6976 27.0792 30.4045 27.0073L32.2176 26.8332C32.4671 26.7989 32.7187 26.7841 32.9704 26.789V26.789Z" fill="#263238"/>
<path d="M29.9298 28.1487C29.9433 28.1487 30.0161 28.2151 30.0647 28.3781C30.1259 28.5959 30.1043 28.8293 30.0042 29.0314C29.904 29.2335 29.7328 29.3892 29.5251 29.467C29.3659 29.5223 29.2552 29.5085 29.2552 29.4919C29.2552 29.4753 29.347 29.4477 29.4792 29.3731C29.648 29.2822 29.785 29.1396 29.8711 28.9653C29.9572 28.7909 29.9881 28.5934 29.9594 28.4002C29.9486 28.2593 29.9109 28.1653 29.9298 28.1487Z" fill="#263238"/>
<path d="M38.5688 25.7774C38.5526 25.7774 38.6336 25.6641 38.7118 25.4762C38.8135 25.2325 38.8658 24.9702 38.8656 24.7051C38.8657 24.4424 38.7876 24.186 38.6417 23.97C38.5256 23.8014 38.442 23.6936 38.4582 23.6936C38.4744 23.6936 38.5769 23.7544 38.728 23.9175C38.9152 24.1369 39.0171 24.4192 39.014 24.7107C39.0184 25.0007 38.9476 25.2868 38.8089 25.5398C38.6929 25.7139 38.5796 25.7913 38.5688 25.7774Z" fill="#263238"/>
<path d="M16.2693 24.3486L24.2366 23.5941C24.8874 23.5323 25.5369 23.7242 26.0556 24.1315C26.5743 24.5388 26.9238 25.1315 27.0345 25.7913C27.0945 26.1465 27.0834 26.5104 27.0018 26.8611C26.9202 27.2117 26.7698 27.5417 26.5599 27.8309C26.3499 28.1202 26.0847 28.3627 25.7804 28.5437C25.4761 28.7247 25.139 28.8405 24.7897 28.8839L16.8466 29.8678C16.4946 29.913 16.1372 29.8867 15.7951 29.7903C15.453 29.6939 15.1328 29.5293 14.8528 29.306C14.5729 29.0826 14.3387 28.8049 14.1637 28.4887C13.9887 28.1725 13.8763 27.8241 13.8329 27.4634C13.7853 27.0937 13.8111 26.7179 13.909 26.3588C14.0068 25.9996 14.1746 25.6644 14.4022 25.3734C14.6298 25.0824 14.9126 24.8416 15.2334 24.6655C15.5543 24.4894 15.9067 24.3816 16.2693 24.3486Z" fill="#263238"/>
<path d="M17.6589 29.4118C17.8312 29.2061 17.989 28.9882 18.131 28.7595C18.4256 28.188 18.5459 27.5391 18.4764 26.8968C18.3837 26.2562 18.0743 25.6693 17.6022 25.2385C17.4023 25.0659 17.1775 24.926 16.9358 24.824C17.0087 24.822 17.0812 24.8352 17.1489 24.8627C17.3379 24.9277 17.5135 25.028 17.667 25.1584C17.8952 25.3501 18.0911 25.5788 18.247 25.8355C18.4423 26.1494 18.5684 26.503 18.6167 26.8719C18.6918 27.5444 18.5507 28.2237 18.2147 28.8065C18.1124 28.9792 17.9871 29.1365 17.8423 29.2736C17.7895 29.3302 17.7274 29.377 17.6589 29.4118Z" fill="#455A64"/>
<path d="M41.3937 34.1736C41.4906 34.1551 41.5892 34.1468 41.6878 34.1488L42.4972 34.1294L45.3166 34.1046H45.3517L45.3733 34.135L46.2987 35.5831L47.0623 36.7881L47.1297 36.8959H47.0002L43.9784 36.871L43.0988 36.8489C42.9922 36.8528 42.8854 36.8444 42.7805 36.8241C42.8858 36.8075 42.9923 36.8001 43.0988 36.8019L43.9784 36.7798L47.0002 36.755L46.9436 36.8627L46.1908 35.6633C45.8698 35.152 45.5595 34.6628 45.2708 34.2096L45.3274 34.24L42.5026 34.2289L41.6932 34.2096C41.5926 34.2053 41.4925 34.1933 41.3937 34.1736Z" fill="#263238"/>
<path d="M54.0557 34.5938C53.3322 34.6649 52.6049 34.6889 51.8784 34.6656C51.151 34.6889 50.4228 34.6649 49.6984 34.5938C50.4228 34.5227 51.151 34.4987 51.8784 34.5219C52.6049 34.4986 53.3322 34.5226 54.0557 34.5938V34.5938Z" fill="#263238"/>
<path d="M54.2581 49.3299C54.246 49.268 54.2405 49.205 54.2419 49.1419C54.2419 49.0037 54.2284 48.8241 54.2203 48.603C54.2014 48.1332 54.1745 47.4561 54.1205 46.6214C54.0665 45.7868 53.9883 44.7918 53.8723 43.6919C53.8147 43.1391 53.7491 42.5634 53.6753 41.9646C53.5917 41.3704 53.5377 40.7457 53.392 40.1322C53.249 39.5333 53.018 38.9602 52.7067 38.4325C52.4073 37.95 51.9993 37.5482 51.5169 37.2607C50.6925 36.7708 49.8065 36.3989 48.8836 36.1552C48.0984 35.9341 47.4482 35.8042 46.9949 35.7213L46.4769 35.6329C46.4159 35.6238 46.3556 35.6109 46.2961 35.5942C46.3571 35.5869 46.4187 35.5869 46.4796 35.5942C46.601 35.5942 46.7764 35.6273 47.003 35.6577C47.6445 35.7514 48.2805 35.8815 48.9079 36.0474C49.8462 36.2857 50.7471 36.6578 51.5843 37.1529C52.0852 37.4501 52.509 37.8662 52.82 38.3662C53.1422 38.9033 53.3798 39.489 53.5242 40.1018C53.598 40.4114 53.6538 40.7251 53.6915 41.0415C53.732 41.351 53.7698 41.655 53.8075 41.9535C53.8831 42.5532 53.9451 43.1308 53.9991 43.6836C54.107 44.7891 54.1745 45.784 54.2149 46.6214C54.2554 47.4588 54.2716 48.1387 54.2716 48.6058C54.2716 48.8407 54.2716 49.0231 54.2716 49.1585C54.2718 49.2159 54.2673 49.2732 54.2581 49.3299V49.3299Z" fill="#263238"/>
<path d="M56.1737 48.4428C56.1696 48.383 56.1696 48.3229 56.1737 48.2631C56.1737 48.1277 56.1737 47.9564 56.1548 47.7435C56.1413 47.2737 56.1198 46.6242 56.0982 45.8311C56.0459 43.7318 55.8865 41.6368 55.6206 39.5546C55.5319 38.9698 55.3496 38.4039 55.081 37.8798C54.8453 37.3848 54.5246 36.9373 54.134 36.5588C53.7691 36.2257 53.3604 35.9466 52.9199 35.7296C52.5359 35.5375 52.1381 35.3758 51.73 35.246C51.1369 35.0573 50.5321 34.9096 49.9196 34.8038L49.4205 34.7154C49.3619 34.7095 49.304 34.6975 49.2478 34.6794C49.306 34.6721 49.3649 34.6721 49.4232 34.6794C49.5392 34.6794 49.7119 34.7098 49.9304 34.7402C50.5486 34.8247 51.1593 34.9587 51.757 35.141C52.1724 35.2653 52.5775 35.4233 52.9684 35.6136C53.422 35.8278 53.8435 36.1069 54.2203 36.4427C54.6255 36.829 54.9583 37.288 55.2024 37.7969C55.4843 38.3335 55.6767 38.9145 55.7717 39.5159C56.0306 41.6125 56.1649 43.7233 56.1737 45.8366C56.1899 46.6436 56.1899 47.2986 56.1872 47.7491C56.1872 47.9646 56.1872 48.136 56.1872 48.2687C56.1897 48.327 56.1852 48.3855 56.1737 48.4428Z" fill="#263238"/>
<path d="M45.2627 39.4468C45.2627 39.4468 45.2303 39.4468 45.1763 39.4219C45.1672 39.4151 45.1603 39.4057 45.1565 39.3949C45.1526 39.3841 45.152 39.3723 45.1547 39.3611C45.1636 39.3396 45.1787 39.3213 45.1979 39.3086C45.2379 39.2789 45.2827 39.2565 45.3301 39.2423C45.6268 39.161 45.9374 39.1487 46.2393 39.2064C46.4479 39.2427 46.6523 39.3011 46.8491 39.3805C46.9619 39.4222 47.069 39.4789 47.1675 39.5491C47.2689 39.6236 47.3662 39.7039 47.4589 39.7895C47.8366 40.135 48.2197 40.544 48.6163 40.9779C48.8106 41.1935 48.9968 41.4063 49.1775 41.6136C49.5768 42.5062 49.9222 43.2911 50.165 43.8522L50.4348 44.5182C50.475 44.5965 50.5041 44.6803 50.5212 44.767C50.4688 44.6973 50.4253 44.6212 50.3917 44.5403L50.0949 43.9019C49.8251 43.3492 49.4689 42.5726 49.0615 41.6909V41.7075L48.5003 41.0774C48.1064 40.6435 47.7287 40.2317 47.3617 39.8862C47.27 39.8033 47.1783 39.7204 47.0919 39.6513C47.0002 39.5866 46.9015 39.5328 46.7978 39.491C46.6116 39.4087 46.417 39.3476 46.2178 39.3086C45.9285 39.2479 45.6302 39.2479 45.3409 39.3086C45.2465 39.3307 45.152 39.3805 45.1898 39.4136C45.2276 39.4468 45.2654 39.4413 45.2627 39.4468Z" fill="#EB996E"/>
<path d="M49.1263 52.7459C49.1263 52.7874 48.7216 52.7155 48.2467 52.8123C47.7718 52.909 47.4373 53.1163 47.4049 53.0886C47.6209 52.8611 47.9067 52.7167 48.2143 52.6796C48.5166 52.5923 48.8391 52.6158 49.1263 52.7459Z" fill="#EB996E"/>
<path d="M49.0103 46.2401C48.9383 46.5602 48.8482 46.8758 48.7405 47.1852C48.5597 47.7656 48.3277 48.5671 48.128 49.4764C47.9284 50.3856 47.7989 51.212 47.7179 51.8145C47.6881 52.1431 47.6403 52.4697 47.5749 52.7928C47.5634 52.7011 47.5634 52.6082 47.5749 52.5165C47.5749 52.3451 47.5965 52.0991 47.6235 51.7951C47.7007 51.0014 47.825 50.2132 47.9958 49.4349C48.168 48.6581 48.387 47.8929 48.6514 47.1438C48.7567 46.8674 48.8457 46.627 48.9213 46.4694C48.9427 46.3899 48.9726 46.313 49.0103 46.2401Z" fill="#EB996E"/>
<path d="M98.0583 84.4873C100.033 83.4923 100.732 81.1128 100.46 78.946C100.19 76.7074 97.9693 74.8225 95.9808 73.8552C93.9923 72.8879 91.7745 72.5508 89.5864 72.3103C88.348 72.1721 87.0664 72.0671 85.8901 72.4844C84.7137 72.9017 83.6696 73.9741 83.6642 75.2481" fill="#FEB139"/>
<g opacity="0.3">
<path d="M98.0583 84.4873C100.033 83.4923 100.732 81.1128 100.46 78.946C100.19 76.7074 97.9693 74.8225 95.9808 73.8552C93.9923 72.8879 91.7745 72.5508 89.5864 72.3103C88.348 72.1721 87.0664 72.0671 85.8901 72.4844C84.7137 72.9017 83.6696 73.9741 83.6642 75.2481" fill="black"/>
</g>
<path d="M87.4711 60.5479L84.0527 75.3863L55.0351 50.6427L50.2109 60.628L76.4037 89.0944C77.9955 90.7589 79.9639 91.9951 82.1342 92.6932C84.3044 93.3913 86.6094 93.5298 88.8444 93.0962V93.0962C94.656 91.9686 98.2876 86.7645 99.1294 80.77L100.829 68.6262L87.4711 60.5479Z" fill="#FFBE9D"/>
<path d="M98.9163 49.645L95.7326 47.8099C95.7326 47.8099 88.2806 48.418 87.4712 60.5479L86.311 63.693L84.0527 75.3864C84.4844 73.1063 95.5141 64.8289 100.454 78.946L102.189 58.8482C101.744 54.6584 102.127 51.8312 98.9163 49.645Z" fill="#FEB139"/>
<path d="M86.4459 59.2158C86.4657 59.2662 86.4784 59.3192 86.4837 59.3733C86.4999 59.4783 86.5322 59.6331 86.5484 59.8348C86.6132 60.4025 86.6295 60.975 86.597 61.5456C86.5376 62.9938 86.1221 64.9643 85.4125 67.0454C85.0429 68.0818 84.6355 69.0436 84.3198 69.939C84.0276 70.725 83.8046 71.5361 83.6534 72.3628C83.556 72.9198 83.5252 73.4868 83.5617 74.0514C83.5994 74.4494 83.6426 74.6705 83.6264 74.6733C83.6096 74.6217 83.5961 74.5691 83.586 74.5157C83.5517 74.3644 83.5256 74.2112 83.5077 74.0569C83.4485 73.4871 83.4649 72.9116 83.5563 72.3462C83.6949 71.5094 83.9098 70.6877 84.1984 69.892C84.5087 68.991 84.9134 68.0265 85.2776 66.9984C85.9845 64.9284 86.4108 62.9744 86.4945 61.5401C86.5374 60.9743 86.5374 60.4061 86.4945 59.8404C86.4648 59.4396 86.4351 59.2185 86.4459 59.2158Z" fill="#263238"/>
<path d="M96.4421 48.5782C96.2811 48.5668 96.1208 48.5465 95.9619 48.5174C95.5299 48.4594 95.0941 48.4372 94.6587 48.451C92.9974 48.5059 91.3946 49.0919 90.0747 50.1267C88.7548 51.1615 87.784 52.5934 87.2984 54.2217C87.2593 54.3812 87.2107 54.5381 87.1527 54.6915C87.1527 54.6486 87.1581 54.6059 87.1689 54.5644C87.1851 54.4815 87.204 54.3599 87.2444 54.2051C87.355 53.768 87.5049 53.3424 87.6923 52.9338C88.3045 51.5682 89.2856 50.4107 90.5196 49.5982C91.7536 48.7857 93.189 48.3521 94.656 48.3488C95.0974 48.3433 95.5383 48.3813 95.9727 48.4621C96.09 48.481 96.2062 48.5068 96.3207 48.5395C96.363 48.5452 96.4041 48.5583 96.4421 48.5782V48.5782Z" fill="#263238"/>
<path d="M100.443 80.2725C100.429 80.1933 100.422 80.1128 100.422 80.0321C100.422 79.9492 100.422 79.8525 100.403 79.7419C100.4 79.6095 100.389 79.4774 100.368 79.3467C100.275 78.5088 100.068 77.6883 99.7527 76.9091C99.2899 75.7521 98.6149 74.6967 97.7642 73.7999C97.2607 73.2779 96.7024 72.8145 96.0995 72.418C95.4461 72.0001 94.7423 71.6712 94.0058 71.4397C93.2654 71.2161 92.4979 71.1007 91.726 71.097C91.0074 71.0847 90.29 71.1608 89.5891 71.3236C88.9538 71.4688 88.3345 71.68 87.741 71.9537C87.2275 72.1998 86.7379 72.495 86.2786 72.8354C85.611 73.328 85.0276 73.9303 84.5518 74.618C84.4707 74.721 84.3985 74.831 84.336 74.9469C84.2793 75.0436 84.2308 75.1265 84.1876 75.1956C84.1506 75.2668 84.1072 75.3343 84.0581 75.3973C84.0882 75.323 84.1234 75.251 84.1633 75.1818C84.2038 75.1099 84.247 75.0242 84.3009 74.9247C84.3596 74.8044 84.4272 74.6889 84.5033 74.5793C84.9679 73.8725 85.5484 73.2535 86.2192 72.7497C86.679 72.3979 87.1716 72.0933 87.6897 71.8404C88.2891 71.5576 88.9157 71.3399 89.5594 71.191C90.2665 71.0199 90.9915 70.9392 91.7179 70.9505C92.5016 70.9524 93.2811 71.0687 94.0328 71.296C94.7822 71.5311 95.498 71.8666 96.1616 72.2937C96.7734 72.7006 97.339 73.1761 97.8479 73.7115C98.7033 74.6248 99.3777 75.6995 99.8336 76.8759C100.143 77.6661 100.338 78.4986 100.411 79.3467C100.428 79.4787 100.436 79.6116 100.435 79.7447C100.435 79.858 100.435 79.9547 100.435 80.0376C100.444 80.1156 100.446 80.1941 100.443 80.2725V80.2725Z" fill="#263238"/>
<g opacity="0.3">
<path d="M82.4636 74.0265C82.987 70.1573 83.9961 67.2609 86.1869 64.0495C85.4207 67.8054 84.5681 71.155 83.6643 75.0491" fill="black"/>
</g>
<path d="M88.6853 78.7885C88.6637 78.8216 87.6277 78.0754 86.3758 77.1302C85.6055 76.5763 84.8634 75.9823 84.1526 75.3504C84.1742 75.32 85.2075 76.0634 86.4594 77.0086C87.7113 77.9538 88.7096 78.7581 88.6853 78.7885Z" fill="#EB996E"/>
<path d="M117.017 108.068C117.017 108.11 90.8193 108.14 58.5101 108.14C26.2008 108.14 0 108.11 0 108.068C0 108.026 26.19 107.995 58.5101 107.995C90.8301 107.995 117.017 108.021 117.017 108.068Z" fill="#263238"/>
<path d="M18.471 91.7144C17.7128 92.8199 16.2343 92.4579 15.549 91.7807C14.8637 91.1036 14.575 90.1225 14.3133 89.1801C13.7089 87.0161 13.1019 84.7775 13.5444 82.5941C13.6496 81.9344 13.9296 81.3168 14.3538 80.8088C14.5702 80.5582 14.8472 80.3706 15.157 80.2648C15.4669 80.159 15.7984 80.1388 16.1183 80.2063C16.863 80.408 17.327 81.1542 17.6616 81.8645C18.6462 83.9642 19.1623 86.2621 19.1725 88.5914C19.1725 89.6748 19.0538 90.8024 18.4548 91.7034" fill="#FEB139"/>
<g opacity="0.2">
<path d="M18.471 91.7144C17.7128 92.8199 16.2343 92.4579 15.549 91.7807C14.8637 91.1036 14.575 90.1225 14.3133 89.1801C13.7089 87.0161 13.1019 84.7775 13.5444 82.5941C13.6496 81.9344 13.9296 81.3168 14.3538 80.8088C14.5702 80.5582 14.8472 80.3706 15.157 80.2648C15.4669 80.159 15.7984 80.1388 16.1183 80.2063C16.863 80.408 17.327 81.1542 17.6616 81.8645C18.6462 83.9642 19.1623 86.2621 19.1725 88.5914C19.1725 89.6748 19.0538 90.8024 18.4548 91.7034" fill="black"/>
</g>
<path d="M15.6244 97.3358C14.3806 96.678 12.9264 96.5923 11.5369 96.8273C10.7976 96.9516 10.0233 97.1782 9.51875 97.7503C9.01421 98.3224 8.91978 99.3229 9.49716 99.8148C9.87151 100.073 10.3218 100.189 10.7706 100.144C11.8499 100.144 13.0505 99.9364 13.9139 100.603C14.4049 100.984 14.7233 101.614 15.3223 101.802C15.6159 101.872 15.924 101.843 16.2 101.719C16.4759 101.594 16.7048 101.381 16.8521 101.111C17.1334 100.557 17.1962 99.9143 17.0274 99.3146C16.9587 98.8962 16.7962 98.4998 16.5528 98.1564C16.3094 97.8131 15.9916 97.5322 15.6244 97.3358Z" fill="#FEB139"/>
<path d="M20.5593 93.3008C19.7337 92.2975 19.5772 90.8328 19.9441 89.5753C20.3111 88.3178 21.1421 87.251 22.1026 86.3777C23.2277 85.3531 24.5361 84.5619 25.9554 84.0478C26.5046 83.8198 27.0957 83.717 27.6876 83.7466C27.9837 83.7639 28.2712 83.855 28.5251 84.012C28.779 84.1691 28.9917 84.3872 29.1445 84.6476C29.5492 85.4408 29.1607 86.4025 28.7398 87.1874C27.9976 88.5692 27.1514 89.8896 26.209 91.1368C25.4482 92.1373 24.5902 93.1267 23.4219 93.5799C22.2537 94.0332 21.0638 93.9779 20.4541 93.1571" fill="#FEB139"/>
<path d="M18.5222 108.476C18.4836 108.311 18.461 108.143 18.4548 107.973C18.4197 107.606 18.3765 107.144 18.3225 106.592C18.257 105.912 18.1561 105.237 18.0204 104.569C17.8441 103.754 17.6041 102.956 17.3027 102.181C17.0082 101.407 16.6076 100.68 16.1128 100.022C15.7153 99.4876 15.2066 99.0505 14.6235 98.7426C14.2245 98.5397 13.7964 98.4034 13.3554 98.3391C13.1894 98.3341 13.0246 98.3091 12.8644 98.2645C13.0303 98.2458 13.1976 98.2458 13.3635 98.2645C13.821 98.3002 14.2687 98.4191 14.6856 98.6154C15.3042 98.9164 15.847 99.3589 16.272 99.9089C16.7882 100.579 17.2038 101.324 17.505 102.12C17.8116 102.906 18.05 103.718 18.2173 104.546C18.3477 105.223 18.4378 105.907 18.4871 106.594C18.5276 107.18 18.5438 107.653 18.5519 107.976C18.5616 108.144 18.5517 108.311 18.5222 108.476V108.476Z" fill="#263238"/>
<path d="M18.4305 107.418C18.4215 107.34 18.4215 107.261 18.4305 107.183C18.4305 107.006 18.4305 106.785 18.4305 106.511C18.4305 105.931 18.4305 105.088 18.4008 104.049C18.3495 101.968 18.1768 99.0991 17.8369 95.9429C17.4969 92.7867 17.0464 89.9484 16.6363 87.9115C16.5391 87.4003 16.442 86.9415 16.3503 86.5297C16.2585 86.1179 16.1857 85.7807 16.1155 85.4988L15.9617 84.8466C15.9409 84.7717 15.9274 84.6948 15.9213 84.6172C15.9582 84.6857 15.9854 84.7592 16.0022 84.8355C16.0508 85.0041 16.1128 85.2169 16.1911 85.4795C16.2693 85.742 16.361 86.1013 16.4609 86.5048C16.5607 86.9083 16.6713 87.3616 16.7766 87.8729C17.3375 90.5278 17.7598 93.2115 18.0419 95.9125C18.3792 99.0742 18.5303 101.951 18.5438 104.038C18.5573 105.08 18.5438 105.923 18.5087 106.506C18.4925 106.782 18.479 107.001 18.4682 107.175C18.4662 107.257 18.4535 107.339 18.4305 107.418V107.418Z" fill="#263238"/>
<path d="M18.4169 101.866C18.3999 101.632 18.3999 101.397 18.4169 101.164C18.4412 100.713 18.5033 100.058 18.6247 99.2676C18.7752 98.3355 18.977 97.4128 19.229 96.5039C19.5289 95.3881 19.9058 94.2955 20.3568 93.2344C21.1398 91.2812 22.2624 89.4898 23.67 87.9474C23.9157 87.6844 24.176 87.4361 24.4498 87.204C24.5712 87.1017 24.6764 86.9995 24.7843 86.9276L25.0865 86.7148C25.2681 86.5734 25.4603 86.4468 25.6612 86.3362C25.6936 86.3832 24.8518 86.8889 23.7726 88.0607C22.4086 89.6152 21.3137 91.3966 20.5349 93.3284C20.0873 94.3811 19.7087 95.4632 19.4017 96.5675C19.1429 97.4688 18.9286 98.3829 18.7596 99.3063C18.6193 100.094 18.5356 100.738 18.4898 101.186C18.4818 101.414 18.4575 101.641 18.4169 101.866V101.866Z" fill="#263238"/>
</svg>
