<svg width="105" height="105" viewBox="0 0 105 105" fill="none" xmlns="http://www.w3.org/2000/svg">
<path d="M90.7941 89H14.2059C9.55588 89 6 85.4122 6 80.7204V31.043C6 26.3513 9.55588 22.7634 14.2059 22.7634H30.6176C31.1647 22.7634 31.9853 22.2115 32.2588 21.9355L35.2676 15.8638C36.3618 13.6559 39.0971 12 41.5588 12H63.4412C65.9029 12 68.6382 13.6559 69.7324 15.8638L72.7412 21.9355C73.0147 22.4875 73.8353 22.7634 74.3824 22.7634H90.7941C95.4441 22.7634 99 26.3513 99 31.043V80.7204C99 85.4122 95.4441 89 90.7941 89V89ZM14.2059 28.2832C12.5647 28.2832 11.4706 29.3871 11.4706 31.043V80.7204C11.4706 82.3763 12.5647 83.4803 14.2059 83.4803H90.7941C92.4353 83.4803 93.5294 82.3763 93.5294 80.7204V31.043C93.5294 29.3871 92.4353 28.2832 90.7941 28.2832H74.3824C71.9206 28.2832 69.1853 26.6272 68.0912 24.4194L65.0824 18.3477C64.8088 17.7957 63.9882 17.2437 63.4412 17.2437H41.5588C41.0118 17.2437 40.1912 17.7957 39.9176 18.0717L36.9088 24.1434C35.8147 26.6272 33.0794 28.2832 30.6176 28.2832H14.2059V28.2832Z" fill="#2c83e7"/>
<path d="M52.5 78C38.8889 78 28 66.8889 28 53C28 39.1111 38.8889 28 52.5 28C66.1111 28 77 39.1111 77 53C77 66.8889 66.1111 78 52.5 78ZM52.5 33.5556C41.8833 33.5556 33.4444 42.1667 33.4444 53C33.4444 63.8333 41.8833 72.4444 52.5 72.4444C63.1167 72.4444 71.5556 63.8333 71.5556 53C71.5556 42.1667 63.1167 33.5556 52.5 33.5556Z" fill="#2c83e7"/>
<path d="M80 37C81.6569 37 83 35.6569 83 34C83 32.3431 81.6569 31 80 31C78.3431 31 77 32.3431 77 34C77 35.6569 78.3431 37 80 37Z" fill="#2c83e7"/>
<path d="M17 17H27.7692V19.7692H17V17ZM52 41.9231V39.1538C44.4615 39.1538 38.5385 45.2462 38.5385 53H41.2308C41.2308 46.9077 46.0769 41.9231 52 41.9231Z" fill="#2c83e7"/>
</svg>
