<svg width="105" height="105" viewBox="0 0 105 105" fill="none" xmlns="http://www.w3.org/2000/svg">
<g clip-path="url(#clip0_62_4261)">
<path d="M95.1562 19.6875C96.0265 19.6875 96.8611 20.0332 97.4764 20.6486C98.0918 21.2639 98.4375 22.0985 98.4375 22.9688V82.0312C98.4375 82.9015 98.0918 83.7361 97.4764 84.3514C96.8611 84.9668 96.0265 85.3125 95.1562 85.3125H9.84375C8.97351 85.3125 8.13891 84.9668 7.52356 84.3514C6.9082 83.7361 6.5625 82.9015 6.5625 82.0312V22.9688C6.5625 22.0985 6.9082 21.2639 7.52356 20.6486C8.13891 20.0332 8.97351 19.6875 9.84375 19.6875H95.1562ZM9.84375 13.125C7.23303 13.125 4.72923 14.1621 2.88317 16.0082C1.03711 17.8542 0 20.358 0 22.9688L0 82.0312C0 84.642 1.03711 87.1458 2.88317 88.9918C4.72923 90.8379 7.23303 91.875 9.84375 91.875H95.1562C97.767 91.875 100.271 90.8379 102.117 88.9918C103.963 87.1458 105 84.642 105 82.0312V22.9688C105 20.358 103.963 17.8542 102.117 16.0082C100.271 14.1621 97.767 13.125 95.1562 13.125H9.84375Z" fill="#2c83e7"/>
<path d="M45.9375 36.0938C45.9375 35.2235 46.2832 34.3889 46.8985 33.7736C47.5139 33.1582 48.3485 32.8125 49.2187 32.8125H82.0312C82.9015 32.8125 83.7361 33.1582 84.3514 33.7736C84.9668 34.3889 85.3125 35.2235 85.3125 36.0938C85.3125 36.964 84.9668 37.7986 84.3514 38.4139C83.7361 39.0293 82.9015 39.375 82.0312 39.375H49.2187C48.3485 39.375 47.5139 39.0293 46.8985 38.4139C46.2832 37.7986 45.9375 36.964 45.9375 36.0938ZM36.12 30.4894C36.4256 30.7942 36.668 31.1563 36.8334 31.5549C36.9988 31.9535 37.084 32.3809 37.084 32.8125C37.084 33.2441 36.9988 33.6715 36.8334 34.0701C36.668 34.4687 36.4256 34.8308 36.12 35.1356L26.2762 44.9794C25.9714 45.285 25.6094 45.5274 25.2107 45.6928C24.8121 45.8582 24.3847 45.9434 23.9531 45.9434C23.5215 45.9434 23.0942 45.8582 22.6955 45.6928C22.2969 45.5274 21.9348 45.285 21.63 44.9794L18.3487 41.6981C18.0437 41.3931 17.8017 41.0309 17.6366 40.6323C17.4715 40.2337 17.3865 39.8064 17.3865 39.375C17.3865 38.5037 17.7326 37.668 18.3487 37.0519C18.9649 36.4357 19.8005 36.0896 20.6719 36.0896C21.5432 36.0896 22.3789 36.4357 22.995 37.0519L23.9531 38.0166L31.4737 30.4894C31.7785 30.1838 32.1406 29.9414 32.5393 29.776C32.9379 29.6105 33.3653 29.5254 33.7969 29.5254C34.2285 29.5254 34.6558 29.6105 35.0545 29.776C35.4531 29.9414 35.8152 30.1838 36.12 30.4894ZM45.9375 62.3438C45.9375 61.4735 46.2832 60.6389 46.8985 60.0236C47.5139 59.4082 48.3485 59.0625 49.2187 59.0625H82.0312C82.9015 59.0625 83.7361 59.4082 84.3514 60.0236C84.9668 60.6389 85.3125 61.4735 85.3125 62.3438C85.3125 63.214 84.9668 64.0486 84.3514 64.6639C83.7361 65.2793 82.9015 65.625 82.0312 65.625H49.2187C48.3485 65.625 47.5139 65.2793 46.8985 64.6639C46.2832 64.0486 45.9375 63.214 45.9375 62.3438ZM36.12 56.7394C36.4256 57.0442 36.668 57.4063 36.8334 57.8049C36.9988 58.2035 37.084 58.6309 37.084 59.0625C37.084 59.4941 36.9988 59.9215 36.8334 60.3201C36.668 60.7187 36.4256 61.0808 36.12 61.3856L26.2762 71.2294C25.9714 71.5349 25.6094 71.7774 25.2107 71.9428C24.8121 72.1082 24.3847 72.1934 23.9531 72.1934C23.5215 72.1934 23.0942 72.1082 22.6955 71.9428C22.2969 71.7774 21.9348 71.5349 21.63 71.2294L18.3487 67.9481C18.0437 67.6431 17.8017 67.2809 17.6366 66.8823C17.4715 66.4837 17.3865 66.0564 17.3865 65.625C17.3865 65.1936 17.4715 64.7663 17.6366 64.3677C17.8017 63.9691 18.0437 63.607 18.3487 63.3019C18.6538 62.9968 19.016 62.7548 19.4146 62.5897C19.8132 62.4246 20.2404 62.3396 20.6719 62.3396C21.1033 62.3396 21.5305 62.4246 21.9291 62.5897C22.3277 62.7548 22.6899 62.9968 22.995 63.3019L23.9531 64.2666L31.4737 56.7394C31.7785 56.4338 32.1406 56.1914 32.5393 56.026C32.9379 55.8605 33.3653 55.7754 33.7969 55.7754C34.2285 55.7754 34.6558 55.8605 35.0545 56.026C35.4531 56.1914 35.8152 56.4338 36.12 56.7394Z" fill="#2c83e7"/>
</g>
<defs>
<clipPath id="clip0_62_4261">
<rect width="105" height="105" fill="white"/>
</clipPath>
</defs>
</svg>
