<svg width="25" height="25" viewBox="0 0 30 30" fill="none" xmlns="http://www.w3.org/2000/svg">
<path d="M14.9987 9.22119C13.4658 9.22119 11.9956 9.83015 10.9117 10.9141C9.82771 11.9981 9.21875 13.4682 9.21875 15.0012C9.21875 16.5341 9.82771 18.0043 10.9117 19.0883C11.9956 20.1722 13.4658 20.7812 14.9987 20.7812C16.5317 20.7812 18.0019 20.1722 19.0858 19.0883C20.1698 18.0043 20.7787 16.5341 20.7787 15.0012C20.7787 13.4682 20.1698 11.9981 19.0858 10.9141C18.0019 9.83015 16.5317 9.22119 14.9987 9.22119ZM14.9987 18.7549C14.0029 18.7549 13.0478 18.3593 12.3436 17.6551C11.6394 16.9509 11.2437 15.9958 11.2437 14.9999C11.2437 14.0041 11.6394 13.049 12.3436 12.3448C13.0478 11.6406 14.0029 11.2449 14.9987 11.2449C15.9946 11.2449 16.9497 11.6406 17.6539 12.3448C18.3581 13.049 18.7537 14.0041 18.7537 14.9999C18.7537 15.9958 18.3581 16.9509 17.6539 17.6551C16.9497 18.3593 15.9946 18.7549 14.9987 18.7549Z" fill="#131313"/>
<path d="M21.0075 10.3563C21.7517 10.3563 22.355 9.75296 22.355 9.00875C22.355 8.26455 21.7517 7.66125 21.0075 7.66125C20.2633 7.66125 19.66 8.26455 19.66 9.00875C19.66 9.75296 20.2633 10.3563 21.0075 10.3563Z" fill="#131313"/>
<path d="M25.6662 7.63873C25.3768 6.89145 24.9346 6.21283 24.3679 5.6463C23.8011 5.07977 23.1223 4.63781 22.3749 4.34873C21.5004 4.02042 20.5764 3.8429 19.6424 3.82373C18.4387 3.77123 18.0574 3.75623 15.0049 3.75623C11.9524 3.75623 11.5612 3.75623 10.3674 3.82373C9.43418 3.84192 8.51089 4.01948 7.63744 4.34873C6.88986 4.63748 6.2109 5.07931 5.64411 5.64589C5.07732 6.21246 4.63523 6.89126 4.34619 7.63873C4.01782 8.51324 3.84071 9.43727 3.82244 10.3712C3.76869 11.5737 3.75244 11.955 3.75244 15.0087C3.75244 18.0612 3.75244 18.45 3.82244 19.6462C3.84119 20.5812 4.01744 21.5037 4.34619 22.38C4.63604 23.1272 5.07856 23.8057 5.64549 24.3722C6.21241 24.9387 6.89127 25.3807 7.63869 25.67C8.51048 26.0115 9.43416 26.2017 10.3699 26.2325C11.5737 26.285 11.9549 26.3012 15.0074 26.3012C18.0599 26.3012 18.4512 26.3012 19.6449 26.2325C20.5788 26.2135 21.5027 26.0364 22.3774 25.7087C23.1246 25.419 23.8032 24.9766 24.3699 24.4099C24.9366 23.8433 25.3789 23.1647 25.6687 22.4175C25.9974 21.5425 26.1737 20.62 26.1924 19.685C26.2462 18.4825 26.2624 18.1012 26.2624 15.0475C26.2624 11.9937 26.2624 11.6062 26.1924 10.41C26.1779 9.46282 25.9999 8.52529 25.6662 7.63873ZM24.1437 19.5537C24.1356 20.2741 24.0041 20.9878 23.7549 21.6637C23.5672 22.1498 23.2798 22.5912 22.9113 22.9596C22.5427 23.3279 22.1011 23.615 21.6149 23.8025C20.9465 24.0505 20.2404 24.182 19.5274 24.1912C18.3399 24.2462 18.0049 24.26 14.9599 24.26C11.9124 24.26 11.6012 24.26 10.3912 24.1912C9.6786 24.1825 8.97285 24.051 8.30494 23.8025C7.81705 23.6162 7.37369 23.3296 7.00355 22.9612C6.63341 22.5928 6.34474 22.1507 6.15619 21.6637C5.9105 20.995 5.77908 20.2898 5.76744 19.5775C5.71369 18.39 5.70119 18.055 5.70119 15.01C5.70119 11.9637 5.70119 11.6525 5.76744 10.4412C5.77552 9.72125 5.90701 9.008 6.15619 8.33248C6.53744 7.34623 7.31869 6.56998 8.30494 6.19248C8.97318 5.94515 9.67872 5.81368 10.3912 5.80373C11.5799 5.74998 11.9137 5.73498 14.9599 5.73498C18.0062 5.73498 18.3187 5.73498 19.5274 5.80373C20.2405 5.8123 20.9466 5.94381 21.6149 6.19248C22.1011 6.38032 22.5426 6.66773 22.9112 7.03626C23.2797 7.4048 23.5671 7.84631 23.7549 8.33248C24.0006 9.00116 24.1321 9.70643 24.1437 10.4187C24.1974 11.6075 24.2112 11.9412 24.2112 14.9875C24.2112 18.0325 24.2112 18.36 24.1574 19.555H24.1437V19.5537Z" fill="#131313"/>
</svg>
