<svg width="105" height="105" viewBox="0 0 105 105" fill="none" xmlns="http://www.w3.org/2000/svg">
<path d="M19.6875 9.84363V95.1561H72.1875V88.5936H26.25V16.4061H59.0625V36.0936H78.75V42.6561H85.3125V31.4999L84.3281 30.5155L64.6406 10.828L63.6562 9.84363H19.6875V9.84363ZM65.625 20.9999L74.1563 29.5311H65.625V20.9999ZM32.8125 42.6561V49.2186H72.1875V42.6561H32.8125ZM88.5938 49.2186V55.7811C83.0156 56.7655 78.75 61.3593 78.75 67.2655C78.75 73.828 83.6719 78.7499 90.2344 78.7499H93.5156C96.1406 78.7499 98.4375 81.0468 98.4375 83.6718C98.4375 86.2968 96.1406 88.5936 93.5156 88.5936H82.0312V95.1561H88.5938V101.719H95.1562V95.1561C100.734 94.1718 105 89.578 105 83.6718C105 77.1093 100.078 72.1874 93.5156 72.1874H90.2344C87.6094 72.1874 85.3125 69.8905 85.3125 67.2655C85.3125 64.6405 87.6094 62.3436 90.2344 62.3436H101.719V55.7811H95.1562V49.2186H88.5938ZM32.8125 59.0624V65.6249H55.7812V59.0624H32.8125ZM62.3438 59.0624V65.6249H72.1875V59.0624H62.3438ZM32.8125 72.1874V78.7499H55.7812V72.1874H32.8125ZM62.3438 72.1874V78.7499H72.1875V72.1874H62.3438Z" fill="#2c83e7"/>
</svg>
