<svg width="144" height="144" viewBox="0 0 144 144" fill="none" xmlns="http://www.w3.org/2000/svg">
<g clip-path="url(#clip0_118_1258)">
<path d="M96.9207 46.8401C91.239 41.1518 85.1276 35.9096 78.6407 31.1601C83.0772 28.4762 87.734 26.1746 92.5607 24.2801C93.8407 23.8001 95.0407 23.4401 96.2407 23.0801C97.2143 24.2581 98.4685 25.1725 99.8878 25.7394C101.307 26.3062 102.846 26.5072 104.363 26.324C105.881 26.1409 107.328 25.5793 108.571 24.691C109.815 23.8026 110.815 22.616 111.481 21.2401C114.337 21.4987 117.032 22.6778 119.161 24.6001C123.921 29.3601 124.041 38.9601 119.561 50.9201C121.521 53.5201 123.321 56.1601 124.961 58.9201C125.641 57.3201 126.361 55.7601 126.921 54.2001C132.801 38.8001 132.041 26.2001 124.801 19.0801C121.178 15.65 116.461 13.6099 111.481 13.3201C110.65 11.5879 109.295 10.1608 107.609 9.24074C105.922 8.32063 103.989 7.95406 102.083 8.1929C100.177 8.43173 98.3938 9.26387 96.9865 10.5716C95.5791 11.8793 94.6185 13.5965 94.2407 15.4801C92.7607 15.9201 91.2807 16.3601 89.7207 16.9601C83.3296 19.477 77.2059 22.626 71.4407 26.3601C65.6637 22.5779 59.5272 19.3757 53.1207 16.8001C37.7207 10.9601 25.1207 11.6801 18.0407 18.9201C11.4007 25.6001 10.3207 36.6801 14.7207 50.3601C13.7164 51.6514 13.078 53.1891 12.8723 54.812C12.6666 56.4349 12.9012 58.0833 13.5515 59.5843C14.2018 61.0854 15.2439 62.3839 16.5686 63.3438C17.8933 64.3036 19.4517 64.8896 21.0807 65.0401C22.3607 67.4801 23.7607 69.9201 25.3207 72.3201C21.606 78.0979 18.4835 84.2356 16.0007 90.6401C10.1207 106 10.8807 118.64 18.1207 125.72C20.3234 127.779 22.9171 129.374 25.748 130.412C28.5789 131.449 31.5893 131.908 34.6007 131.76C40.9902 131.552 47.2903 130.197 53.2007 127.76C59.601 125.235 65.7372 122.087 71.5207 118.36C77.2506 122.172 83.3476 125.402 89.7207 128C94.4057 129.844 99.3156 131.054 104.321 131.6C105.199 133.468 106.681 134.987 108.526 135.911C110.372 136.836 112.476 137.112 114.498 136.697C116.52 136.281 118.344 135.198 119.676 133.62C121.007 132.043 121.77 130.063 121.841 128C122.903 127.344 123.895 126.58 124.801 125.72C132.041 118.48 132.801 106 126.921 90.6401C120.022 74.1418 109.811 59.2344 96.9207 46.8401ZM50.2807 120.36C38.2807 124.96 28.4807 124.88 23.6807 120.04C18.8807 115.2 18.7607 105.56 23.4007 93.4801C25.2807 88.6541 27.569 83.9972 30.2407 79.5601C35.0045 86.0231 40.2458 92.1202 45.9207 97.8001C47.6407 99.5201 49.4007 101.2 51.1607 102.8C53.5607 101.573 56.0007 100.173 58.4807 98.6001C56.1607 96.5201 53.8407 94.6001 51.6007 92.1601C42.5979 83.3138 34.8704 73.2573 28.6407 62.2801C29.8917 60.9834 30.7326 59.3466 31.058 57.5744C31.3834 55.8023 31.179 53.9735 30.4703 52.3169C29.7615 50.6603 28.58 49.2496 27.0735 48.2612C25.567 47.2728 23.8024 46.7506 22.0007 46.7601C19.0007 36.7601 19.5207 28.8001 23.7207 24.6001C25.1999 23.2964 26.9235 22.2998 28.7913 21.668C30.6591 21.0363 32.6338 20.7821 34.6007 20.9201C39.9983 21.1004 45.321 22.238 50.3207 24.2801C55.1473 26.1746 59.8041 28.4762 64.2407 31.1601C57.7538 35.9096 51.6423 41.1518 45.9607 46.8401C44.2007 48.6001 42.4807 50.4401 40.8007 52.2801C42.005 54.8143 43.3402 57.2843 44.8007 59.6801C46.9607 57.2401 49.1607 54.8401 51.5207 52.4801C57.6747 46.3327 64.3682 40.7503 71.5207 35.8001C78.5967 40.7691 85.2222 46.3506 91.3207 52.4801C97.4691 58.6331 103.052 65.3267 108.001 72.4801C103.039 79.6239 97.4575 86.3165 91.3207 92.4801C79.6815 104.471 65.7162 113.958 50.2807 120.36ZM119.161 120L118.521 120.52C117.47 119.63 116.231 118.99 114.897 118.649C113.563 118.308 112.168 118.275 110.82 118.553C109.471 118.83 108.203 119.411 107.112 120.25C106.02 121.09 105.134 122.167 104.521 123.4C100.409 122.872 96.3784 121.838 92.5207 120.32C87.687 118.441 83.0289 116.139 78.6007 113.44C85.0876 108.691 91.199 103.448 96.8807 97.7601C102.578 92.1009 107.821 86.002 112.561 79.5201C115.244 83.9568 117.546 88.6136 119.441 93.4401C124.001 105.56 124.001 115.24 119.161 120Z" fill="#2C83E7"/>
<path d="M62.3495 63.751L63.017 60.412C63.153 59.7317 63.5206 59.1195 64.0572 58.6797C64.5938 58.2399 65.2662 57.9997 65.96 58H76.04C76.7338 57.9997 77.4062 58.2399 77.9428 58.6797C78.4794 59.1195 78.847 59.7317 78.983 60.412L79.6505 63.751C79.7553 64.2742 80.0064 64.7569 80.3747 65.143C80.743 65.5291 81.2133 65.8027 81.731 65.932C82.9505 66.2371 84.033 66.941 84.8065 67.9319C85.58 68.9229 86.0001 70.1439 86 71.401V82C86 83.5913 85.3679 85.1174 84.2426 86.2426C83.1174 87.3679 81.5913 88 80 88H62C60.4087 88 58.8826 87.3679 57.7574 86.2426C56.6321 85.1174 56 83.5913 56 82V71.401C55.9999 70.1439 56.42 68.9229 57.1935 67.9319C57.967 66.941 59.0495 66.2371 60.269 65.932C60.7867 65.8027 61.257 65.5291 61.6253 65.143C61.9936 64.7569 62.2447 64.2742 62.3495 63.751V63.751Z" stroke="#2C83E7" stroke-width="2" stroke-linecap="round" stroke-linejoin="round"/>
<path d="M71 82C74.3137 82 77 79.3137 77 76C77 72.6863 74.3137 70 71 70C67.6863 70 65 72.6863 65 76C65 79.3137 67.6863 82 71 82Z" stroke="#2C83E7" stroke-width="2" stroke-linecap="round" stroke-linejoin="round"/>
<path d="M69.5 64H72.5" stroke="#2C83E7" stroke-width="2" stroke-linecap="round" stroke-linejoin="round"/>
</g>
<defs>
<clipPath id="clip0_118_1258">
<rect width="144" height="144" fill="white"/>
</clipPath>
</defs>
</svg>
