<svg width="25" height="26" viewBox="0 0 30 31" fill="none" xmlns="http://www.w3.org/2000/svg">
<path d="M25 5.1217H5C3.62125 5.1217 2.5 6.27024 2.5 7.68255V23.0476C2.5 24.4599 3.62125 25.6085 5 25.6085H25C26.3787 25.6085 27.5 24.4599 27.5 23.0476V7.68255C27.5 6.27024 26.3787 5.1217 25 5.1217ZM25 7.68255V8.33684L15 16.3049L5 8.33812V7.68255H25ZM5 23.0476V11.5802L14.2325 18.9362C14.4514 19.1123 14.7217 19.208 15 19.208C15.2783 19.208 15.5486 19.1123 15.7675 18.9362L25 11.5802L25.0025 23.0476H5Z" fill="#131313"/>
</svg>
