<svg width="25" height="25" viewBox="0 0 30 30" fill="none" xmlns="http://www.w3.org/2000/svg">
<path d="M24.4876 8.3625C23.2415 8.08849 22.1143 7.42679 21.2677 6.47237C20.421 5.51794 19.8985 4.31984 19.7751 3.05V2.5H15.4626V19.5875C15.4634 20.3457 15.2257 21.085 14.7831 21.7006C14.3405 22.3162 13.7154 22.7769 12.9964 23.0175C12.2774 23.2581 11.5009 23.2663 10.7769 23.0411C10.0529 22.8159 9.41818 22.3685 8.96256 21.7625C8.55437 21.2261 8.30442 20.5861 8.24097 19.915C8.17752 19.2439 8.30311 18.5684 8.60353 17.965C8.90395 17.3616 9.36722 16.8542 9.94095 16.5003C10.5147 16.1464 11.176 15.9601 11.8501 15.9625C12.2229 15.9604 12.5938 16.0152 12.9501 16.125V11.75C12.5355 11.6987 12.1177 11.6778 11.7001 11.6875C10.1617 11.7286 8.66871 12.2174 7.40391 13.0941C6.13912 13.9708 5.15742 15.1972 4.57903 16.6233C4.00064 18.0494 3.85066 19.6132 4.14746 21.1232C4.44425 22.6332 5.17495 24.0239 6.25006 25.125C7.35192 26.2453 8.76192 27.0127 10.3009 27.3297C11.8399 27.6468 13.4384 27.4992 14.8934 26.9057C16.3483 26.3122 17.594 25.2996 18.4721 23.9966C19.3502 22.6935 19.8211 21.1588 19.8251 19.5875V10.8375C21.5644 12.0799 23.6501 12.7446 25.7876 12.7375V8.4875C25.3677 8.48923 24.9488 8.44734 24.5376 8.3625H24.4876Z" fill="#131313"/>
</svg>
