<svg width="105" height="105" viewBox="0 0 105 105" fill="none" xmlns="http://www.w3.org/2000/svg">
<g clip-path="url(#clip0_62_351)">
<path d="M105 52.4475C105 23.4937 81.48 0 52.5 0C23.52 0 0 23.4937 0 52.4475C0 68.3944 7.245 82.7662 18.585 92.4131C18.69 92.5181 18.795 92.5181 18.795 92.6231C19.74 93.3581 20.685 94.0931 21.735 94.8281C22.26 95.1431 22.68 95.5566 23.205 95.9766C31.8811 101.859 42.1228 105.002 52.605 105C63.0872 105.002 73.3289 101.859 82.005 95.9766C82.53 95.6616 82.95 95.2481 83.475 94.9266C84.42 94.1981 85.47 93.4631 86.415 92.7281C86.52 92.6231 86.625 92.6231 86.625 92.5181C97.755 82.7597 105 68.3944 105 52.4475V52.4475ZM52.5 98.3916C42.63 98.3916 33.6 95.2416 26.145 89.9981C26.25 89.1581 26.46 88.3247 26.67 87.4847C27.2957 85.2082 28.2133 83.0222 29.4 80.9813C30.555 78.9863 31.92 77.2013 33.6 75.6263C35.175 74.0513 37.065 72.5878 38.955 71.4328C40.95 70.2778 43.05 69.4378 45.36 68.8078C47.688 68.1803 50.089 67.8648 52.5 67.8694C59.6574 67.8187 66.5518 70.5642 71.715 75.5213C74.13 77.9363 76.02 80.7713 77.385 84.0197C78.12 85.9097 78.645 87.9047 78.96 89.9981C71.2108 95.446 61.9725 98.3765 52.5 98.3916ZM36.435 49.8291C35.5098 47.7108 35.0446 45.4204 35.07 43.1091C35.07 40.8056 35.49 38.4956 36.435 36.3956C37.38 34.2956 38.64 32.4122 40.215 30.8372C41.79 29.2622 43.68 28.0088 45.78 27.0638C47.88 26.1188 50.19 25.6987 52.5 25.6987C54.915 25.6987 57.12 26.1188 59.22 27.0638C61.32 28.0088 63.21 29.2687 64.785 30.8372C66.36 32.4122 67.62 34.3022 68.565 36.3956C69.51 38.4956 69.93 40.8056 69.93 43.1091C69.93 45.5241 69.51 47.7291 68.565 49.8225C67.653 51.8914 66.3721 53.7771 64.785 55.3875C63.1741 56.9723 61.2884 58.2509 59.22 59.1609C54.8811 60.9441 50.0139 60.9441 45.675 59.1609C43.6066 58.2509 41.7209 56.9723 40.11 55.3875C38.5207 53.8006 37.2704 51.9073 36.435 49.8225V49.8291ZM85.155 84.6497C85.155 84.4397 85.05 84.3347 85.05 84.1247C84.0173 80.8396 82.4952 77.729 80.535 74.8978C78.573 72.0456 76.1617 69.5302 73.395 67.4494C71.282 65.8598 68.9917 64.5208 66.57 63.4594C67.6717 62.7325 68.6925 61.8899 69.615 60.9459C71.1804 59.4005 72.5552 57.6732 73.71 55.8009C76.0355 51.9803 77.2364 47.5813 77.175 43.1091C77.2075 39.7984 76.5644 36.5159 75.285 33.4622C74.0219 30.5198 72.2037 27.8483 69.93 25.5938C67.6596 23.3627 64.9876 21.5814 62.055 20.3437C58.9963 19.0666 55.7095 18.4258 52.395 18.4603C49.0801 18.4279 45.7933 19.071 42.735 20.3503C39.777 21.5853 37.0985 23.4044 34.86 25.6987C32.629 27.9667 30.8476 30.6365 29.61 33.5672C28.3306 36.6209 27.6875 39.9034 27.72 43.2141C27.72 45.5241 28.035 47.7291 28.665 49.8225C29.295 52.0275 30.135 54.0225 31.29 55.9059C32.34 57.7959 33.81 59.4759 35.385 61.0509C36.33 61.9959 37.38 62.8294 38.535 63.5644C36.1058 64.6541 33.8147 66.0288 31.71 67.6594C28.98 69.7594 26.565 72.2728 24.57 75.0028C22.5898 77.8223 21.0661 80.9361 20.055 84.2297C19.95 84.4397 19.95 84.6497 19.95 84.7547C11.655 76.3612 6.51 65.0344 6.51 52.4475C6.51 27.1688 27.195 6.50344 52.5 6.50344C77.805 6.50344 98.49 27.1688 98.49 52.4475C98.4763 64.5222 93.6818 76.1002 85.155 84.6497V84.6497Z" fill="#2c83e7"/>
</g>
<defs>
<clipPath id="clip0_62_351">
<rect width="105" height="105" fill="white"/>
</clipPath>
</defs>
</svg>
